<svg id="Laag_1" data-name="Laag 1" xmlns="http://www.w3.org/2000/svg" viewBox="0 0 1643 1529"><title>contract</title><path d="M300.78,1133.38C278,1006.07,2.44,798.94,84.15,762.83S285.58,567.1,228.57,464.49,116.46,284,188.67,247.86,390.1,107.24,445.2,162.34s24.71,131.12,163.43,58.91,171-201.43,305.94-138.72S1136.9,189,1176.81,270.66s22.8,119.72,134.92,134.92,262.24-39.91,288.84,41.81S1555,683,1406.74,749.53,1051.39,875,1186.31,1019.37s233.74,228,174.83,279.34-106.42,112.11-306,108.31-602.38,57-689.8-36.1S306.48,1165.18,300.78,1133.38Z" style="fill:#181919"/><path d="M983.64,349.76c3,0,6-.11,9.05-.09a36.21,36.21,0,0,1,4.77.37,21.57,21.57,0,0,1,5.31,1.29c.39.16,2.42,1.08,1.87-.11a3.14,3.14,0,0,0-1.18.22c-1.11.74,0,.62.32.69,1.31.3,2.62.59,3.94.83,50.66,9.28,91,35,121,76.69,23.09,32,36,68.45,44.94,106.48,9,38.61,13.51,77.93,16.86,117.36,2.13,25.09,4,50.24,4.77,75.4.77,24.12,2.85,48.13,4.17,72.19,1.46,26.49,3.59,52.88,8.17,79.06,5.62,32.15,14.83,63.09,30.22,92,2.12,4,4.05,8.15,7.26,11.47l0,0c.41,2.66,2.25,4.37,4.25,6.24-2.57,1.79-5.11,3.54-7.63,5.32-27.36,19.23-56.34,35.37-87.92,46.68-34.3,12.29-69.87,17.63-106,19.17-30.46,1.3-60.95.34-91.37-1.62-26.08-1.69-52.14-3.5-78.24-4.78-13.48-.66-27-.87-40.45-.78-6.11,0-12.14,1.36-18.36.4-3.32-.51-6.89.64-11.48,1.17,4.71,2.24,8.63,2.67,12.18,4.32a69.72,69.72,0,0,1,29.18,25.44c12,18.17,16.62,38.2,13.38,59.69-2.57,17.08-9.83,31.9-24.15,42.42-17.74,13-38.15,14.9-59,12.82-20.52-2-39.79-8.62-58.22-18-25.75-13.11-47.55-31-66.25-52.82-16.86-19.69-29.9-41.81-40.78-65.26C590.84,1013.69,579,960.66,578,905.19c-.22-12-.6-24.13.5-36.06.79-8.74,1.88-17.51,3-26.25,3.94-30.69,9.23-61.19,12.26-92,2.27-23.07,3.83-46.17,4.4-69.32.41-17.12.34-34.24-.33-51.37-.78-19.94-1.94-39.81-5.15-59.52-4.59-28.22-13-55-29.63-78.69-18.52-26.43-42.38-45-75.28-49.68-19.69-2.78-38.37.34-55.63,10.55-2.65,1.57-5.12,3.46-7.63,5.27-.91.66-1.93,1.51-2.89.87-1.5-1,.29-1.75.52-2.64.09-.4.21-.78.32-1.17a1.21,1.21,0,0,1,.41-.37c2.71-1.24,3.84-4,5.77-6,13.57-14,29.54-24.74,47.08-33a286.21,286.21,0,0,1,93.38-25.65,295,295,0,0,1,77.69,2.15c19.64,3.17,39.12,7.26,58.74,10.5a353.67,353.67,0,0,0,69.58,4.9c21.3-.71,41.55-5.56,61.44-12.6,23.77-8.41,46.32-19.77,69.68-29.17,22.35-9,45.13-16.13,69.58-16.08C978.42,349.81,981,349.78,983.64,349.76ZM667.58,795.58a1.93,1.93,0,0,0-1.58,1.68c-.9.29-1.74.65-1.8,1.76,0,.15.32.46.47.45,1.12-.1,1.36-1,1.68-1.89A2.2,2.2,0,0,0,668,796l.82-.79a4.48,4.48,0,0,0,3.22-3.22c-2,.47-3.15,1.21-3.63,2.78ZM705.09,863c.82-.11,1.47-.44,1.5-1.39,0-.15-.32-.46-.39-.44-.83.32-1,1.08-1.09,1.85a1,1,0,0,0-.29.15c-.05,0,0,.14-.06.21Zm18.62,81c.71-.24,1.56-.23,1.92-1.07,0-.06-.28-.36-.44-.38-1-.08-1.19.76-1.46,1.47l-.18.25Zm-4,3.28c1.21-.29,2.14-.8,2.12-2.38a2.31,2.31,0,0,0-2.26,2.24l-.81.8c-2.92.89-2.94,3.22-2.93,6.27l3.09-6.13Zm-6.81-93.39a12.51,12.51,0,0,0-5.43,6.46c2.88-2.09,4.7-3.74,5.93-6,2.33-1.11,3.86-3.16,5.68-4.87,3.66-1.84,4.08,1.41,4.86,3.38,3.92,9.84,11.4,13.64,21.6,13.67,9.52,0,17.78-3.59,25.1-8.95,14.64-10.71,30.6-14.14,48.48-11.82,10.23,1.33,20.76,1.51,30.6-3.11,7.87-3.71,14.71-9,21.59-14.18,10.18-7.66,20.88-11.11,33.17-5.38a19.94,19.94,0,0,0,2.67.9c9.24,3,17.69,1.57,25.57-4.16,7.08-5.14,12.38-12,18.21-18.3,7.86-8.53,12.65-9.26,22.65-3.25,4.73,2.84,9.17,6.19,14,8.87,11.87,6.61,22.53,4.11,30.42-6.87,2.44-3.39,4.8-6.84,7.22-10.25,4.17-5.84,9.67-9.39,17-9.25a101.71,101.71,0,0,1,11.65,1.18c12.22,1.67,23-.17,30.87-11.07a28.17,28.17,0,0,1,13.57-9.84q13.31-4.8,26.57-9.69c1.44-.54,3.35-.5,4.27-2.31-1.46-.8-2.61-.26-3.75.09-7.86,2.37-15.69,4.84-23.58,7.11-8.5,2.44-16,6.49-21.69,13.35-6.2,7.46-14.21,8.6-23.08,7.24q-2.6-.41-5.15-1c-15.33-3.82-27.25.88-35.87,14.16a49.05,49.05,0,0,1-5.56,6.91c-5.63,6-10.89,7-18.15,3.17-5-2.63-9.73-5.79-14.55-8.75-12.5-7.68-23.31-5.8-32.46,5.53-4.66,5.76-9.36,11.51-15.06,16.31-6.28,5.28-13.19,7.52-21.38,4.84-4.72-1.53-9.41-3.28-14.46-3.61-10.58-.69-18.89,4.4-26.87,10.41-6.56,4.93-12.73,10.44-20.31,13.88-10.81,4.9-22.22,3.44-33.47,2.81a83.52,83.52,0,0,0-17.69.85c-9,1.41-16.55,6.23-24,11.11-7.12,4.66-14.18,9.34-22.87,10.72-8.34,1.32-19.55-.74-23.52-11.75a11.07,11.07,0,0,0-2.81-4.39c-1.87-1.77-3.25-1.61-4.14.91C716,849.62,714.28,851.59,712.88,853.87ZM754.7,1019.5c7.63-3.44,15.16-1.58,22.41,1,12.07,4.32,23.42,3.35,34.61-2.87,6.82-3.79,13.32-8.16,20.58-11.18,9.89-4.11,20.46-4.45,30.86-5.63,11.5-1.31,22.31-4.18,30.49-13.07a21.89,21.89,0,0,1,19.2-7.39,24.29,24.29,0,0,0,2.83,0,48.61,48.61,0,0,0,28.67-9.45c4.93-3.63,8.76-8.38,13.14-12.57s9.25-5.89,15.14-3.81c9,3.17,18,3.42,26.85-.09,5.13-2,10.08-4.51,15.12-6.77,4.79-2.14,9.55-4.29,14.77-5.32,9.24-1.83,18.26.38,27.3,1.4,13.91,1.57,25.76-1.22,33.68-13.91.92-1.47,2.29-2.65,3.32-4.07,3.76-5.18,9-6.15,14.78-4.93,6.84,1.44,13,0,19-3.24,9-4.77,17-12.3,28.5-11.11-2.73-1.57-5.42-1.54-8.29-.94-6.87,1.45-12.62,5.33-18.66,8.53-6.7,3.55-13.5,5.23-21,3.07a16.18,16.18,0,0,0-8-.39c-5.39,1.15-9,4.65-12.22,8.73-5.12,6.54-10.75,12.16-19.77,12.43-5.28.15-10.45-.79-15.62-1.67-9.3-1.58-18.57-3.31-28.07-1.34-7.25,1.51-13.63,5-20.07,8.37-9.48,4.93-19,7.79-29.75,4.08-9.06-3.13-16.61,0-22.9,6.88-3.27,3.58-6.4,7.36-10.08,10.47a41.22,41.22,0,0,1-28.35,9.88c-7.93-.16-15.53,1-20.94,7.49-7.68,9.23-17.91,12.83-29.3,14.47-10.49,1.51-21.19,2.07-31.14,6.37-7.21,3.13-13.63,7.63-20.38,11.55-7.5,4.35-15.31,7.57-24.16,6.22-4.77-.73-9.4-2.31-14.13-3.34-6.45-1.4-13-3.09-19,1.55-.74.27-2.28.2-1.61,1.36C753.17,1021.21,754.1,1020.1,754.7,1019.5Zm71.06-498.1,0,0c-1,5.45-3.47,10.44-5.14,15.69-3,9.43-5.52,18.89-3.82,28.9.66,3.91,1.63,7.84,6,9.37s7.68-.47,10.62-3.16a38.51,38.51,0,0,0,5.45-6.48c2.87-4.15,5.53-8.45,8.53-13.08.12,2.26.07,4,.34,5.68a33.48,33.48,0,0,0,1.39,5.47c2,5.91,6.38,8.42,12.53,7.37,7.41-1.26,13.66-4.86,19.18-9.75,10.59-9.38,16.69-21.66,21.92-34.47,2.87-7,4.92-14.44,8.35-21.51,1.18,1,2,2.38,3,2.55,6.27,1.08,4.24,5.05,3.46,8.87-2.1,10.25-3.35,20.48,1.27,30.5,3.15,6.84,8.3,9.15,15.48,6.68,5.22-1.8,8.71-5.72,12.11-9.76,3.87-4.61,6.58-10,10-15.51.24,1,.35,1.32.41,1.69,1.3,7.67,4.67,10.31,10.8,11.88s9.88-2.18,12.69-7.11c.6-1,1.31-2,1.86-3.12,2.38-4.75,4.72-9.52,7.43-15,.31,1.33.42,1.82.54,2.3,1.27,5.28,4.17,9.21,9.78,10s8.87-3,11.6-7.22S1016,513,1018,508.25c4.56,15.78,19,12.89,25.85,5a67.25,67.25,0,0,0,7.12-9.79,159.29,159.29,0,0,0,7.32-14.75c1,2.41,1.61,4.62,2.64,6.64,2.46,4.84,5.82,6.28,11,4.74a18.2,18.2,0,0,0,5.1-2.35c14.44-10,21-24.74,24.58-41.27.25-1.17.26-2.79-1.22-3s-1.63,1.44-2,2.6c-2.11,7.1-4.31,14.18-8,20.7s-8.18,12.45-14.54,16.54c-6,3.86-9.47,1.94-10.55-5.11-1.44-9.36.74-18.47,1.37-27.7.4-5.83,3.16-9.17,7.9-12a187.93,187.93,0,0,0,21.15-14.87c1.35-1.08,3.19-2,3.37-4.14-1.77-.54-2.76.63-3.89,1.2-5.64,2.87-11.22,5.87-16.87,8.73-1.89.95-4.23,3.24-5.75,2.11s.48-3.87.67-5.94c.21-2.33,1.23-5.2-2.35-5.83-3-.52-6.11-.81-6.94,3.4-.34,1.71-1.06,3.36-1.25,5.08-.63,5.8-2.28,10.74-8.86,12.22a5.34,5.34,0,0,0-2.08,1.2c-1.82,1.53-2.79,3.39-1.4,5.67,1.29,2.12,3.18,2.11,5.31,1.32.77-.28,1.43-1.3,2.19-.84,0,3.85-.09,7.48,0,11.1.44,15.18-6.28,27.71-14.88,39.41-2.76,3.75-6.41,7.78-11.78,6-5.71-1.94-5.71-7.64-5.48-12.36a59.63,59.63,0,0,1,12.28-33.63c.59-.78,1.17-1.89,2.81-1.48,0,1.41-.07,2.86,0,4.3.11,2-.81,4.66,2.06,5.5s5-.89,6.48-3.05c2.27-3.22,1.26-10.75-1.64-13.64-2.65-2.64-7-2.71-11.22-.23a17.94,17.94,0,0,0-4.84,4.25,54.62,54.62,0,0,0-8.06,13.95c-3.1,7.77-5.11,15.88-7.84,23.76-2.37,6.86-4.71,13.79-9.29,19.59-1.27,1.62-2.65,3.92-5.21,3.05s-2.94-3.18-3.3-5.57c-.62-4.07,0-8.07.61-12,1.35-8.22,3.1-16.38,4.52-24.59.71-4.07-1.19-5.82-5.35-5.39-1,.1-1.74.91-3-.06-5.4-4.28-8.2-4.32-14-.62-7.88,5-12,12.95-16,20.88-4.83,9.5-7.1,20.07-12.1,29.5-4.56,8.59-9.34,17.06-18.42,21.89-4.22,2.24-7.67,1.22-9.62-3.13a20.16,20.16,0,0,1-1.34-11.07c1.45-11.22,6.28-21.4,9.67-32,1-3,1-5.23-1.87-6.81s-4.55.56-6,2.48a18.88,18.88,0,0,1-4.41,4.11,5,5,0,0,1-5.72.3c-1.92-1.28-.73-3.17-.17-4.78,1.42-4.06,3.14-8.05,2.63-12.53-.21-1.8-.32-3.58-2.54-4.06a4.56,4.56,0,0,0-5,2,15,15,0,0,0-1.85,4.87c-1.24,4.21-.2,8.62-1.17,12.84A167.68,167.68,0,0,1,896,532.11c-3.7,8.12-8.25,15.8-14.66,22.12-5.09,5-10.48,9.81-17.83,11.3-5.33,1.08-8.25-1.28-8.65-6.71a24.33,24.33,0,0,1-.09-2.83c.68-14.21,5.61-27.32,10.58-40.41.56-1.5,1.81-1.84,3.09-2.27,7.14-2.41,14.31-4.74,21.39-7.3,4.3-1.55,8.48-3.44,12.67-5.28.78-.34,1.89-1,1.44-2.11s-1.57-.45-2.43-.28c-2.64.52-5.28,1.08-7.93,1.52-7,1.17-13.93,2.91-21.43,3.55,1.4-3.6,2.64-6.84,3.93-10.06s.09-5.12-2.79-6.52c-3.09-1.51-5.43-1-6.87,2.27-1.64,3.69-3.28,7.38-4.76,11.14-1.17,3-2.61,5.16-6.39,4.92a16.52,16.52,0,0,0-5.91,1.09c-2.91.93-3.2,3.36-2.85,5.94s2,3.73,4.47,3.69c1.17,0,2.33-.15,3.92-.26-3.28,10-3.57,20.43-8.52,29.58-4.09,7.56-8.09,15.24-14.6,21.14-4.12,3.74-5.69,3.29-6.92-2-1.56-6.64.33-12.91,2.74-18.89,4-10,8.59-19.75,12.93-29.61,1.26-2.86,1.16-5.75-1.15-7.84s-5.08-1.51-7.47.19a26.63,26.63,0,0,0-4.88,4.21,282.48,282.48,0,0,0-17.29,22.86c-4.47,6.52-8.92,13-13.55,19.84-.71-1.87-.11-3.21.24-4.59,2.52-9.82,6.31-19.18,10.28-28.47,2.23-5.22,1.86-8.89-1.28-9.94-4.88-1.63-5.48,2.84-7,5.51-5.69,10.24-11.11,20.64-16.73,30.92-1.87,3.42-4,6.69-6.06,10-.82,1.33-1.65,2.88,0,3.88s2.31-.88,3.13-1.8c1-1.09,1.72-2.41,2.61-3.59s1.5-3.36,3.57-2.46c1.9.82-.39,2.27,0,3.55.25.77-.31,1.81-.5,2.73-.89,4.53-1.5,9.06.09,13.55.83,2.36,2.17,4.64,4.77,5s3.52-2.16,4.48-4c5.1-9.8,10-19.72,15.2-29.45C813.83,537.25,818.63,528.53,825.76,521.4ZM653.54,594.68c13.85-.28,24-2.78,33.83-7.92,11.24-5.89,21.41-13,29.89-22.31,2.8-3.09,6.22-6.12,6.58-10.82.09-1.09,0-2.28-1.09-2.83s-2.1.38-2.72,1.18c-2.42,3.07-4.53,6.39-7.1,9.31-14.72,16.7-32.43,26.9-55.54,24.76-13.62-1.26-23.49-8.55-29.56-20.43-7-13.55-5.89-28-2.22-42.18,6.61-25.66,21.45-46.31,40.85-63.68,13.29-11.91,28.58-19.86,47.37-17.61,8.84,1.06,15.74,5.62,19,13.68,6.88,16.81,2.81,34.15-11.29,47.91-4.3,4.19-9.05,7.64-15,9.06-15.08,3.6-26.69-8.18-22.86-23.17a27,27,0,0,1,9.9-14.81c1.23-1,2.53-2.21,1.53-3.7-1.23-1.82-2.7-.29-3.76.57a35.88,35.88,0,0,0-9.1,10.72c-3.88,7.15-5.42,14.71-2,22.49,5.07,11.7,18.57,17.9,31.49,13.85,16.44-5.17,25.79-17.18,30-33.54,2.68-10.49,2.55-21-2.56-30.63-7.67-14.5-21.06-19-36.35-18.06-12.4.73-23.84,5.16-34.46,11.71-17.34,10.7-29.83,25.92-39.7,43.31-11.24,19.8-18.2,40.91-15.07,64.08C616.43,576.92,630.59,595.73,653.54,594.68Zm21,196.13a3.16,3.16,0,0,0,1.09-.18A41.87,41.87,0,0,1,708,786.47a41.1,41.1,0,0,0,28.41-2.38c14.89-6.91,30-6.91,45.8-3.92,12.27,2.34,24.18.87,34.3-7.62,1.85-1.55,4-2.79,5.9-4.25,8.73-6.58,18.39-7.9,28.74-5.09q9.54,2.61,19,5.46c17,5.17,32.42,2.73,45.74-9.71,5.12-4.77,10.42-9.36,15.62-14,12.31-11,25.44-16.77,41.85-8.26,7.22,3.74,14.82,2.62,21.25-2.65s13.81-6.57,21.65-5.83c5.65.54,11.3.57,17,.73a32.62,32.62,0,0,0,22.39-7.8c3.22-2.66,6.47-5.29,9.88-7.7,8.19-5.81,17.51-4.82,26.58-3.62,12.93,1.71,24.08-.87,32.82-11.12.51-.61,1.49-1,.69-1.87s-1.5-.13-2.1.42-.86,1-1.34,1.52c-5.91,5.88-12.87,9.25-21.39,8.66a73.73,73.73,0,0,1-9.61-1.17c-13-2.67-24.8-1-35.11,8.17a32.1,32.1,0,0,1-26.13,8.39c-3.74-.45-7.48-.89-11.22-1.27-9-.92-18.21-1.4-25.76,4.14-7.14,5.24-13.75,4.69-21.18,1.59a35.39,35.39,0,0,0-15.72-3c-10.11.56-18,5.77-25.64,11.71s-13.65,13.65-21.2,19.76c-9.77,7.92-20.46,11.16-32.78,8.24-5.36-1.27-10.7-2.69-16-4.29-15.69-4.77-30.73-5-43.59,7-10.94,10.15-23.73,12-37.65,9.35-14.74-2.75-28.88-1.63-42.54,5a42.91,42.91,0,0,1-29.15,3.23,40.34,40.34,0,0,0-16.81-.76C684.68,784.65,679.05,786.46,674.5,790.81Zm78,146.51c.32,0,.69.21,1,.12,6.43-2.07,12.06-5.74,17.76-9.22,10.07-6.17,20-8.58,31-1.78,9.74,6,19.59,4,29-1.64,4.65-2.8,8.77-6.27,13-9.58,6.53-5.08,13.23-9.91,21.8-10.7a110.07,110.07,0,0,1,21,.27A55.93,55.93,0,0,0,906,903.48c8.58-2.05,15.89-6.74,22.69-12,11.9-9.26,25.21-12.67,39.88-10.07a58,58,0,0,0,42.55-8.32,41.82,41.82,0,0,1,22.89-6.83c13.2,0,24.48-4.5,33.43-14.42,1.53-1.7,3.25-3.24,4.89-4.84,6.77-6.61,14.73-10.18,24.35-9.85,5.53.18,11.06.16,16.59,0a30.27,30.27,0,0,0,19.71-7.23c6.67-5.74,12.06-13.36,21.72-14.85-5.61-.75-10.18,1.74-13.72,5.34-10.83,11-23.34,15.45-38.83,12.93-9.66-1.57-19.49-.66-27.89,5.46a103.38,103.38,0,0,0-11,8.93c-8,7.68-17.31,11.67-28.48,11a48.15,48.15,0,0,0-30,7.91c-11.39,7.54-23.69,8.71-36.81,7a62,62,0,0,0-18.14.27c-9.2,1.57-16.73,6.48-24.18,11.65-7.17,5-14.05,10.52-22.87,12.52-8.28,1.89-16.62,1.07-25,.79-10-.34-19.63.88-28.16,6.79a124.3,124.3,0,0,0-10.84,8.43c-4.8,4.18-9.9,8-15.81,10.41-7.27,3-14.21,1.85-21-1.81-8-4.31-16.05-4.7-24.4-.8-8.8,4.12-16.21,10.59-25.13,14.48C752.46,936.48,752.54,936.93,752.54,937.32Zm351.18-316.84c-1.33-.64-2.41.25-3.46.64q-24.13,9.2-48.22,18.53c-12.69,4.94-25.36,10.36-39.23,10.08a128.83,128.83,0,0,0-46.72,7.83c-14.17,5.09-28.49,7.29-43.62,4.81-14.81-2.42-27.9,1.72-38.87,12.44-6.25,6.11-13,11.63-22.14,13.3-9.38,1.71-18.52,0-27.7-1.24-8.81-1.18-17.55-2.65-26.52-1.66-10.57,1.17-19.45,6.3-28,11.88-11.24,7.32-23.06,10.62-36.44,8.24a50.08,50.08,0,0,0-32.11,4.84c-10.14,5.1-20.36,11-32.61,6.72,6.11,3.07,12.35,3,18.68,1.18,6-1.69,11.45-4.7,17.09-7.23,7.42-3.33,15-4.94,23.15-3.45a136.64,136.64,0,0,0,14.83,1.76c10.72.78,19.93-3.67,29-8.71,6.69-3.73,13.17-8,20.77-9.71,10.63-2.36,21.16-.63,31.67,1.22,8.34,1.48,16.65,3.09,25.23,2.48,11.54-.81,20.76-6.38,28.86-14,9.13-8.57,19.52-12.66,32.07-10.78,4.26.64,8.54,1.12,12.82,1.56,14,1.41,27.32-1.8,40.19-7a114,114,0,0,1,39.68-8.39,66.53,66.53,0,0,0,23.95-5.25c21.67-9.26,43.27-18.69,64.87-28.1C1101.9,622,1103.32,622,1103.72,620.48ZM787.66,523c-2.68-.07-4.16,1.74-6.06,2.56-3.79,1.63-5.16.77-5.07-3.23a25.29,25.29,0,0,0-1.06-9.19c-2.18-6-7.82-8-13.32-4.72a25.54,25.54,0,0,0-6.54,6c-8.49,10.58-14.87,22.39-20.09,34.86-2.36,5.65-4,11.53-3.69,17.65s1.86,12.42,8,14.85c5.78,2.29,11.39,0,15.65-4.74,10.12-11.37,17.3-24.38,20.62-39.21.79-3.53,1.94-5.74,4.83-7.61C783.61,528.44,786.68,526.84,787.66,523ZM945,1029.61c1.42.24,1.86.46,2.18.34,11.48-4.12,23.08-2.52,34.76-1.09,13,1.6,25.51.07,36.66-7.81,3.84-2.71,8.11-4.79,12.18-7.17,7.94-4.64,16.54-4.1,25.13-3,9.46,1.22,17.63-1.07,24.24-8.17,1.75-1.87,3.53-3.71,5.29-5.57a20.27,20.27,0,0,1,9.58-5.68c7.19-2,14.51-1.47,21.71-1,11.58.83,21.81-1.82,30.9-9.14a23.5,23.5,0,0,1,17.67-5.5,4.51,4.51,0,0,0,3.41-.92c-1.91-.46-3.41-.94-5-1.18-7-1.11-13.43.91-19.13,4.81-7.53,5.15-15.75,6.7-24.63,5.69-2.94-.34-5.88-.69-8.79-1.2-13.3-2.29-25.47-.81-34,11.13-5.39,7.57-12.28,10.93-21.5,9.79-14.22-1.76-26.42,3-37.58,11.52-9.47,7.26-20,11.24-32.35,10.31-7.91-.6-15.85-1.46-23.82-1A40.21,40.21,0,0,0,945,1029.61ZM750.92,937.7c-4.09.49-8,1.2-12,1.63s-8,.28-11.48,2.69C735.34,940.79,743.54,941.12,750.92,937.7Zm388.39-250.34c-4.14-.4-10.51,4-11.15,7.54C1132,692.69,1134.66,688.61,1139.31,687.36Zm8.54,55.73c-6.26.21-10.79,2-11.38,4.24Zm-400.59,291a16.35,16.35,0,0,1,1-9.42C744.84,1027.46,745.26,1030.68,747.26,1034.07ZM1106,619.65a1.11,1.11,0,0,0-.3-.08s-.07.14-.11.22a1.29,1.29,0,0,0,.31.08S1106,619.73,1106,619.65ZM673,791.18c0,.09-.16.2-.14.25a1,1,0,0,0,.26.27l.16-.51Z" style="fill:#fdf2d2"/><path d="M422.46,455.16c-.11.39-.23.77-.32,1.17-.23.89-2,1.65-.52,2.64,1,.64,2-.21,2.89-.87,2.51-1.81,5-3.7,7.63-5.27,17.26-10.21,35.94-13.33,55.63-10.55,32.9,4.66,56.76,23.25,75.28,49.68,16.59,23.66,25,50.47,29.63,78.69,3.21,19.71,4.37,39.58,5.15,59.52.67,17.13.74,34.25.33,51.37-.57,23.15-2.13,46.25-4.4,69.32-3,30.83-8.32,61.33-12.26,92-1.13,8.74-2.22,17.51-3,26.25-1.1,11.93-.72,24-.5,36.06,1,55.47,12.85,108.5,36.22,158.88,10.88,23.45,23.92,45.57,40.78,65.26,18.7,21.82,40.5,39.71,66.25,52.82,18.43,9.38,37.7,16,58.22,18,20.89,2.08,41.3.22,59-12.82,14.32-10.52,21.58-25.34,24.15-42.42,3.24-21.49-1.35-41.52-13.38-59.69a69.72,69.72,0,0,0-29.18-25.44c-3.55-1.65-7.47-2.08-12.18-4.32,4.59-.53,8.16-1.68,11.48-1.17,6.22,1,12.25-.36,18.36-.4,13.49-.09,27,.12,40.45.78,26.1,1.28,52.16,3.09,78.24,4.78,30.42,2,60.91,2.92,91.37,1.62,36.18-1.54,71.75-6.88,106-19.17,31.58-11.31,60.56-27.45,87.92-46.68,2.52-1.78,5.06-3.53,7.63-5.32-2-1.87-3.84-3.58-4.25-6.24.85-.2,1.15.46,1.54,1,3.5,4.64,3.53,4.68,8.48,1.28,17.68-12.12,35.64-23.79,55.08-32.95a197.77,197.77,0,0,1,30.84-11.68c7.7-2.16,15.66-.77,22.81,2.93,25.31,13.11,39.13,33.51,40,62.5,1.06,33.48-20.34,64.66-50.16,76.61a43.93,43.93,0,0,1-25.32,2.22c-23.55-4.45-46.9-2.51-70.2,2.39-28.62,6-55.6,16.76-82.59,27.63-31.73,12.78-64.11,23.83-96.4,35.09-23.14,8.07-46.46,15.59-70.08,22.08Q983,1180,956.29,1185.55q-22.95,4.83-46.14,8a449.26,449.26,0,0,1-73.41,3.92,13.28,13.28,0,0,0-6.58,1.43c-17.4,8.65-36,10-54.87,7.93-37.52-4.07-70.16-19.94-99.66-42.81a236.1,236.1,0,0,1-27.44-25.66l-9.49-11c-31-38.15-49-82.34-60.06-129.72a408.67,408.67,0,0,1-11.06-102.94,489.79,489.79,0,0,1,5.7-60.68c4.09-27.41,8.94-54.7,12.08-82.26,3.11-27.34,4.9-54.73,5.77-82.21a699.6,699.6,0,0,0-2-79.58c-2.16-26.24-7.8-51.58-19.71-75.33-1.91-3.8-4.3-5-7.94-5-32.51-.49-60.86,10.52-85.81,31-8.63,7.08-15.43,15.76-21.87,24.76-.39.55-.74,1.13-1.1,1.7-3.93,6.27-3.78,6-11,2.57a97.75,97.75,0,0,1-25.5-16.67c-10-9.31-14.83-21-16.43-34.15-2.25-18.53,4.09-35,12.92-50.76,2.22-4,4-8.29,7.49-11.45C420.89,455.9,421.34,455,422.46,455.16ZM417.59,463c-.41.29-.94.83-.48,1.12s.58-.45.75-.84l.87-.74c.88-.47,2-.72,2-2a.68.68,0,0,0-.49-.45c-1.29.05-1.54,1.11-1.9,2.06Z" style="fill:#dcc26f"/><path d="M1245.12,983.62c-3.21-3.32-5.14-7.49-7.26-11.47-15.39-28.92-24.6-59.86-30.22-92-4.58-26.18-6.71-52.57-8.17-79.06-1.32-24.06-3.4-48.07-4.17-72.19-.79-25.16-2.64-50.31-4.77-75.4-3.35-39.43-7.81-78.75-16.86-117.36-8.91-38-21.85-74.46-44.94-106.48-30-41.69-70.35-67.41-121-76.69-1.32-.24-2.63-.53-3.94-.83-.31-.07-1.43.05-.32-.69a3.14,3.14,0,0,1,1.18-.22,191.32,191.32,0,0,1,70.82,24.31c22.42,13,41.06,30.19,56.67,50.79.93,1.24,1,3.15,2.85,3.69,0,2.63,2.38,3.77,3.64,5.58,5.91,8.46,10.47,17.72,15.85,26.49,17.31,34.63,27.53,71.52,34.62,109.37,4.66,24.87,8.12,49.94,10.89,75.1s4.74,50.67,6.69,76.05c2.35,30.55,2.49,61.14,3,91.73.66,37,3.45,73.73,12.62,109.72a264.35,264.35,0,0,0,17.86,48.75C1241.9,976.38,1244.68,979.46,1245.12,983.62Z" style="fill:#dcc26f"/><path d="M983.64,349.76c-2.61,0-5.22.05-7.83.05-24.45-.05-47.23,7.08-69.58,16.08-23.36,9.4-45.91,20.76-69.68,29.17-19.89,7-40.14,11.89-61.44,12.6a353.67,353.67,0,0,1-69.58-4.9c-19.62-3.24-39.1-7.33-58.74-10.5a295,295,0,0,0-77.69-2.15,286.21,286.21,0,0,0-93.38,25.65c-17.54,8.27-33.51,19-47.08,33-1.93,2-3.06,4.78-5.77,6-.1-.75-.2-1.5-.31-2.25l0,0c9.32-9.67,18.79-19.15,29.93-26.82,15.74-10.84,32.8-19,50.65-25.66a299,299,0,0,1,112.45-18.76,339.62,339.62,0,0,1,52.48,5.76C684.13,390,700.41,392,716.64,394a309.74,309.74,0,0,0,53.69,1.74c27-1.39,53.39-6.1,79-15.2,25.34-9,50.15-19.57,76.25-26.4,16.64-4.36,33.52-6.81,50.76-5.92C978.82,348.31,981.42,348.22,983.64,349.76Z" style="fill:#dcc26f"/><polygon points="422.56 452.54 422.42 452.43 422.54 452.57 422.56 452.54" style="fill:#dcc26f"/><path d="M825.76,521.4c-7.13,7.13-11.93,15.85-16.63,24.6-5.23,9.73-10.1,19.65-15.2,29.45-1,1.84-1.82,4.41-4.48,4s-3.94-2.68-4.77-5c-1.59-4.49-1-9-.09-13.55.19-.92.75-2,.5-2.73-.42-1.28,1.87-2.73,0-3.55-2.07-.9-2.65,1.23-3.57,2.46s-1.62,2.5-2.61,3.59c-.82.92-1.56,2.74-3.13,1.8s-.85-2.55,0-3.88c2-3.33,4.19-6.6,6.06-10,5.62-10.28,11-20.68,16.73-30.92,1.48-2.67,2.08-7.14,7-5.51,3.14,1,3.51,4.72,1.28,9.94-4,9.29-7.76,18.65-10.28,28.47-.35,1.38-1,2.72-.24,4.59,4.63-6.79,9.08-13.32,13.55-19.84a282.48,282.48,0,0,1,17.29-22.86,26.63,26.63,0,0,1,4.88-4.21c2.39-1.7,5.19-2.26,7.47-.19s2.41,5,1.15,7.84c-4.34,9.86-8.89,19.63-12.93,29.61-2.41,6-4.3,12.25-2.74,18.89,1.23,5.29,2.8,5.74,6.92,2,6.51-5.9,10.51-13.58,14.6-21.14,5-9.15,5.24-19.62,8.52-29.58-1.59.11-2.75.24-3.92.26-2.51,0-4.12-1.12-4.47-3.69s-.06-5,2.85-5.94a16.52,16.52,0,0,1,5.91-1.09c3.78.24,5.22-1.93,6.39-4.92,1.48-3.76,3.12-7.45,4.76-11.14,1.44-3.23,3.78-3.78,6.87-2.27,2.88,1.4,4,3.39,2.79,6.52s-2.53,6.46-3.93,10.06c7.5-.64,14.42-2.38,21.43-3.55,2.65-.44,5.29-1,7.93-1.52.86-.17,1.93-1,2.43.28s-.66,1.77-1.44,2.11c-4.19,1.84-8.37,3.73-12.67,5.28-7.08,2.56-14.25,4.89-21.39,7.3-1.28.43-2.53.77-3.09,2.27-5,13.09-9.9,26.2-10.58,40.41a24.33,24.33,0,0,0,.09,2.83c.4,5.43,3.32,7.79,8.65,6.71,7.35-1.49,12.74-6.28,17.83-11.3,6.41-6.32,11-14,14.66-22.12A167.68,167.68,0,0,0,907,500.5c1-4.22-.07-8.63,1.17-12.84a15,15,0,0,1,1.85-4.87,4.56,4.56,0,0,1,5-2c2.22.48,2.33,2.26,2.54,4.06.51,4.48-1.21,8.47-2.63,12.53-.56,1.61-1.75,3.5.17,4.78a5,5,0,0,0,5.72-.3,18.88,18.88,0,0,0,4.41-4.11c1.46-1.92,3.11-4.05,6-2.48s2.84,3.8,1.87,6.81c-3.39,10.62-8.22,20.8-9.67,32a20.16,20.16,0,0,0,1.34,11.07c1.95,4.35,5.4,5.37,9.62,3.13,9.08-4.83,13.86-13.3,18.42-21.89,5-9.43,7.27-20,12.1-29.5,4-7.93,8.17-15.87,16-20.88,5.81-3.7,8.61-3.66,14,.62,1.21,1,2,.16,3,.06,4.16-.43,6.06,1.32,5.35,5.39-1.42,8.21-3.17,16.37-4.52,24.59-.65,3.94-1.23,7.94-.61,12,.36,2.39.87,4.75,3.3,5.57s3.94-1.43,5.21-3.05c4.58-5.8,6.92-12.73,9.29-19.59,2.73-7.88,4.74-16,7.84-23.76a54.62,54.62,0,0,1,8.06-13.95,17.94,17.94,0,0,1,4.84-4.25c4.2-2.48,8.57-2.41,11.22.23,2.9,2.89,3.91,10.42,1.64,13.64-1.52,2.16-3.59,3.89-6.48,3.05s-2-3.46-2.06-5.5c-.09-1.44,0-2.89,0-4.3-1.64-.41-2.22.7-2.81,1.48A59.63,59.63,0,0,0,1025.84,502c-.23,4.72-.23,10.42,5.48,12.36,5.37,1.82,9-2.21,11.78-6,8.6-11.7,15.32-24.23,14.88-39.41-.11-3.62,0-7.25,0-11.1-.76-.46-1.42.56-2.19.84-2.13.79-4,.8-5.31-1.32-1.39-2.28-.42-4.14,1.4-5.67a5.34,5.34,0,0,1,2.08-1.2c6.58-1.48,8.23-6.42,8.86-12.22.19-1.72.91-3.37,1.25-5.08.83-4.21,4-3.92,6.94-3.4,3.58.63,2.56,3.5,2.35,5.83-.19,2.07-2.3,4.72-.67,5.94s3.86-1.16,5.75-2.11c5.65-2.86,11.23-5.86,16.87-8.73,1.13-.57,2.12-1.74,3.89-1.2-.18,2.19-2,3.06-3.37,4.14a187.93,187.93,0,0,1-21.15,14.87c-4.74,2.85-7.5,6.19-7.9,12-.63,9.23-2.81,18.34-1.37,27.7,1.08,7.05,4.53,9,10.55,5.11,6.36-4.09,10.88-10,14.54-16.54s5.84-13.6,8-20.7c.35-1.16.51-2.78,2-2.6s1.47,1.8,1.22,3c-3.53,16.53-10.14,31.26-24.58,41.27a18.2,18.2,0,0,1-5.1,2.35c-5.22,1.54-8.58.1-11-4.74-1-2-1.69-4.23-2.64-6.64a159.29,159.29,0,0,1-7.32,14.75,67.25,67.25,0,0,1-7.12,9.79c-6.8,7.87-21.29,10.76-25.85-5-2,4.78-3.73,9.62-6.53,13.94s-5.91,8.06-11.6,7.22-8.51-4.75-9.78-10c-.12-.48-.23-1-.54-2.3-2.71,5.46-5,10.23-7.43,15-.55,1.08-1.26,2.07-1.86,3.12-2.81,4.93-6.61,8.66-12.69,7.11s-9.5-4.21-10.8-11.88c-.06-.37-.17-.72-.41-1.69-3.42,5.5-6.13,10.9-10,15.51-3.4,4-6.89,8-12.11,9.76-7.18,2.47-12.33.16-15.48-6.68-4.62-10-3.37-20.25-1.27-30.5.78-3.82,2.81-7.79-3.46-8.87-1-.17-1.82-1.51-3-2.55-3.43,7.07-5.48,14.46-8.35,21.51-5.23,12.81-11.33,25.09-21.92,34.47-5.52,4.89-11.77,8.49-19.18,9.75-6.15,1-10.5-1.46-12.53-7.37a33.48,33.48,0,0,1-1.39-5.47c-.27-1.69-.22-3.42-.34-5.68-3,4.63-5.66,8.93-8.53,13.08a38.51,38.51,0,0,1-5.45,6.48c-2.94,2.69-6.41,4.64-10.62,3.16s-5.3-5.46-6-9.37c-1.7-10,.83-19.47,3.82-28.9,1.67-5.25,4.13-10.24,5.14-15.69l.49-.54-.33-.16Zm138.73,6.22c-.23,2.09.5,4,1,5.94,1.2,4.62,4,5.65,7.8,2.8a21.65,21.65,0,0,0,6-7.48c7.79-14.68,10.48-31,14.7-46.77.67-2.54-.92-2.81-2.65-2.61a10.08,10.08,0,0,0-4.66,2.27c-4.54,3.37-7.57,8-10.27,12.79C970.61,504.92,965.4,515.5,964.49,527.62Z" style="fill:#181919"/><path d="M653.54,594.68c-22.95,1.05-37.11-17.76-40-39.06-3.13-23.17,3.83-44.28,15.07-64.08,9.87-17.39,22.36-32.61,39.7-43.31,10.62-6.55,22.06-11,34.46-11.71,15.29-.9,28.68,3.56,36.35,18.06,5.11,9.65,5.24,20.14,2.56,30.63-4.16,16.36-13.51,28.37-30,33.54-12.92,4-26.42-2.15-31.49-13.85-3.37-7.78-1.83-15.34,2-22.49a35.88,35.88,0,0,1,9.1-10.72c1.06-.86,2.53-2.39,3.76-.57,1,1.49-.3,2.73-1.53,3.7a27,27,0,0,0-9.9,14.81c-3.83,15,7.78,26.77,22.86,23.17,5.95-1.42,10.7-4.87,15-9.06,14.1-13.76,18.17-31.1,11.29-47.91-3.31-8.06-10.21-12.62-19-13.68-18.79-2.25-34.08,5.7-47.37,17.61-19.4,17.37-34.24,38-40.85,63.68-3.67,14.21-4.73,28.63,2.22,42.18,6.07,11.88,15.94,19.17,29.56,20.43,23.11,2.14,40.82-8.06,55.54-24.76,2.57-2.92,4.68-6.24,7.1-9.31.62-.8,1.48-1.79,2.72-1.18s1.18,1.74,1.09,2.83c-.36,4.7-3.78,7.73-6.58,10.82-8.48,9.35-18.65,16.42-29.89,22.31C677.55,591.9,667.39,594.4,653.54,594.68Z" style="fill:#181919"/><path d="M674.5,790.81c4.55-4.35,10.18-6.16,16.15-7.3a40.34,40.34,0,0,1,16.81.76A42.91,42.91,0,0,0,736.61,781c13.66-6.67,27.8-7.79,42.54-5,13.92,2.6,26.71.8,37.65-9.35,12.86-11.94,27.9-11.73,43.59-7,5.28,1.6,10.62,3,16,4.29,12.32,2.92,23-.32,32.78-8.24,7.55-6.11,13.55-13.8,21.2-19.76s15.53-11.15,25.64-11.71a35.39,35.39,0,0,1,15.72,3c7.43,3.1,14,3.65,21.18-1.59,7.55-5.54,16.79-5.06,25.76-4.14,3.74.38,7.48.82,11.22,1.27A32.1,32.1,0,0,0,1056,714.4c10.31-9.21,22.13-10.84,35.11-8.17a73.73,73.73,0,0,0,9.61,1.17c8.52.59,15.48-2.78,21.39-8.66.48-.47.85-1.06,1.34-1.52s1.41-1.15,2.1-.42-.18,1.26-.69,1.87c-8.74,10.25-19.89,12.83-32.82,11.12-9.07-1.2-18.39-2.19-26.58,3.62-3.41,2.41-6.66,5-9.88,7.7a32.62,32.62,0,0,1-22.39,7.8c-5.65-.16-11.3-.19-17-.73-7.84-.74-15.24.58-21.65,5.83s-14,6.39-21.25,2.65c-16.41-8.51-29.54-2.79-41.85,8.26-5.2,4.68-10.5,9.27-15.62,14-13.32,12.44-28.69,14.88-45.74,9.71q-9.46-2.86-19-5.46c-10.35-2.81-20-1.49-28.74,5.09-1.93,1.46-4,2.7-5.9,4.25-10.12,8.49-22,10-34.3,7.62-15.76-3-30.91-3-45.8,3.92A41.1,41.1,0,0,1,708,786.47a41.87,41.87,0,0,0-32.38,4.16A3.16,3.16,0,0,1,674.5,790.81Z" style="fill:#181919"/><path d="M718.69,848.9c.89-2.52,2.27-2.68,4.14-.91a11.07,11.07,0,0,1,2.81,4.39c4,11,15.18,13.07,23.52,11.75,8.69-1.38,15.75-6.06,22.87-10.72,7.46-4.88,15-9.7,24-11.11a83.52,83.52,0,0,1,17.69-.85c11.25.63,22.66,2.09,33.47-2.81,7.58-3.44,13.75-8.95,20.31-13.88,8-6,16.29-11.1,26.87-10.41,5,.33,9.74,2.08,14.46,3.61,8.19,2.68,15.1.44,21.38-4.84,5.7-4.8,10.4-10.55,15.06-16.31,9.15-11.33,20-13.21,32.46-5.53,4.82,3,9.55,6.12,14.55,8.75,7.26,3.82,12.52,2.8,18.15-3.17A49.05,49.05,0,0,0,1016,790c8.62-13.28,20.54-18,35.87-14.16q2.55.63,5.15,1c8.87,1.36,16.88.22,23.08-7.24,5.69-6.86,13.19-10.91,21.69-13.35,7.89-2.27,15.72-4.74,23.58-7.11,1.14-.35,2.29-.89,3.75-.09-.92,1.81-2.83,1.77-4.27,2.31q-13.26,4.92-26.57,9.69a28.17,28.17,0,0,0-13.57,9.84c-7.86,10.9-18.65,12.74-30.87,11.07a101.71,101.71,0,0,0-11.65-1.18c-7.34-.14-12.84,3.41-17,9.25-2.42,3.41-4.78,6.86-7.22,10.25-7.89,11-18.55,13.48-30.42,6.87-4.81-2.68-9.25-6-14-8.87-10-6-14.79-5.28-22.65,3.25-5.83,6.33-11.13,13.16-18.21,18.3-7.88,5.73-16.33,7.14-25.57,4.16a19.94,19.94,0,0,1-2.67-.9c-12.29-5.73-23-2.28-33.17,5.38-6.88,5.18-13.72,10.47-21.59,14.18-9.84,4.62-20.37,4.44-30.6,3.11-17.88-2.32-33.84,1.11-48.48,11.82-7.32,5.36-15.58,9-25.1,8.95-10.2,0-17.68-3.83-21.6-13.67-.78-2-1.2-5.22-4.86-3.38A1.93,1.93,0,0,1,718.69,848.9Z" style="fill:#181919"/><path d="M752.54,937.32c0-.39-.08-.84,0-.88,8.92-3.89,16.33-10.36,25.13-14.48,8.35-3.9,16.43-3.51,24.4.8,6.76,3.66,13.7,4.83,21,1.81,5.91-2.46,11-6.23,15.81-10.41a124.3,124.3,0,0,1,10.84-8.43c8.53-5.91,18.18-7.13,28.16-6.79,8.34.28,16.68,1.1,25-.79,8.82-2,15.7-7.54,22.87-12.52,7.45-5.17,15-10.08,24.18-11.65a62,62,0,0,1,18.14-.27c13.12,1.67,25.42.5,36.81-7a48.15,48.15,0,0,1,30-7.91c11.17.64,20.47-3.35,28.48-11a103.38,103.38,0,0,1,11-8.93c8.4-6.12,18.23-7,27.89-5.46,15.49,2.52,28-1.91,38.83-12.93,3.54-3.6,8.11-6.09,13.72-5.34-9.66,1.49-15,9.11-21.72,14.85a30.27,30.27,0,0,1-19.71,7.23c-5.53.13-11.06.15-16.59,0-9.62-.33-17.58,3.24-24.35,9.85-1.64,1.6-3.36,3.14-4.89,4.84-9,9.92-20.23,14.46-33.43,14.42a41.82,41.82,0,0,0-22.89,6.83,58,58,0,0,1-42.55,8.32c-14.67-2.6-28,.81-39.88,10.07-6.8,5.29-14.11,10-22.69,12a55.93,55.93,0,0,1-18.83,1.31,110.07,110.07,0,0,0-21-.27c-8.57.79-15.27,5.62-21.8,10.7-4.25,3.31-8.37,6.78-13,9.58-9.42,5.68-19.27,7.63-29,1.64-11-6.8-21-4.39-31,1.78-5.7,3.48-11.33,7.15-17.76,9.22C753.23,937.53,752.86,937.36,752.54,937.32Z" style="fill:#181919"/><path d="M1103.72,620.48c-.4,1.47-1.82,1.52-2.83,2-21.6,9.41-43.2,18.84-64.87,28.1a66.53,66.53,0,0,1-23.95,5.25,114,114,0,0,0-39.68,8.39c-12.87,5.24-26.14,8.45-40.19,7-4.28-.44-8.56-.92-12.82-1.56-12.55-1.88-22.94,2.21-32.07,10.78-8.1,7.61-17.32,13.18-28.86,14-8.58.61-16.89-1-25.23-2.48-10.51-1.85-21-3.58-31.67-1.22-7.6,1.68-14.08,6-20.77,9.71-9,5-18.24,9.49-29,8.71A136.64,136.64,0,0,1,737,707.39c-8.17-1.49-15.73.12-23.15,3.45-5.64,2.53-11.09,5.54-17.09,7.23-6.33,1.77-12.57,1.89-18.68-1.18,12.25,4.24,22.47-1.62,32.61-6.72a50.08,50.08,0,0,1,32.11-4.84c13.38,2.38,25.2-.92,36.44-8.24,8.56-5.58,17.44-10.71,28-11.88,9-1,17.71.48,26.52,1.66,9.18,1.24,18.32,3,27.7,1.24,9.13-1.67,15.89-7.19,22.14-13.3,11-10.72,24.06-14.86,38.87-12.44,15.13,2.48,29.45.28,43.62-4.81a128.83,128.83,0,0,1,46.72-7.83c13.87.28,26.54-5.14,39.23-10.08q24.06-9.37,48.22-18.53C1101.31,620.73,1102.39,619.84,1103.72,620.48Z" style="fill:#181919"/><path d="M754.25,1018.92c6-4.64,12.5-2.95,19-1.55,4.73,1,9.36,2.61,14.13,3.34,8.85,1.35,16.66-1.87,24.16-6.22,6.75-3.92,13.17-8.42,20.38-11.55,10-4.3,20.65-4.86,31.14-6.37,11.39-1.64,21.62-5.24,29.3-14.47,5.41-6.49,13-7.65,20.94-7.49a41.22,41.22,0,0,0,28.35-9.88c3.68-3.11,6.81-6.89,10.08-10.47,6.29-6.87,13.84-10,22.9-6.88,10.74,3.71,20.27.85,29.75-4.08,6.44-3.34,12.82-6.86,20.07-8.37,9.5-2,18.77-.24,28.07,1.34,5.17.88,10.34,1.82,15.62,1.67,9-.27,14.65-5.89,19.77-12.43,3.19-4.08,6.83-7.58,12.22-8.73a16.18,16.18,0,0,1,8,.39c7.49,2.16,14.29.48,21-3.07,6-3.2,11.79-7.08,18.66-8.53,2.87-.6,5.56-.63,8.29.94-11.45-1.19-19.46,6.34-28.5,11.11-6.08,3.21-12.21,4.68-19,3.24-5.78-1.22-11-.25-14.78,4.93-1,1.42-2.4,2.6-3.32,4.07-7.92,12.69-19.77,15.48-33.68,13.91-9-1-18.06-3.23-27.3-1.4-5.22,1-10,3.18-14.77,5.32-5,2.26-10,4.75-15.12,6.77-8.89,3.51-17.89,3.26-26.85.09-5.89-2.08-10.79-.35-15.14,3.81s-8.21,8.94-13.14,12.57a48.61,48.61,0,0,1-28.67,9.45,24.29,24.29,0,0,1-2.83,0,21.89,21.89,0,0,0-19.2,7.39c-8.18,8.89-19,11.76-30.49,13.07-10.4,1.18-21,1.52-30.86,5.63-7.26,3-13.76,7.39-20.58,11.18-11.19,6.22-22.54,7.19-34.61,2.87-7.25-2.59-14.78-4.45-22.41-1A4.1,4.1,0,0,1,754.25,1018.92Z" style="fill:#181919"/><path d="M787.66,523c-1,3.87-4,5.47-6.74,7.2-2.89,1.87-4,4.08-4.83,7.61-3.32,14.83-10.5,27.84-20.62,39.21-4.26,4.78-9.87,7-15.65,4.74-6.13-2.43-7.66-8.77-8-14.85s1.33-12,3.69-17.65c5.22-12.47,11.6-24.28,20.09-34.86a25.54,25.54,0,0,1,6.54-6c5.5-3.32,11.14-1.31,13.32,4.72a25.29,25.29,0,0,1,1.06,9.19c-.09,4,1.28,4.86,5.07,3.23C783.5,524.71,785,522.9,787.66,523Zm-46.89,42.9a39.65,39.65,0,0,0,.37,4.24c1,5,3.68,6.15,8.06,3.5a22,22,0,0,0,6.27-5.64,109.22,109.22,0,0,0,13.35-23.42c2.34-5.55,3.7-10.92-1.85-15.51a4.17,4.17,0,0,1-.71-1c-2.52-3.73-3.41-3.85-6.65-.62-4.25,4.24-7.15,9.45-10,14.64C745.59,549.63,741.39,557.21,740.77,565.87Z" style="fill:#181919"/><path d="M945,1029.61a40.21,40.21,0,0,1,17-4.75c8-.5,15.91.36,23.82,1,12.3.93,22.88-3,32.35-10.31,11.16-8.56,23.36-13.28,37.58-11.52,9.22,1.14,16.11-2.22,21.5-9.79,8.49-11.94,20.66-13.42,34-11.13,2.91.51,5.85.86,8.79,1.2,8.88,1,17.1-.54,24.63-5.69,5.7-3.9,12.09-5.92,19.13-4.81,1.54.24,3,.72,5,1.18a4.51,4.51,0,0,1-3.41.92,23.5,23.5,0,0,0-17.67,5.5c-9.09,7.32-19.32,10-30.9,9.14-7.2-.52-14.52-1-21.71,1a20.27,20.27,0,0,0-9.58,5.68c-1.76,1.86-3.54,3.7-5.29,5.57-6.61,7.1-14.78,9.39-24.24,8.17-8.59-1.1-17.19-1.64-25.13,3-4.07,2.38-8.34,4.46-12.18,7.17-11.15,7.88-23.63,9.41-36.66,7.81-11.68-1.43-23.28-3-34.76,1.09C946.86,1030.07,946.42,1029.85,945,1029.61Z" style="fill:#181919"/><path d="M750.92,937.7c-7.38,3.42-15.58,3.09-23.49,4.32,3.47-2.41,7.61-2.26,11.48-2.69S746.83,938.19,750.92,937.7Z" style="fill:#181919"/><path d="M1139.31,687.36c-4.65,1.25-7.28,5.33-11.15,7.54C1128.8,691.41,1135.17,687,1139.31,687.36Z" style="fill:#181919"/><path d="M1147.85,743.09l-11.38,4.24C1137.06,745.06,1141.59,743.3,1147.85,743.09Z" style="fill:#181919"/><path d="M747.26,1034.07c-2-3.39-2.42-6.61,1-9.42A16.35,16.35,0,0,0,747.26,1034.07Z" style="fill:#181919"/><path d="M713.38,854.34c-1.23,2.25-3,3.9-5.93,6a12.51,12.51,0,0,1,5.43-6.46A4.48,4.48,0,0,1,713.38,854.34Z" style="fill:#181919"/><path d="M712.88,853.87c1.4-2.28,3.07-4.25,5.81-5a1.93,1.93,0,0,0,.37.57c-1.82,1.71-3.35,3.76-5.68,4.87A4.48,4.48,0,0,0,712.88,853.87Z" style="fill:#181919"/><path d="M718.9,948.06l-3.09,6.13c0-3.05,0-5.38,2.93-6.27Z" style="fill:#181919"/><path d="M668.42,794.76c.49-1.57,1.66-2.31,3.64-2.78a4.48,4.48,0,0,1-3.22,3.22Z" style="fill:#181919"/><path d="M719.55,947.11c.11-1.21.73-2,2.26-2.23,0,1.58-.91,2.09-2.12,2.38Z" style="fill:#181919"/><path d="M666.36,797.58c-.33.85-.57,1.79-1.69,1.89-.15,0-.48-.3-.47-.45.06-1.11.9-1.47,1.8-1.76A3.59,3.59,0,0,1,666.36,797.58Z" style="fill:#181919"/><path d="M723.73,944c.27-.71.42-1.55,1.46-1.47.16,0,.46.32.44.38-.36.84-1.21.83-1.92,1.07Z" style="fill:#181919"/><path d="M705.11,863c.12-.77.26-1.53,1.09-1.85.07,0,.39.29.39.44,0,1-.68,1.28-1.5,1.39Z" style="fill:#181919"/><path d="M754.7,1019.5c-.6.6-1.53,1.71-2.06.78-.67-1.16.87-1.09,1.61-1.36A4.1,4.1,0,0,0,754.7,1019.5Z" style="fill:#181919"/><path d="M666,797.26a1.93,1.93,0,0,1,1.58-1.68l.44.41a2.2,2.2,0,0,1-1.66,1.59A3.59,3.59,0,0,0,666,797.26Z" style="fill:#181919"/><path d="M1106,619.65c0,.08-.07.22-.1.22a1.29,1.29,0,0,1-.31-.08c0-.08.07-.22.11-.22A1.11,1.11,0,0,1,1106,619.65Z" style="fill:#dcc26f"/><path d="M723.71,944l-.16.27.18-.25Z" style="fill:#dcc26f"/><path d="M673,791.19h.28l-.16.51a1,1,0,0,1-.26-.27S672.94,791.27,673,791.19Z" style="fill:#181919"/><path d="M668.84,795.2,668,796l-.44-.41.84-.82Z" style="fill:#181919"/><path d="M718.74,947.92l.81-.81.14.15-.79.8Z" style="fill:#dcc26f"/><path d="M705.09,863l-.33.38c0-.07,0-.17.06-.21a1,1,0,0,1,.29-.15Z" style="fill:#dcc26f"/><path d="M418.29,462.08c.37-.95.62-2,1.91-2.06a.68.68,0,0,1,.49.45c0,1.32-1.08,1.57-2,2C418.59,462.36,418.44,462.22,418.29,462.08Z" style="fill:#dcc26f"/><path d="M417.86,463.26c-.17.38-.18,1.2-.75.83s.07-.83.48-1.11Z" style="fill:#dcc26f"/><path d="M418.73,462.51l-.87.74-.27-.27.71-.9Z" style="fill:#dcc26f"/><path d="M964.49,527.62c.91-12.12,6.12-22.7,11.94-33.06,2.7-4.82,5.73-9.42,10.27-12.79a10.08,10.08,0,0,1,4.66-2.27c1.73-.2,3.32.07,2.65,2.61-4.22,15.81-6.91,32.09-14.7,46.77a21.65,21.65,0,0,1-6,7.48c-3.84,2.85-6.6,1.82-7.8-2.8C965,531.61,964.26,529.71,964.49,527.62Z" style="fill:#fdf2d2"/><path d="M825.76,521.4l.11-.74.33.16-.49.54Z" style="fill:#fdf2d2"/><path d="M740.77,565.87c.62-8.66,4.82-16.24,8.89-23.79,2.8-5.19,5.7-10.4,10-14.64,3.24-3.23,4.13-3.11,6.65.62a4.17,4.17,0,0,0,.71,1c5.55,4.59,4.19,10,1.85,15.51A109.22,109.22,0,0,1,755.47,568a22,22,0,0,1-6.27,5.64c-4.38,2.65-7.05,1.51-8.06-3.5A39.65,39.65,0,0,1,740.77,565.87Z" style="fill:#fdf2d2"/></svg>