<svg id="Laag_1" data-name="Laag 1" xmlns="http://www.w3.org/2000/svg" viewBox="0 0 1920 1080"><defs><style>.cls-1{fill:#77a86f;}.cls-2{fill:#bfc8d1;}.cls-3{fill:#443632;}.cls-4{fill:#e6eda4;}.cls-5{fill:#664f48;}.cls-6{fill:#785e54;}.cls-23,.cls-7{fill:#3a3a3a;stroke-miterlimit:10;}.cls-7{stroke:#664f48;stroke-width:3px;}.cls-8{fill:#4f371d;}.cls-9{fill:#ded0b9;}.cls-10{fill:#aa9577;}.cls-11{fill:#42403e;}.cls-12{fill:#918e8b;}.cls-13{fill:#4a2b0f;}.cls-14{fill:#604d3e;}.cls-15{fill:#5b4329;}.cls-16{fill:#e9b54f;}.cls-17{fill:#efe48a;}.cls-18{fill:#d19b3b;}.cls-19{fill:#8c897a;}.cls-20{fill:#bdb5aa;}.cls-21{fill:#5e5d5b;}.cls-22{fill:#adacac;}.cls-23{stroke:#d8d3d2;stroke-width:2px;}.cls-24{fill:#d8d3d2;}</style></defs><title>houses</title><rect class="cls-1" x="-40" y="398" width="2091" height="682"/><rect class="cls-2" x="1" y="-52" width="1924" height="450"/><rect class="cls-3" x="436.39" y="334.82" width="127.36" height="11.47"/><polygon class="cls-4" points="134 631 782.36 397.18 858 646 475 831 134 631"/><polygon class="cls-5" points="563.76 334.82 436.41 334.82 499.78 264.38 499.78 264.38 563.76 334.82"/><rect class="cls-3" x="508.3" y="395.7" width="1.44" height="28.75" transform="translate(-140.21 485.99) rotate(-45.52)"/><rect class="cls-3" x="513.34" y="390.58" width="1.44" height="28.75" transform="translate(-135.05 488.04) rotate(-45.52)"/><rect class="cls-3" x="518.38" y="385.45" width="1.44" height="28.75" transform="translate(-129.88 490.1) rotate(-45.52)"/><rect class="cls-3" x="523.41" y="380.32" width="1.44" height="28.75" transform="translate(-124.71 492.16) rotate(-45.52)"/><rect class="cls-3" x="528.45" y="375.19" width="1.44" height="28.75" transform="translate(-119.54 494.22) rotate(-45.52)"/><rect class="cls-3" x="533.48" y="370.06" width="1.44" height="28.75" transform="translate(-114.38 496.28) rotate(-45.52)"/><rect class="cls-3" x="538.52" y="364.93" width="1.44" height="28.75" transform="translate(-109.21 498.33) rotate(-45.52)"/><rect class="cls-3" x="543.56" y="359.8" width="1.44" height="28.75" transform="translate(-104.04 500.39) rotate(-45.52)"/><rect class="cls-3" x="548.59" y="354.67" width="1.44" height="28.75" transform="translate(-98.87 502.45) rotate(-45.52)"/><rect class="cls-3" x="553.63" y="349.54" width="1.44" height="28.75" transform="translate(-93.7 504.51) rotate(-45.52)"/><rect class="cls-3" x="558.67" y="344.41" width="1.44" height="28.75" transform="translate(-88.54 506.56) rotate(-45.52)"/><rect class="cls-3" x="569.24" y="333.64" width="1.44" height="28.75" transform="translate(-77.68 510.89) rotate(-45.52)"/><rect class="cls-3" x="564.21" y="338.77" width="1.44" height="28.75" transform="translate(-82.85 508.83) rotate(-45.52)"/><rect class="cls-3" x="624.64" y="277.22" width="1.44" height="28.75" transform="translate(-20.84 533.52) rotate(-45.52)"/><rect class="cls-3" x="629.68" y="272.09" width="1.44" height="28.75" transform="translate(-15.67 535.58) rotate(-45.52)"/><rect class="cls-3" x="634.71" y="266.96" width="1.44" height="28.75" transform="translate(-10.5 537.64) rotate(-45.52)"/><rect class="cls-3" x="639.75" y="261.83" width="1.44" height="28.75" transform="translate(-5.34 539.7) rotate(-45.52)"/><rect class="cls-3" x="644.79" y="256.7" width="1.44" height="28.75" transform="translate(-0.17 541.76) rotate(-45.52)"/><rect class="cls-3" x="649.82" y="251.57" width="1.44" height="28.75" transform="translate(5 543.81) rotate(-45.52)"/><rect class="cls-3" x="494.22" y="345.61" width="203.43" height="16.53" transform="translate(-74.09 531.18) rotate(-45.52)"/><rect class="cls-3" x="574.28" y="328.51" width="1.44" height="28.75" transform="translate(-72.52 512.94) rotate(-45.52)"/><rect class="cls-3" x="579.31" y="323.38" width="1.44" height="28.75" transform="translate(-67.35 515) rotate(-45.52)"/><rect class="cls-3" x="584.35" y="318.25" width="1.44" height="28.75" transform="translate(-62.18 517.06) rotate(-45.52)"/><rect class="cls-3" x="589.39" y="313.12" width="1.44" height="28.75" transform="translate(-57.01 519.12) rotate(-45.52)"/><rect class="cls-3" x="594.42" y="307.99" width="1.44" height="28.75" transform="translate(-51.85 521.18) rotate(-45.52)"/><rect class="cls-3" x="599.46" y="302.86" width="1.44" height="28.75" transform="translate(-46.68 523.23) rotate(-45.52)"/><rect class="cls-3" x="604.5" y="297.74" width="1.44" height="28.75" transform="translate(-41.51 525.29) rotate(-45.52)"/><rect class="cls-3" x="609.53" y="292.61" width="1.44" height="28.75" transform="translate(-36.34 527.35) rotate(-45.52)"/><rect class="cls-3" x="614.57" y="287.48" width="1.44" height="28.75" transform="translate(-31.18 529.41) rotate(-45.52)"/><rect class="cls-3" x="619.61" y="282.35" width="1.44" height="28.75" transform="translate(-26.01 531.47) rotate(-45.52)"/><rect class="cls-3" x="468.54" y="328.24" width="201.99" height="1.44" transform="translate(-64.21 504.87) rotate(-45.52)"/><rect class="cls-3" x="477.24" y="334.77" width="201.99" height="1.44" transform="translate(-66.27 513.04) rotate(-45.52)"/><rect class="cls-3" x="483.39" y="340.81" width="201.99" height="1.44" transform="translate(-68.74 519.24) rotate(-45.52)"/><rect class="cls-3" x="486.94" y="396.42" width="1.44" height="28.75" transform="translate(536.2 1046.58) rotate(-134.48)"/><rect class="cls-3" x="481.91" y="391.29" width="1.44" height="28.75" transform="translate(531.29 1034.26) rotate(-134.48)"/><rect class="cls-3" x="476.87" y="386.16" width="1.44" height="28.75" transform="translate(526.39 1021.95) rotate(-134.48)"/><rect class="cls-3" x="471.83" y="381.04" width="1.44" height="28.75" transform="translate(521.48 1009.63) rotate(-134.48)"/><rect class="cls-3" x="466.8" y="375.91" width="1.44" height="28.75" transform="translate(516.58 997.31) rotate(-134.48)"/><rect class="cls-3" x="461.76" y="370.78" width="1.44" height="28.75" transform="translate(511.67 985) rotate(-134.48)"/><rect class="cls-3" x="456.72" y="365.65" width="1.44" height="28.75" transform="translate(506.77 972.68) rotate(-134.48)"/><rect class="cls-3" x="451.69" y="360.52" width="1.44" height="28.75" transform="translate(501.86 960.36) rotate(-134.48)"/><rect class="cls-3" x="446.65" y="355.39" width="1.44" height="28.75" transform="translate(496.96 948.05) rotate(-134.48)"/><rect class="cls-3" x="441.62" y="350.26" width="1.44" height="28.75" transform="translate(492.05 935.73) rotate(-134.48)"/><rect class="cls-3" x="436.58" y="345.13" width="1.44" height="28.75" transform="translate(487.15 923.41) rotate(-134.48)"/><rect class="cls-3" x="426" y="334.36" width="1.44" height="28.75" transform="translate(476.85 897.55) rotate(-134.48)"/><rect class="cls-3" x="431.04" y="339.49" width="1.44" height="28.75" transform="translate(481.75 909.87) rotate(-134.48)"/><rect class="cls-3" x="370.6" y="277.94" width="1.44" height="28.75" transform="translate(422.9 762.07) rotate(-134.48)"/><rect class="cls-3" x="365.57" y="272.81" width="1.44" height="28.75" transform="translate(417.99 749.75) rotate(-134.48)"/><rect class="cls-3" x="360.53" y="267.68" width="1.44" height="28.75" transform="translate(413.09 737.44) rotate(-134.48)"/><rect class="cls-3" x="355.5" y="262.55" width="1.44" height="28.75" transform="translate(408.18 725.12) rotate(-134.48)"/><rect class="cls-3" x="350.46" y="257.42" width="1.44" height="28.75" transform="translate(403.28 712.8) rotate(-134.48)"/><rect class="cls-3" x="345.42" y="252.29" width="1.44" height="28.75" transform="translate(398.37 700.49) rotate(-134.48)"/><rect class="cls-3" x="299.03" y="346.33" width="203.43" height="16.53" transform="translate(428.49 888.98) rotate(-134.48)"/><rect class="cls-3" x="420.97" y="329.23" width="1.44" height="28.75" transform="translate(471.94 885.23) rotate(-134.48)"/><rect class="cls-3" x="415.93" y="324.1" width="1.44" height="28.75" transform="translate(467.04 872.92) rotate(-134.48)"/><rect class="cls-3" x="410.89" y="318.97" width="1.44" height="28.75" transform="translate(462.13 860.6) rotate(-134.48)"/><rect class="cls-3" x="405.86" y="313.84" width="1.44" height="28.75" transform="translate(457.23 848.28) rotate(-134.48)"/><rect class="cls-3" x="400.82" y="308.71" width="1.44" height="28.75" transform="translate(452.32 835.97) rotate(-134.48)"/><rect class="cls-3" x="395.79" y="303.58" width="1.44" height="28.75" transform="translate(447.42 823.65) rotate(-134.48)"/><rect class="cls-3" x="390.75" y="298.45" width="1.44" height="28.75" transform="translate(442.51 811.33) rotate(-134.48)"/><rect class="cls-3" x="385.71" y="293.33" width="1.44" height="28.75" transform="translate(437.61 799.02) rotate(-134.48)"/><rect class="cls-3" x="380.68" y="288.2" width="1.44" height="28.75" transform="translate(432.71 786.7) rotate(-134.48)"/><rect class="cls-3" x="375.64" y="283.07" width="1.44" height="28.75" transform="translate(427.8 774.38) rotate(-134.48)"/><rect class="cls-3" x="326.15" y="328.96" width="201.99" height="1.44" transform="translate(491.18 865.44) rotate(-134.48)"/><rect class="cls-3" x="317.45" y="335.49" width="201.99" height="1.44" transform="translate(471.72 870.34) rotate(-134.48)"/><rect class="cls-3" x="311.3" y="341.53" width="201.99" height="1.44" transform="translate(456.94 876.22) rotate(-134.48)"/><rect class="cls-3" x="331.47" y="544.5" width="1.44" height="28.75" transform="translate(-299.33 404.36) rotate(-45.52)"/><rect class="cls-3" x="336.51" y="539.38" width="1.44" height="28.75" transform="translate(-294.17 406.41) rotate(-45.52)"/><rect class="cls-3" x="341.54" y="534.25" width="1.44" height="28.75" transform="translate(-289 408.47) rotate(-45.52)"/><rect class="cls-3" x="346.58" y="529.12" width="1.44" height="28.75" transform="translate(-283.83 410.53) rotate(-45.52)"/><rect class="cls-3" x="351.61" y="523.99" width="1.44" height="28.75" transform="translate(-278.66 412.59) rotate(-45.52)"/><rect class="cls-3" x="356.65" y="518.86" width="1.44" height="28.75" transform="translate(-273.49 414.64) rotate(-45.52)"/><rect class="cls-3" x="361.69" y="513.73" width="1.44" height="28.75" transform="translate(-268.33 416.7) rotate(-45.52)"/><rect class="cls-3" x="366.72" y="508.6" width="1.44" height="28.75" transform="translate(-263.16 418.76) rotate(-45.52)"/><rect class="cls-3" x="371.76" y="503.47" width="1.44" height="28.75" transform="translate(-257.99 420.82) rotate(-45.52)"/><rect class="cls-3" x="376.8" y="498.34" width="1.44" height="28.75" transform="translate(-252.82 422.88) rotate(-45.52)"/><rect class="cls-3" x="381.83" y="493.21" width="1.44" height="28.75" transform="translate(-247.66 424.93) rotate(-45.52)"/><rect class="cls-3" x="392.41" y="482.44" width="1.44" height="28.75" transform="translate(-236.8 429.26) rotate(-45.52)"/><rect class="cls-3" x="387.37" y="487.57" width="1.44" height="28.75" transform="translate(-241.97 427.2) rotate(-45.52)"/><rect class="cls-3" x="447.81" y="426.02" width="1.44" height="28.75" transform="translate(-179.96 451.89) rotate(-45.52)"/><rect class="cls-3" x="452.84" y="420.89" width="1.44" height="28.75" transform="translate(-174.79 453.95) rotate(-45.52)"/><rect class="cls-3" x="457.88" y="415.76" width="1.44" height="28.75" transform="translate(-169.62 456.01) rotate(-45.52)"/><rect class="cls-3" x="462.92" y="410.63" width="1.44" height="28.75" transform="translate(-164.45 458.07) rotate(-45.52)"/><rect class="cls-3" x="467.95" y="405.5" width="1.44" height="28.75" transform="translate(-159.29 460.13) rotate(-45.52)"/><rect class="cls-3" x="472.99" y="400.37" width="1.44" height="28.75" transform="translate(-154.12 462.18) rotate(-45.52)"/><rect class="cls-3" x="317.39" y="494.41" width="203.43" height="16.53" transform="translate(-233.21 449.55) rotate(-45.52)"/><rect class="cls-3" x="397.44" y="477.31" width="1.44" height="28.75" transform="translate(-231.64 431.31) rotate(-45.52)"/><rect class="cls-3" x="402.48" y="472.18" width="1.44" height="28.75" transform="translate(-226.47 433.37) rotate(-45.52)"/><rect class="cls-3" x="407.52" y="467.05" width="1.44" height="28.75" transform="translate(-221.3 435.43) rotate(-45.52)"/><rect class="cls-3" x="412.55" y="461.92" width="1.44" height="28.75" transform="translate(-216.13 437.49) rotate(-45.52)"/><rect class="cls-3" x="417.59" y="456.79" width="1.44" height="28.75" transform="translate(-210.96 439.55) rotate(-45.52)"/><rect class="cls-3" x="422.63" y="451.66" width="1.44" height="28.75" transform="translate(-205.8 441.6) rotate(-45.52)"/><rect class="cls-3" x="427.66" y="446.54" width="1.44" height="28.75" transform="translate(-200.63 443.66) rotate(-45.52)"/><rect class="cls-3" x="432.7" y="441.41" width="1.44" height="28.75" transform="translate(-195.46 445.72) rotate(-45.52)"/><rect class="cls-3" x="437.73" y="436.28" width="1.44" height="28.75" transform="translate(-190.29 447.78) rotate(-45.52)"/><rect class="cls-3" x="442.77" y="431.15" width="1.44" height="28.75" transform="translate(-185.13 449.84) rotate(-45.52)"/><rect class="cls-3" x="291.7" y="477.04" width="201.99" height="1.44" transform="translate(-223.33 423.24) rotate(-45.52)"/><rect class="cls-3" x="300.4" y="483.57" width="201.99" height="1.44" transform="translate(-225.39 431.41) rotate(-45.52)"/><rect class="cls-3" x="306.56" y="489.61" width="201.99" height="1.44" transform="translate(-227.86 437.61) rotate(-45.52)"/><rect class="cls-3" x="663.06" y="544.5" width="1.44" height="28.75" transform="translate(730.04 1424.07) rotate(-134.48)"/><rect class="cls-3" x="658.02" y="539.38" width="1.44" height="28.75" transform="translate(725.13 1411.76) rotate(-134.48)"/><rect class="cls-3" x="652.99" y="534.25" width="1.44" height="28.75" transform="translate(720.23 1399.44) rotate(-134.48)"/><rect class="cls-3" x="647.95" y="529.12" width="1.44" height="28.75" transform="translate(715.32 1387.12) rotate(-134.48)"/><rect class="cls-3" x="642.91" y="523.99" width="1.44" height="28.75" transform="translate(710.42 1374.81) rotate(-134.48)"/><rect class="cls-3" x="637.88" y="518.86" width="1.44" height="28.75" transform="translate(705.51 1362.49) rotate(-134.48)"/><rect class="cls-3" x="632.84" y="513.73" width="1.44" height="28.75" transform="translate(700.61 1350.17) rotate(-134.48)"/><rect class="cls-3" x="627.8" y="508.6" width="1.44" height="28.75" transform="translate(695.7 1337.86) rotate(-134.48)"/><rect class="cls-3" x="622.77" y="503.47" width="1.44" height="28.75" transform="translate(690.8 1325.54) rotate(-134.48)"/><rect class="cls-3" x="617.73" y="498.34" width="1.44" height="28.75" transform="translate(685.89 1313.22) rotate(-134.48)"/><rect class="cls-3" x="612.69" y="493.21" width="1.44" height="28.75" transform="translate(680.99 1300.91) rotate(-134.48)"/><rect class="cls-3" x="602.12" y="482.44" width="1.44" height="28.75" transform="translate(670.69 1275.04) rotate(-134.48)"/><rect class="cls-3" x="607.16" y="487.57" width="1.44" height="28.75" transform="translate(675.59 1287.36) rotate(-134.48)"/><rect class="cls-3" x="546.72" y="426.02" width="1.44" height="28.75" transform="translate(616.74 1139.56) rotate(-134.48)"/><rect class="cls-3" x="541.68" y="420.89" width="1.44" height="28.75" transform="translate(611.83 1127.25) rotate(-134.48)"/><rect class="cls-3" x="536.65" y="415.76" width="1.44" height="28.75" transform="translate(606.93 1114.93) rotate(-134.48)"/><rect class="cls-3" x="531.61" y="410.63" width="1.44" height="28.75" transform="translate(602.02 1102.61) rotate(-134.48)"/><rect class="cls-3" x="526.57" y="405.5" width="1.44" height="28.75" transform="translate(597.12 1090.3) rotate(-134.48)"/><rect class="cls-3" x="521.54" y="400.37" width="1.44" height="28.75" transform="translate(592.21 1077.98) rotate(-134.48)"/><rect class="cls-3" x="475.14" y="494.41" width="203.43" height="16.53" transform="translate(622.33 1266.48) rotate(-134.48)"/><rect class="cls-3" x="597.08" y="477.31" width="1.44" height="28.75" transform="translate(665.78 1262.73) rotate(-134.48)"/><rect class="cls-3" x="592.05" y="472.18" width="1.44" height="28.75" transform="translate(660.88 1250.41) rotate(-134.48)"/><rect class="cls-3" x="587.01" y="467.05" width="1.44" height="28.75" transform="translate(655.98 1238.09) rotate(-134.48)"/><rect class="cls-3" x="581.97" y="461.92" width="1.44" height="28.75" transform="translate(651.07 1225.78) rotate(-134.48)"/><rect class="cls-3" x="576.94" y="456.79" width="1.44" height="28.75" transform="translate(646.17 1213.46) rotate(-134.48)"/><rect class="cls-3" x="571.9" y="451.66" width="1.44" height="28.75" transform="translate(641.26 1201.15) rotate(-134.48)"/><rect class="cls-3" x="566.86" y="446.54" width="1.44" height="28.75" transform="translate(636.36 1188.83) rotate(-134.48)"/><rect class="cls-3" x="561.83" y="441.41" width="1.44" height="28.75" transform="translate(631.45 1176.51) rotate(-134.48)"/><rect class="cls-3" x="556.79" y="436.28" width="1.44" height="28.75" transform="translate(626.55 1164.2) rotate(-134.48)"/><rect class="cls-3" x="551.76" y="431.15" width="1.44" height="28.75" transform="translate(621.64 1151.88) rotate(-134.48)"/><rect class="cls-3" x="502.27" y="477.04" width="201.99" height="1.44" transform="translate(685.02 1242.94) rotate(-134.48)"/><rect class="cls-3" x="493.57" y="483.57" width="201.99" height="1.44" transform="translate(665.56 1247.83) rotate(-134.48)"/><rect class="cls-3" x="487.41" y="489.61" width="201.99" height="1.44" transform="translate(650.78 1253.72) rotate(-134.48)"/><rect class="cls-6" x="443.06" y="346.33" width="114.22" height="114.29"/><rect class="cls-7" x="486.85" y="361.81" width="26.68" height="34.31"/><polygon class="cls-5" points="522.14 489.37 478.21 489.37 443.06 460.62 557.29 460.62 522.14 489.37"/><rect class="cls-5" x="486.99" y="416.58" width="25.73" height="43.99"/><path class="cls-3" d="M509.26,436.67s-2.28,0-1.66,3.32c0,0,.41,1.45,1,1,0,0,.2,1,.62.83.41.21.62-.83.62-.83.62.42,1-1,1-1C511.54,436.67,509.26,436.67,509.26,436.67Z"/><g id="_3U9O8o.tif" data-name="3U9O8o.tif"><path class="cls-6" d="M508.4,437.84a.83.83,0,0,0-.46.23,1.84,1.84,0,0,1-.57.38,1.05,1.05,0,0,1-.74,0,4.6,4.6,0,0,1-.89-.44,3.77,3.77,0,0,0-2.09-.6,2.83,2.83,0,0,0-1,.17.26.26,0,0,0-.17.4c0,.1.09.2.14.3s.21.26.43.17a2.43,2.43,0,0,1,.89-.17,3.53,3.53,0,0,1,1.46.39,5.09,5.09,0,0,0,1.45.5,1.37,1.37,0,0,0,.45,0,1.6,1.6,0,0,1,.86.14.75.75,0,0,0,1.07-.55A.78.78,0,0,0,508.4,437.84Z"/></g><rect class="cls-8" x="441.45" y="632.08" width="1.3" height="37.98" transform="translate(957.37 56.22) rotate(75.08)"/><rect class="cls-9" x="458.48" y="500.46" width="451.32" height="442.37"/><rect class="cls-10" x="498.88" y="702.82" width="13.17" height="28.1" transform="translate(-211.41 1222.34) rotate(-90)"/><rect class="cls-10" x="575.68" y="805.26" width="13.17" height="28.1" transform="translate(-237.04 1401.58) rotate(-90)"/><rect class="cls-10" x="595.93" y="814.93" width="13.17" height="28.1" transform="translate(-226.47 1431.49) rotate(-90)"/><rect class="cls-10" x="508.26" y="576.98" width="13.17" height="28.1" transform="translate(-76.18 1105.88) rotate(-90)"/><rect class="cls-10" x="494.51" y="588.65" width="13.17" height="28.1" transform="translate(-101.6 1103.79) rotate(-90)"/><rect class="cls-10" x="651.8" y="642.24" width="13.17" height="28.1" transform="translate(2.1 1314.67) rotate(-90)"/><rect class="cls-10" x="687.68" y="738.63" width="13.17" height="28.1" transform="translate(-58.41 1446.95) rotate(-90)"/><rect class="cls-10" x="731.16" y="841.39" width="13.17" height="28.1" transform="translate(-117.7 1593.19) rotate(-90)"/><rect class="cls-10" x="495.94" y="816.73" width="13.17" height="28.1" transform="translate(-328.25 1333.3) rotate(-90)"/><rect class="cls-10" x="837.43" y="608.39" width="13.17" height="28.1" transform="translate(221.58 1466.46) rotate(-90)"/><rect class="cls-10" x="783.19" y="713.61" width="13.17" height="28.1" transform="translate(62.13 1517.44) rotate(-90)"/><rect class="cls-10" x="884.16" y="777.56" width="13.17" height="28.1" transform="translate(99.14 1682.36) rotate(-90)"/><rect class="cls-7" x="658.84" y="530.63" width="56.65" height="72.83"/><rect class="cls-7" x="752.88" y="633.14" width="56.65" height="72.83"/><rect class="cls-5" x="763.19" y="633.14" width="2.84" height="72.83" transform="translate(1529.22 1339.1) rotate(180)"/><rect class="cls-5" x="779.78" y="633.14" width="2.84" height="72.83" transform="translate(1562.41 1339.1) rotate(180)"/><rect class="cls-5" x="795.99" y="633.96" width="2.84" height="72.83" transform="translate(1594.82 1340.74) rotate(180)"/><rect class="cls-5" x="779.77" y="642.76" width="2.84" height="59.27" transform="translate(108.8 1453.59) rotate(-90)"/><rect class="cls-5" x="779.7" y="660.76" width="2.84" height="59.27" transform="translate(90.72 1471.51) rotate(-90)"/><rect class="cls-5" x="779.78" y="621.81" width="2.84" height="59.27" transform="translate(129.76 1432.65) rotate(-90)"/><rect class="cls-7" x="558.78" y="634.02" width="56.65" height="72.83"/><rect class="cls-5" x="569.08" y="634.02" width="2.84" height="72.83" transform="translate(1141.01 1340.88) rotate(180)"/><rect class="cls-5" x="585.68" y="634.02" width="2.84" height="72.83" transform="translate(1174.2 1340.88) rotate(180)"/><rect class="cls-5" x="601.88" y="634.84" width="2.84" height="72.83" transform="translate(1206.6 1342.51) rotate(180)"/><rect class="cls-5" x="585.67" y="643.65" width="2.84" height="59.27" transform="translate(-86.19 1260.37) rotate(-90)"/><rect class="cls-5" x="585.59" y="661.65" width="2.84" height="59.27" transform="translate(-104.27 1278.3) rotate(-90)"/><rect class="cls-5" x="585.68" y="622.7" width="2.84" height="59.27" transform="translate(-65.23 1239.43) rotate(-90)"/><rect class="cls-5" x="696.54" y="801.99" width="58.14" height="99.41"/><path class="cls-3" d="M746.86,847.39s-5.16,0-3.75,7.5c0,0,.94,3.28,2.34,2.34,0,0,.47,2.35,1.41,1.88.94.47,1.41-1.88,1.41-1.88,1.4.94,2.34-2.34,2.34-2.34C752,847.39,746.86,847.39,746.86,847.39Z"/><g id="_3U9O8o.tif-2" data-name="3U9O8o.tif"><path class="cls-6" d="M744.91,850a1.8,1.8,0,0,0-1,.52,4.25,4.25,0,0,1-1.29.85,2.29,2.29,0,0,1-1.67-.08,9.7,9.7,0,0,1-2-1A8.78,8.78,0,0,0,734.2,849a6.55,6.55,0,0,0-2.24.38.6.6,0,0,0-.4.91c.1.23.22.46.32.68.22.48.48.59,1,.39a5.56,5.56,0,0,1,2-.38,7.73,7.73,0,0,1,3.32.87,11.09,11.09,0,0,0,3.26,1.14,3.92,3.92,0,0,0,1,.06,3.58,3.58,0,0,1,1.94.32,1.7,1.7,0,0,0,2.42-1.24A1.78,1.78,0,0,0,744.91,850Z"/></g><rect class="cls-11" x="694.27" y="901.4" width="63.3" height="10.89"/><rect class="cls-12" x="694.27" y="912.29" width="63.3" height="10.02"/><rect class="cls-8" x="819.36" y="734" width="0.58" height="6.91" transform="translate(1321.16 -244.46) rotate(75.08)"/><rect class="cls-8" x="814.95" y="738.15" width="2.32" height="0.49" transform="translate(1319.44 -240.34) rotate(75.08)"/><polygon class="cls-13" points="442.36 685.41 401.11 685.41 405.48 688.84 437.99 688.84 442.36 685.41"/><circle class="cls-8" cx="421.77" cy="666.86" r="4.44"/><rect class="cls-14" x="405.48" y="688.84" width="32.59" height="30.41"/><polygon class="cls-13" points="401.15 722.68 442.4 722.68 438.03 719.25 405.52 719.25 401.15 722.68"/><polygon class="cls-15" points="442.36 685.41 401.15 685.41 418.89 669.9 424.58 669.9 442.36 685.41"/><rect class="cls-16" x="421.21" y="659.96" width="1.13" height="2.88"/><path class="cls-16" d="M421.75,654.05a3.37,3.37,0,1,0,3.38,3.37A3.37,3.37,0,0,0,421.75,654.05Zm0,6a2.63,2.63,0,1,1,2.64-2.63A2.63,2.63,0,0,1,421.75,660.05Z"/><rect class="cls-17" x="406.78" y="691.43" width="6.14" height="24.95"/><rect class="cls-17" x="430.55" y="691.72" width="6.14" height="24.95"/><rect class="cls-17" x="416.72" y="691.72" width="10.47" height="24.95"/><polygon class="cls-13" points="836.21 751.65 812.76 751.65 815.25 753.6 833.73 753.6 836.21 751.65"/><circle class="cls-8" cx="824.51" cy="741.1" r="2.53"/><rect class="cls-14" x="815.24" y="753.6" width="18.53" height="17.29"/><polygon class="cls-13" points="812.78 772.84 836.23 772.84 833.75 770.89 815.27 770.89 812.78 772.84"/><polygon class="cls-15" points="836.21 751.65 812.78 751.65 822.87 742.83 826.1 742.83 836.21 751.65"/><rect class="cls-18" x="824.19" y="737.18" width="0.64" height="1.64"/><path class="cls-18" d="M824.5,733.82a1.92,1.92,0,1,0,1.91,1.92A1.92,1.92,0,0,0,824.5,733.82Zm0,3.42a1.5,1.5,0,1,1,1.49-1.5A1.5,1.5,0,0,1,824.5,737.24Z"/><rect class="cls-17" x="815.98" y="755.07" width="3.49" height="14.18"/><rect class="cls-17" x="829.5" y="755.24" width="3.49" height="14.18"/><rect class="cls-17" x="821.64" y="755.24" width="5.95" height="14.18"/><rect class="cls-8" x="500.57" y="738.12" width="0.58" height="6.91" transform="matrix(0.26, 0.97, -0.97, 0.26, 1088.45, 66.64)"/><polygon class="cls-13" points="517.49 757.09 494.04 757.09 496.52 759.04 515.01 759.04 517.49 757.09"/><circle class="cls-8" cx="505.79" cy="746.55" r="2.53"/><rect class="cls-14" x="496.52" y="759.04" width="18.53" height="17.29"/><polygon class="cls-13" points="494.06 778.28 517.51 778.28 515.03 776.33 496.55 776.33 494.06 778.28"/><polygon class="cls-15" points="517.49 757.09 494.06 757.09 504.15 748.27 507.38 748.27 517.49 757.09"/><rect class="cls-18" x="505.47" y="742.68" width="0.64" height="1.58"/><path class="cls-18" d="M505.78,739.26a1.92,1.92,0,1,0,1.91,1.92A1.92,1.92,0,0,0,505.78,739.26Zm0,3.42a1.5,1.5,0,1,1,1.49-1.5A1.5,1.5,0,0,1,505.78,742.68Z"/><rect class="cls-17" x="497.26" y="760.51" width="3.49" height="14.18"/><rect class="cls-17" x="510.78" y="760.68" width="3.49" height="14.18"/><rect class="cls-17" x="502.92" y="760.68" width="5.95" height="14.18"/><rect class="cls-8" x="496.22" y="742.26" width="2.32" height="0.49" transform="translate(1086.76 70.69) rotate(75.08)"/><rect class="cls-10" x="755.14" y="551.58" width="13.17" height="28.1" transform="translate(196.1 1327.37) rotate(-90)"/><rect class="cls-10" x="855.62" y="701.36" width="13.17" height="28.1" transform="translate(146.8 1577.62) rotate(-90)"/><polygon class="cls-19" points="921.34 494.63 446.79 494.43 446.79 480.46 684.14 312.46 921.34 480.46 921.34 494.63"/><rect class="cls-10" x="541.8" y="879.24" width="13.17" height="28.1" transform="translate(-344.9 1441.67) rotate(-90)"/><rect class="cls-10" x="818.14" y="865.58" width="13.17" height="28.1" transform="translate(-54.9 1704.37) rotate(-90)"/><polygon class="cls-9" points="909.8 505.97 458.48 505.97 458.48 494.58 684.33 329.79 909.8 494.58 909.8 505.97"/><rect class="cls-10" x="580.51" y="444.38" width="13.17" height="28.1" transform="translate(128.67 1045.53) rotate(-90)"/><rect class="cls-10" x="665.85" y="382.91" width="13.17" height="28.1" transform="translate(275.47 1069.39) rotate(-90)"/><rect class="cls-10" x="841.8" y="475.79" width="13.17" height="28.1" transform="translate(358.55 1338.23) rotate(-90)"/><rect class="cls-10" x="727.04" y="431.21" width="13.17" height="28.1" transform="translate(288.37 1178.89) rotate(-90)"/><rect class="cls-10" x="603.78" y="456.99" width="13.17" height="28.1" transform="translate(139.33 1081.41) rotate(-90)"/><rect class="cls-10" x="703.87" y="444.38" width="13.17" height="28.1" transform="translate(252.02 1168.88) rotate(-90)"/><rect class="cls-10" x="561.63" y="516.58" width="13.17" height="28.1" transform="translate(37.59 1098.85) rotate(-90)"/><rect class="cls-8" x="918.11" y="632.62" width="1.3" height="37.98" transform="translate(1311.8 -403.97) rotate(75.08)"/><rect class="cls-19" x="937" y="427.5" width="523.08" height="515.87"/><rect class="cls-20" x="975.54" y="703.36" width="13.17" height="28.1" transform="translate(264.72 1699.54) rotate(-90)"/><rect class="cls-20" x="1052.35" y="805.8" width="13.17" height="28.1" transform="translate(239.09 1878.78) rotate(-90)"/><rect class="cls-20" x="1072.59" y="815.47" width="13.17" height="28.1" transform="translate(249.66 1908.69) rotate(-90)"/><rect class="cls-20" x="1430.93" y="608.51" width="13.17" height="28.1" transform="translate(814.95 2060.08) rotate(-90)"/><rect class="cls-20" x="1417.17" y="620.18" width="13.17" height="28.1" transform="translate(789.52 2057.99) rotate(-90)"/><rect class="cls-20" x="1128.46" y="642.77" width="13.17" height="28.1" transform="translate(478.23 1791.87) rotate(-90)"/><rect class="cls-20" x="1180.53" y="763.12" width="13.17" height="28.1" transform="translate(409.94 1964.29) rotate(-90)"/><rect class="cls-20" x="1207.82" y="841.93" width="13.17" height="28.1" transform="translate(358.43 2070.39) rotate(-90)"/><rect class="cls-20" x="1408.6" y="811.26" width="13.17" height="28.1" transform="translate(589.87 2240.5) rotate(-90)"/><rect class="cls-20" x="1270.09" y="626.92" width="13.17" height="28.1" transform="translate(635.7 1917.65) rotate(-90)"/><rect class="cls-20" x="1259.86" y="714.14" width="13.17" height="28.1" transform="translate(538.25 1994.64) rotate(-90)"/><rect class="cls-20" x="1360.83" y="778.1" width="13.17" height="28.1" transform="translate(575.27 2159.56) rotate(-90)"/><rect class="cls-7" x="1007.97" y="465.16" width="56.65" height="72.83"/><rect class="cls-5" x="1018.28" y="465.16" width="2.84" height="72.83" transform="translate(2039.4 1003.15) rotate(180)"/><rect class="cls-5" x="1034.88" y="465.16" width="2.84" height="72.83" transform="translate(2072.6 1003.15) rotate(180)"/><rect class="cls-5" x="1051.08" y="465.98" width="2.84" height="72.83" transform="translate(2105 1004.79) rotate(180)"/><rect class="cls-5" x="1034.87" y="474.78" width="2.84" height="59.27" transform="translate(531.87 1540.71) rotate(-90)"/><rect class="cls-5" x="1034.79" y="492.79" width="2.84" height="59.27" transform="translate(513.78 1558.63) rotate(-90)"/><rect class="cls-5" x="1034.88" y="453.83" width="2.84" height="59.27" transform="translate(552.83 1519.77) rotate(-90)"/><rect class="cls-7" x="1175.5" y="465.16" width="56.65" height="72.83"/><rect class="cls-5" x="1185.81" y="465.16" width="2.84" height="72.83" transform="translate(2374.46 1003.15) rotate(180)"/><rect class="cls-5" x="1202.4" y="465.16" width="2.84" height="72.83" transform="translate(2407.65 1003.15) rotate(180)"/><rect class="cls-5" x="1218.6" y="465.98" width="2.84" height="72.83" transform="translate(2440.05 1004.79) rotate(180)"/><rect class="cls-5" x="1202.39" y="474.78" width="2.84" height="59.27" transform="translate(699.39 1708.23) rotate(-90)"/><rect class="cls-5" x="1202.31" y="492.79" width="2.84" height="59.27" transform="translate(681.31 1726.16) rotate(-90)"/><rect class="cls-5" x="1202.4" y="453.83" width="2.84" height="59.27" transform="translate(720.35 1687.3) rotate(-90)"/><rect class="cls-7" x="1341.3" y="464.75" width="56.65" height="72.83"/><rect class="cls-5" x="1351.6" y="464.75" width="2.84" height="72.83" transform="translate(2706.05 1002.34) rotate(180)"/><rect class="cls-5" x="1368.2" y="464.75" width="2.84" height="72.83" transform="translate(2739.24 1002.34) rotate(180)"/><rect class="cls-5" x="1384.4" y="465.57" width="2.84" height="72.83" transform="translate(2771.64 1003.97) rotate(180)"/><rect class="cls-5" x="1368.19" y="474.38" width="2.84" height="59.27" transform="translate(865.6 1873.62) rotate(-90)"/><rect class="cls-5" x="1368.11" y="492.38" width="2.84" height="59.27" transform="translate(847.52 1891.54) rotate(-90)"/><rect class="cls-5" x="1368.2" y="453.43" width="2.84" height="59.27" transform="translate(886.56 1852.68) rotate(-90)"/><rect class="cls-7" x="1342.76" y="621.67" width="56.65" height="72.83"/><rect class="cls-5" x="1353.07" y="621.67" width="2.84" height="72.83" transform="translate(2708.98 1316.18) rotate(180)"/><rect class="cls-5" x="1369.67" y="621.67" width="2.84" height="72.83" transform="translate(2742.17 1316.18) rotate(180)"/><rect class="cls-5" x="1385.87" y="622.49" width="2.84" height="72.83" transform="translate(2774.58 1317.81) rotate(180)"/><rect class="cls-5" x="1369.65" y="631.3" width="2.84" height="59.27" transform="translate(710.15 2032.01) rotate(-90)"/><rect class="cls-5" x="1369.58" y="649.3" width="2.84" height="59.27" transform="translate(692.06 2049.93) rotate(-90)"/><rect class="cls-5" x="1369.67" y="610.35" width="2.84" height="59.27" transform="translate(731.11 2011.07) rotate(-90)"/><rect class="cls-7" x="1175.55" y="621.67" width="56.65" height="72.83"/><rect class="cls-5" x="1185.85" y="621.67" width="2.84" height="72.83" transform="translate(2374.55 1316.18) rotate(180)"/><rect class="cls-5" x="1202.45" y="621.67" width="2.84" height="72.83" transform="translate(2407.74 1316.18) rotate(180)"/><rect class="cls-5" x="1218.65" y="622.49" width="2.84" height="72.83" transform="translate(2440.14 1317.81) rotate(180)"/><rect class="cls-5" x="1202.44" y="631.3" width="2.84" height="59.27" transform="translate(542.93 1864.79) rotate(-90)"/><rect class="cls-5" x="1202.36" y="649.3" width="2.84" height="59.27" transform="translate(524.85 1882.71) rotate(-90)"/><rect class="cls-5" x="1202.45" y="610.35" width="2.84" height="59.27" transform="translate(563.89 1843.85) rotate(-90)"/><rect class="cls-7" x="1009.44" y="620.56" width="56.65" height="72.83"/><rect class="cls-5" x="1019.75" y="620.56" width="2.84" height="72.83" transform="translate(2042.33 1313.95) rotate(180)"/><rect class="cls-5" x="1036.34" y="620.56" width="2.84" height="72.83" transform="translate(2075.53 1313.95) rotate(180)"/><rect class="cls-5" x="1052.54" y="621.38" width="2.84" height="72.83" transform="translate(2107.93 1315.59) rotate(180)"/><rect class="cls-5" x="1036.33" y="630.18" width="2.84" height="59.27" transform="translate(377.94 1697.57) rotate(-90)"/><rect class="cls-5" x="1036.25" y="648.19" width="2.84" height="59.27" transform="translate(359.85 1715.49) rotate(-90)"/><rect class="cls-5" x="1036.34" y="609.23" width="2.84" height="59.27" transform="translate(398.9 1676.63) rotate(-90)"/><rect class="cls-5" x="968.21" y="802.53" width="58.14" height="99.41"/><path class="cls-3" d="M1018.52,847.93s-5.15,0-3.75,7.49c0,0,.94,3.29,2.35,2.35,0,0,.47,2.34,1.4,1.87.94.47,1.41-1.87,1.41-1.87,1.4.94,2.34-2.35,2.34-2.35C1023.68,847.93,1018.52,847.93,1018.52,847.93Z"/><g id="_3U9O8o.tif-3" data-name="3U9O8o.tif"><path class="cls-6" d="M1016.58,850.58a1.77,1.77,0,0,0-1,.51,4.12,4.12,0,0,1-1.28.86,2.27,2.27,0,0,1-1.68-.09,9.35,9.35,0,0,1-2-1,8.81,8.81,0,0,0-4.73-1.35,6.14,6.14,0,0,0-2.24.38.58.58,0,0,0-.39.9c.1.23.21.46.32.69.22.48.47.58,1,.39a5.1,5.1,0,0,1,2-.38,7.65,7.65,0,0,1,3.31.87,11.15,11.15,0,0,0,3.27,1.14,4.9,4.9,0,0,0,1,.06,3.54,3.54,0,0,1,2,.31,1.7,1.7,0,0,0,2.42-1.24A1.77,1.77,0,0,0,1016.58,850.58Z"/></g><rect class="cls-11" x="965.93" y="901.94" width="63.3" height="10.89"/><rect class="cls-12" x="965.93" y="912.83" width="63.3" height="10.02"/><rect class="cls-21" x="965.93" y="922.45" width="63.3" height="10.89"/><rect class="cls-22" x="965.93" y="933.34" width="63.3" height="10.02"/><rect class="cls-23" x="1104.23" y="750.23" width="41.9" height="53.88"/><rect class="cls-24" x="1112.9" y="750.23" width="2.1" height="53.88" transform="translate(2227.9 1554.33) rotate(180)"/><rect class="cls-24" x="1124.13" y="750.23" width="2.1" height="53.88" transform="translate(2250.35 1554.33) rotate(180)"/><rect class="cls-24" x="1135.06" y="750.83" width="2.1" height="53.88" transform="translate(2272.22 1555.54) rotate(180)"/><rect class="cls-24" x="1124.12" y="757.34" width="2.1" height="43.84" transform="translate(345.9 1904.44) rotate(-90)"/><rect class="cls-24" x="1124.06" y="770.66" width="2.1" height="43.84" transform="translate(332.53 1917.69) rotate(-90)"/><rect class="cls-24" x="1124.13" y="741.85" width="2.1" height="43.84" transform="translate(361.41 1888.95) rotate(-90)"/><rect class="cls-5" x="1294.2" y="784.33" width="47.77" height="114.88"/><rect class="cls-8" x="1296.02" y="734.53" width="0.58" height="6.91" transform="translate(1675.59 -704.65) rotate(75.08)"/><rect class="cls-8" x="1291.61" y="738.69" width="2.32" height="0.49" transform="translate(1673.88 -700.53) rotate(75.08)"/><path class="cls-3" d="M1334.14,845.2s-5.15,0-3.75,7.5c0,0,.94,3.28,2.35,2.34,0,0,.47,2.35,1.4,1.88.94.47,1.41-1.88,1.41-1.88,1.4.94,2.34-2.34,2.34-2.34C1339.3,845.2,1334.14,845.2,1334.14,845.2Z"/><g id="_3U9O8o.tif-4" data-name="3U9O8o.tif"><path class="cls-6" d="M1332.2,847.85a1.86,1.86,0,0,0-1,.52,4.3,4.3,0,0,1-1.28.86,2.37,2.37,0,0,1-1.68-.09,9.84,9.84,0,0,1-2-1,8.72,8.72,0,0,0-4.73-1.35,6.35,6.35,0,0,0-2.24.37.59.59,0,0,0-.39.91c.1.23.21.46.32.69.22.47.47.58,1,.38a5.48,5.48,0,0,1,2-.38,7.81,7.81,0,0,1,3.31.88,11.13,11.13,0,0,0,3.27,1.13,3.81,3.81,0,0,0,1,.06,3.63,3.63,0,0,1,2,.32,1.7,1.7,0,0,0,2.42-1.24A1.78,1.78,0,0,0,1332.2,847.85Z"/></g><rect class="cls-11" x="1287.11" y="899.21" width="63.3" height="11.61"/><rect class="cls-12" x="1287.11" y="910.82" width="63.3" height="10.68"/><rect class="cls-21" x="1287.11" y="921.08" width="63.3" height="11.61"/><rect class="cls-22" x="1287.11" y="932.69" width="63.3" height="10.68"/><polygon class="cls-13" points="919.02 685.95 877.77 685.95 882.14 689.38 914.65 689.38 919.02 685.95"/><circle class="cls-8" cx="898.44" cy="667.39" r="4.44"/><rect class="cls-14" x="882.14" y="689.38" width="32.59" height="30.41"/><polygon class="cls-13" points="877.81 723.22 919.06 723.22 914.69 719.79 882.18 719.79 877.81 723.22"/><polygon class="cls-15" points="919.02 685.95 877.81 685.95 895.55 670.43 901.24 670.43 919.02 685.95"/><rect class="cls-16" x="897.87" y="660.49" width="1.13" height="2.88"/><path class="cls-16" d="M898.42,654.59a3.37,3.37,0,1,0,3.37,3.37A3.37,3.37,0,0,0,898.42,654.59Zm0,6a2.64,2.64,0,1,1,2.63-2.63A2.64,2.64,0,0,1,898.42,660.59Z"/><rect class="cls-17" x="883.44" y="691.96" width="6.14" height="24.95"/><rect class="cls-17" x="907.21" y="692.26" width="6.14" height="24.95"/><rect class="cls-17" x="893.38" y="692.26" width="10.47" height="24.95"/><polygon class="cls-13" points="1312.87 752.19 1289.43 752.19 1291.91 754.14 1310.39 754.14 1312.87 752.19"/><circle class="cls-8" cx="1301.17" cy="741.64" r="2.53"/><rect class="cls-14" x="1291.91" y="754.14" width="18.53" height="17.29"/><polygon class="cls-13" points="1289.45 773.37 1312.89 773.37 1310.41 771.42 1291.93 771.42 1289.45 773.37"/><polygon class="cls-15" points="1312.87 752.19 1289.45 752.19 1299.53 743.37 1302.77 743.37 1312.87 752.19"/><rect class="cls-18" x="1300.85" y="737.72" width="0.64" height="1.64"/><path class="cls-18" d="M1301.16,734.36a1.92,1.92,0,1,0,1.92,1.91A1.92,1.92,0,0,0,1301.16,734.36Zm0,3.41a1.5,1.5,0,1,1,1.5-1.5A1.5,1.5,0,0,1,1301.16,737.77Z"/><rect class="cls-17" x="1292.65" y="755.61" width="3.49" height="14.18"/><rect class="cls-17" x="1306.16" y="755.77" width="3.49" height="14.18"/><rect class="cls-17" x="1298.3" y="755.77" width="5.95" height="14.18"/><rect class="cls-8" x="977.24" y="738.65" width="0.58" height="6.91" transform="matrix(0.26, 0.97, -0.97, 0.26, 1442.88, -393.55)"/><polygon class="cls-13" points="994.15 757.63 970.71 757.63 973.19 759.58 991.67 759.58 994.15 757.63"/><circle class="cls-8" cx="982.45" cy="747.08" r="2.53"/><rect class="cls-14" x="973.19" y="759.58" width="18.53" height="17.29"/><polygon class="cls-13" points="970.73 778.82 994.17 778.82 991.69 776.87 973.21 776.87 970.73 778.82"/><polygon class="cls-15" points="994.15 757.63 970.73 757.63 980.81 748.81 984.05 748.81 994.15 757.63"/><rect class="cls-18" x="982.13" y="743.21" width="0.64" height="1.58"/><path class="cls-18" d="M982.44,739.8a1.92,1.92,0,1,0,1.92,1.92A1.92,1.92,0,0,0,982.44,739.8Zm0,3.41a1.5,1.5,0,1,1,1.5-1.49A1.5,1.5,0,0,1,982.44,743.21Z"/><rect class="cls-17" x="973.93" y="761.05" width="3.49" height="14.18"/><rect class="cls-17" x="987.44" y="761.22" width="3.49" height="14.18"/><rect class="cls-17" x="979.58" y="761.22" width="5.95" height="14.18"/><rect class="cls-8" x="972.88" y="742.8" width="2.32" height="0.49" transform="translate(1441.19 -389.5) rotate(75.08)"/><rect class="cls-20" x="1066.4" y="537.11" width="13.17" height="28.1" transform="translate(521.82 1624.15) rotate(-90)"/><rect class="cls-20" x="1086.64" y="550.29" width="13.17" height="28.1" transform="translate(528.89 1657.56) rotate(-90)"/><rect class="cls-20" x="1231.81" y="552.12" width="13.17" height="28.1" transform="translate(672.22 1804.56) rotate(-90)"/><rect class="cls-20" x="1288.24" y="491.12" width="13.17" height="28.1" transform="translate(789.66 1799.99) rotate(-90)"/><rect class="cls-20" x="1284.29" y="701.9" width="13.17" height="28.1" transform="translate(574.93 2006.82) rotate(-90)"/><rect class="cls-20" x="1307.81" y="478.12" width="13.17" height="28.1" transform="translate(822.22 1806.56) rotate(-90)"/><rect class="cls-19" x="1400" y="398" width="30" height="30"/><rect class="cls-19" x="1370" y="368" width="30" height="30"/><rect class="cls-19" x="1340" y="338" width="30" height="30"/><rect class="cls-19" x="1310" y="308" width="30" height="30"/><rect class="cls-19" x="967" y="398" width="30" height="30"/><rect class="cls-19" x="997" y="368" width="30" height="30"/><rect class="cls-19" x="1027" y="338" width="30" height="30"/><rect class="cls-19" x="1057" y="308" width="30" height="30"/><rect class="cls-19" x="1087" y="278" width="30" height="30"/><rect class="cls-19" x="1280" y="278" width="30" height="30"/><rect class="cls-19" x="1117" y="248" width="30" height="30"/><rect class="cls-19" x="1250" y="248" width="30" height="30"/><rect class="cls-19" x="1147" y="180" width="103" height="248"/><rect class="cls-19" x="996" y="398" width="151" height="30"/><rect class="cls-19" x="1027" y="368" width="120" height="30"/><rect class="cls-19" x="1056" y="338" width="103" height="30"/><rect class="cls-19" x="1087" y="308" width="103" height="30"/><rect class="cls-19" x="1117" y="278" width="103" height="30"/><rect class="cls-19" x="1177" y="278" width="103" height="30"/><rect class="cls-19" x="1207" y="308" width="103" height="30"/><rect class="cls-19" x="1237" y="338" width="103" height="30"/><rect class="cls-19" x="1250" y="368" width="120" height="30"/><rect class="cls-19" x="1250" y="398" width="150" height="30"/><rect class="cls-5" x="1143.1" y="175" width="109.98" height="5"/><rect class="cls-20" x="1086.4" y="390.11" width="13.17" height="28.1" transform="translate(688.82 1497.15) rotate(-90)"/><rect class="cls-20" x="1106.64" y="403.29" width="13.17" height="28.1" transform="translate(695.89 1530.56) rotate(-90)"/><rect class="cls-20" x="1208.81" y="357.12" width="13.17" height="28.1" transform="translate(844.22 1586.56) rotate(-90)"/><rect class="cls-20" x="1278.81" y="392.12" width="13.17" height="28.1" transform="translate(879.22 1691.56) rotate(-90)"/><rect class="cls-20" x="1100.81" y="330.12" width="13.17" height="28.1" transform="translate(763.22 1451.56) rotate(-90)"/><rect class="cls-5" x="962" y="393" width="35" height="5"/><rect class="cls-5" x="992" y="363" width="35" height="5"/><rect class="cls-5" x="1022" y="333" width="35" height="5"/><rect class="cls-5" x="1052" y="303" width="35" height="5"/><rect class="cls-5" x="1082" y="273" width="35" height="5"/><rect class="cls-5" x="1112" y="243" width="35" height="5"/><rect class="cls-5" x="1250" y="243" width="35" height="5"/><rect class="cls-5" x="1280" y="273" width="35" height="5"/><rect class="cls-5" x="1310" y="303" width="35" height="5"/><rect class="cls-5" x="1340" y="333" width="35" height="5"/><rect class="cls-5" x="1370" y="363" width="35" height="5"/><rect class="cls-5" x="1400" y="393" width="35" height="5"/><rect class="cls-7" x="1179.02" y="280.55" width="37.12" height="47.73"/><polygon class="cls-10" points="1601 1080 321 1080 458.48 942.97 1460.08 942.97 1601 1080"/><rect class="cls-21" x="694.27" y="922.23" width="63.3" height="10.89"/><rect class="cls-22" x="694.27" y="933.12" width="63.3" height="10.02"/></svg>