<svg id="Laag_1" data-name="Laag 1" xmlns="http://www.w3.org/2000/svg" xmlns:xlink="http://www.w3.org/1999/xlink" viewBox="0 0 1920 1080"><defs><radialGradient id="Naamloos_verloop_80" cx="644.66" cy="396.56" r="541.34" gradientUnits="userSpaceOnUse"><stop offset="0" stop-opacity="0"/><stop offset="0.14" stop-opacity="0.37"/><stop offset="1"/></radialGradient></defs><title>mainimage</title><rect x="-1" y="-19" width="1932" height="1098" style="fill:#b5c9d4"/><path d="M-72,514c9-3,104-86,212-54S329,581,494,584s336-143,545-127,149,130,408,190,442.41-199.37,474.7-199.19L1919,1079H-1Z" style="fill:#fff"/><polygon points="338 415.64 1554 388.55 1442.63 682.02 474.95 648.91 338 415.64" style="fill:#d8653d"/><rect x="643.26" y="327.41" width="2.4" height="162.66"/><rect x="643.26" y="327.41" width="2.4" height="162.66" style="fill:url(#Naamloos_verloop_80)"/><rect x="643.26" y="490.07" width="2.4" height="109.37" style="fill:#cecece"/><rect x="643.26" y="490.07" width="2.4" height="109.37" style="fill:url(#Naamloos_verloop_80)"/><rect x="643.26" y="327.41" width="2.4" height="162.66" style="fill:#fff"/><rect x="643.26" y="327.41" width="2.4" height="162.66" style="fill:#fff"/><rect x="643.26" y="490.07" width="2.4" height="109.37" style="fill:#fff"/><rect x="643.26" y="490.07" width="2.4" height="109.37" style="fill:#fff"/><path d="M785.29,467.53v.25h.07v-.25Z" style="fill:#630606"/><path d="M786.52,452.73l-.42,0v.08l.42,0Z" style="fill:#630606"/><path d="M753.1,574.58l-1.73,1.57-.08-.06a7,7,0,0,1,.49-.79,4.39,4.39,0,0,1,.74-.69,1.53,1.53,0,0,1,.54-.1Z" style="fill:#1e1e1e"/><path d="M732.34,486.13s-3.35-30.92-1.74-35.32a46.23,46.23,0,0,0,2.8-13.22s3.21,22,2.81,25.64a26.7,26.7,0,0,0,.73,9.63l.47-.82c1.2-2,9.21-41.26,6.81-47.67S713,395.52,713,395.52l-33.65-12s-107.77,16-109.38,16-15.22,10.81-18.83,13.22S544.7,420,542.3,426s-3.61,27.24-3.61,31.25c0,3.08,1.66,10.66,2.43,14a2,2,0,0,1,2-1.18s2-17.63,5.61-19.23c0,0,1.2-1.61,1.2,4.8s0,15.23-1.6,22.84c0,0-2.41,37.66-6,42.07a3.41,3.41,0,0,1-3,1.1l1.39,7.31,12.82,38.86,40.85,31.65H659l20.29-10.81v-63.3h10.41s8.42,32.45,8.42,33.25,22-5.21,22-5.21,12-38.86,12.42-40.87-1.2-12.41-1.6-14,4.4-3.6,2-6c-1.83-1.82-1.11-4.11-.66-6.34Z" style="fill:#e0dede"/><path d="M736.21,463.23c.4-3.61-2.81-25.64-2.81-25.64a46.23,46.23,0,0,1-2.8,13.22c-1.61,4.4,1.74,35.32,1.74,35.32h0a10.76,10.76,0,0,0,.26-2.07c0-2.5,2.87-8.51,4.34-11.2A26.7,26.7,0,0,1,736.21,463.23Z" style="fill:#aaa"/><path d="M588,595c1.2-2,2.81-5.61,2.81-6.82s-.81-13.62,4.4-42.86c0,0-8.81,24-12,30.44s-1,18.4-2.51,21.42c1,1.44,1.71,2.22,1.71,2.22h1.13A23.74,23.74,0,0,0,588,595Z" style="fill:#472f19"/><path d="M542.3,520.52c3.6-4.41,6-42.07,6-42.07,1.6-7.61,1.6-16.42,1.6-22.84s-1.2-4.8-1.2-4.8c-3.61,1.6-5.61,19.23-5.61,19.23a2,2,0,0,0-2,1.18c.23,1,.38,1.62.38,1.62-4.41,6.41.4,8.42.8,11.22s-4.41,30.05-4.41,30.05l1.42,7.51A3.41,3.41,0,0,0,542.3,520.52Z" style="fill:#aaa"/><polygon points="561.13 522.52 547.54 528.37 555.52 558.58 572.31 572.4 577.96 536.54 561.13 522.52" style="fill:#aaa"/><polygon points="715.37 517.71 726.19 523.32 720.58 556.17 697.34 560.58 697.34 524.12 715.37 517.71" style="fill:#aaa"/><path d="M581.56,458.42s-3.2-1.2-4.81,0-21.63-17.63-21.23-12.82,4.41,17.63,10.82,21.63S590,504.09,591.18,508.1s15.79,0,15.79,0l6.64-27.65Z" style="fill:#aaa"/><polygon points="630.04 486.06 607.2 530.13 601.59 599.44 629.64 599.44 657.68 599.44 663.29 558.18 654.48 501.69 637.65 484.06 630.04 486.06" style="fill:#aaa"/><path d="M620.38,580.88c-3.45,8.3-10.59,14-11.58,11.75-1.2-2.8-1.6-11.22-1.6-11.22a40.21,40.21,0,0,0-2.4,10.42,35.47,35.47,0,0,1-1.71,7.61h8.52A49.25,49.25,0,0,0,620.38,580.88Z" style="fill:#472f19"/><path d="M722.18,433.58s2.41-6.81-2.4-.8-6.41,10.42-8.41,10.82,2.65-14.18.92-16.71S699,432.78,699,432.78l-7.62,24L666.9,493.68l4,15.22,12.42,3.6s2-16.42,4.81-21.23S690.13,487.27,722.18,433.58Z" style="fill:#aaa"/><path d="M630,491.67s6.81,5.21,12,4.41,8.41-5.61,8.41-5.61l2-16-12-14L624,467.63l-1.6,14Z" style="fill:#472f19"/><path d="M632.44,475.25s6,2.8,8,4.8,5.21-6.81,8.42-8.41,5.61-13.22,5.61-13.22S632.84,446,631.64,445.6,614,452,614.41,452.81s8,17.63,8,17.63Z" style="fill:#2d1b0d"/><path d="M629.24,469.64v-7.21c0-.81-5.61-16.83-5.61-16.83l-30.45,1.2s-8.81,10.82-8.41,16,5.6,8.41,5.6,8.41c3.21,6,12.42,18.43,12,20.83s-4.8,16.83-4.8,16.83h0c-.42,2.9-7.21,16.83-7.21,16.83-2-2-10.81-4.41-13.62-4-2.2.31-8.13,10.56-10.56,14.9a171.44,171.44,0,0,1,4.95,28,52.21,52.21,0,0,0,9.51,32.63c1.49-3-.69-15,2.51-21.42s12-30.44,12-30.44c-5.21,29.24-4.4,41.66-4.4,42.86S589.17,593,588,595a23.74,23.74,0,0,1-4.48,4.4h19.6a35.47,35.47,0,0,0,1.71-7.61,40.21,40.21,0,0,1,2.4-10.42s.4,8.42,1.6,11.22c1,2.29,8.13-3.45,11.58-11.75,2.42-10.19,1.64-20.12,1.64-29.11,0-14.43,2.81-18.43,3.61-33.26a118.45,118.45,0,0,1,3.61-24.43C640.85,481.26,629.24,469.64,629.24,469.64Z" style="fill:#684b2e"/><path d="M576.75,521.72c2.81-.4,11.62,2,13.62,4,0,0,6.79-13.93,7.21-16.83-.14-.09-8.81-5.61-9.21-5.21s-16.42,10-16.42,10a16.54,16.54,0,0,1-4.81-2.41c.4.8.4,4,0,4s-1.2-.8-1.2-.8c-1.21.8-2,5.61-2.41,6.41s-2.4,1.6-2.4,1.6a86.52,86.52,0,0,1,5.06,14.1C568.62,532.28,574.55,522,576.75,521.72Z" style="fill:#472f19"/><path d="M509.45,599.44s-8-6-10-24.84-.4-26.84-2.4-34.45c-1.57-6-2.84-12-1.9-18.17,1.57-10.25,9-17.58,18-22,5.24-2.57,18.21-5,22.33.92,3.6,5.2,4,19.63,28,52.08,0,0,12,16.42,13.22,46.47Z" style="fill:#684b2e"/><path d="M701.75,599.44s-1.2-33.65,6.81-49.28,26.84-49.67,31.65-51.28,24.84-.4,28.85,8.82,2,17.22,2.8,26.84c.46,5.53.62,11.1.71,16.65.12,6.69.72,13.43-1.28,19.9-1.4,4.53-2.68,9.08-4.38,13.5a68.56,68.56,0,0,1-3.61,8,40.62,40.62,0,0,1-2.24,3.74c-.32.47-1.84,3.1-2.42,3.1Z" style="fill:#684b2e"/><path d="M701.75,521.32c-6.81-1.2-23.24,6.81-23.24,6.81a64.73,64.73,0,0,1-1.08-21c-1.82.75-3.32,1.41-3.32,1.41s-.15-2.57-.36-5.67c-.26-4-.62-9-.84-10.36-.41-2.4,3.2-6,6.41-12,0,0,8-8,8.41-13.22s.8-21.63.8-21.63H648.87s-5.61,16-5.61,16.83,4.81,14.82,4.81,14.82a41.89,41.89,0,0,0,.8,24s0,3.2.8,18-.4,17.62-.4,32-6.41,31.65,6,48.07h46.47c.47,0-.21-2.43,0-2.8,2-3.61-.52-7.46,1.2-11.22,4.9-10.71,2.71-22.37,4.3-34,.71-5.2,1.74-11,3-16.64h0C707.63,527.46,701.75,521.32,701.75,521.32Z" style="fill:#684b2e"/><path d="M711.37,517.31a17.5,17.5,0,0,0-3.61-4.4s-12-6.41-12.42-6.41-2.8-4.81-2.4-5.61l-3.21,6.41a62.66,62.66,0,0,1-6-2.41c-.24-.24-3.6,1.09-6.29,2.2a64.73,64.73,0,0,0,1.08,21s16.43-8,23.24-6.81c0,0,5.88,6.14,8.55,13.49h0a128.66,128.66,0,0,1,5.07-17.09S711.77,518.11,711.37,517.31Z" style="fill:#472f19"/><path d="M737.41,519.72s-3.21,37.66,2,44.87,5.61,6,8.41,2.8,21.64-32.85,21.64-38.46A141.86,141.86,0,0,0,755,543.35c-6.42,7.62-10.42,7.22-12,2.81s-1.61-18-3.21-22.44S737.41,519.72,737.41,519.72Z" style="fill:#472f19"/><path d="M725.79,552.17s-17.69,33.25-18.26,47.27h7.84S727.79,565,725.79,552.17Z" style="fill:#472f19"/><path d="M688.67,599.44s-.14-10-1.74-14.82c0,0,5.61,8.81,6.41,12,0,0,9.61-20.43,9.61-28,0,0,4.81,22.84,4.41,30.85Z" style="fill:#472f19"/><path d="M657.66,599.39s-4-26.39-3.18-29.59c0,0,11.23,25.64,11.42,29.64Z" style="fill:#472f19"/><path d="M647.69,497.2c-.63-.55-3.84,3.21-4.07,3.54-2.4,3.42-3.88,9.75-2.34,13.8.29.78,2.38,2.27,2.38,2.77a12.93,12.93,0,0,0,.4,3.21c.4,1.2,5.61,4.81,7.21,5.21,0,0-.8,4,1.2,4s5.61.8,6,0,0-2,.8-2c1.48,0,3-1,4.31-1.49a36.15,36.15,0,0,0,4.55-2.12c9.56-5.39,19.39-19.65,11.4-30.23a14.73,14.73,0,0,0-5.77-4.44s-1.53,2-.79,3.52,3.53,4.31,3.13,8.72-1.6,12.82-12.42,16.82-18-4.4-17.23-9.61,2.42-6.88,2.42-6.88S648.51,497.93,647.69,497.2Z" style="fill:#414143"/><path d="M615.21,491.67s-13.62-11.22-13.62-22C601.59,469.64,614.41,483.66,615.21,491.67Z" style="fill:#472f19"/><path d="M665.29,484.86s14.83-12.42,13.22-20C678.51,464.83,672.1,466,665.29,484.86Z" style="fill:#472f19"/><polygon points="653.67 544.56 653.67 550.16 656.08 550.16 656.08 544.15 653.67 544.56" style="fill:#414143"/><path d="M656.88,532.54a6,6,0,0,1-.78-2.45l0-.76-2.22.48a8.81,8.81,0,0,1-.19,3.13s-2.4-.8-2.4,4.4-.4,8,1.2,8h4.81s1.6.4,1.6-5.21S658.88,532.94,656.88,532.54Zm-.4,9.21c0,.8-1.2.8-2.4.8s-.81-4.81-.81-6.41,1.61-1.2,1.61-1.2c1.6.4,1.2.4,1.6,1.2S656.48,541,656.48,541.75Z" style="fill:#414143"/><path d="M658.08,551.37a4.31,4.31,0,0,0-3.2-1.61h-.8s-2.41.81-2.81,2.41-.4,13.62,1.2,14.42,4.81.8,5.21.4,1.2-.4,1.2-2S659.28,553,658.08,551.37Zm-1.6,12c-.4.4-1.2,1.2-2,.4s-1.21-8.42-1.21-9.62,1.61-.8,1.61-.8a3.1,3.1,0,0,1,1.2.4C656.88,554.17,656.88,563,656.48,563.39Z" style="fill:#414143"/><path d="M599.17,485.28a7.84,7.84,0,0,0-2.39,4s-4.4.8-2.8,6.81,7.61,27.24,22.84,35.25c0,0,4,.81,4.4,3.61s10,.4,10.42-.8a1.45,1.45,0,0,0-.8-2c-.4,0,.4-.81.4-.81s16.34-16.13-3.85-28.7c0,0-.68,6-1,7.14-.23.79.7,2.09,1.06,2.73a14.66,14.66,0,0,1,1.52,3.17c.75,2.7,0,8.54-3.62,8.7s-21.33-10.26-22.94-32.3C602.39,492.07,603.55,490.91,599.17,485.28Z" style="fill:#414143"/><polygon points="627.64 551.93 628.24 557.51 630.63 557.25 629.99 551.27 627.64 551.93" style="fill:#414143"/><path d="M629.59,538a7,7,0,0,1-1.06-2.59l-.11-.83-2.15.76a11,11,0,0,1,.18,3.44s-2.49-.62-1.88,5.07.54,8.8,2.13,8.63l4.78-.51s1.64.27,1-5.86S631.63,538.18,629.59,538Zm.68,10.11c.09.88-1.11,1-2.3,1.14s-1.36-5.17-1.55-6.93a1.22,1.22,0,0,1,1.46-1.48c1.64.27,1.24.31,1.73,1.14S630.17,547.19,630.27,548.06Z" style="fill:#414143"/><path d="M633,558.47a4.31,4.31,0,0,0-3.24-1.55l-.8,0s-2.39.84-2.76,2.45-.15,13.63,1.46,14.4,4.82.71,5.22.31,1.19-.43,1.16-2S634.23,560.05,633,558.47Zm-1.39,12c-.39.41-1.18,1.22-2,.44s-1.36-8.39-1.38-9.59,1.59-.83,1.59-.83a3,3,0,0,1,1.21.38C631.85,561.29,632,570.1,631.61,570.51Z" style="fill:#414143"/><path d="M535.89,522.52s-3.21,22.44,0,32.85S559,599.44,559,599.44h17.73s-11.21-29.24-13.22-35.25S541.9,525.73,535.89,522.52Z" style="fill:#472f19"/><path d="M504.24,530.93s-.8,15.23,5.21,21.24,16.82,19.63,18,22c0,0-4-20.43-10.42-27.24,0,0,1.2-.4,2.4,1.2C519.46,548.16,519.46,545.76,504.24,530.93Z" style="fill:#472f19"/><path d="M715.2,399.34c0,18.79-38.16,49.24-74.17,49.24s-74.84-16.68-74.84-35.47S605,380.53,641,380.53,715.2,380.55,715.2,399.34Z" style="fill:#111"/><path d="M628.17,464.79c0-.13-.09-.25-.14-.36Z" style="fill:#4b3d3e;opacity:0.04"/><path d="M707,382.7a84.06,84.06,0,0,1-.4,33.65,86,86,0,0,0-3.21-18.83c.8,8-1.2,20.44-1.2,20.44-.8-9.62-7.21-25.65-7.21-25.65,1.2,17.23-7.61,40.47-7.61,40.47-.4-5.61-2-16.83-2-16.83.41,8-3.6,21.64-3.6,21.64.4-11.62-7.21-32-7.21-32a87.22,87.22,0,0,1-4,23.23c-2-16.82-6-25.64-6-25.64a91.63,91.63,0,0,1-8,35.66,52.05,52.05,0,0,0-1.2-14.42c.4,6.41-2.81,15.22-2.81,15.22-1.2-11.22-4.8-39.66-4.8-39.66.4,17.22-8,46.87-8,46.87.4-4.41-2-20.43-2-20.43-2,3.6-3.21,25.64-3.21,25.64-3.2-5.61-6-25.64-6-25.64-1.6,0-1.6,11.22-1.6,11.22-2.8-4-5.61-18.83-5.61-18.83-2.8,12-1.2,24.84-1.2,24.84a73.07,73.07,0,0,1-14.42-34.86c-6,10.82-5.21,32.45-5.21,32.45-3.2-2.4-5.21-22-5.21-22-1.6,2-2.4,19.23-2.4,19.23-10-12.42-7.61-37.66-7.61-37.66-2.81,2.8-6.41,30.45-6.41,30.45-1.61-3.61-2.81-24-2.81-24-1.2,2-2.8,20.83-2.8,20.83-4.41-9.21-.8-28-.8-28-1.72,2.29-5.7,12-7.83,17.3a108.5,108.5,0,0,0,.21,15.95s.81-6.41,2-7.61c0,0,1.6,25.24,9.21,34.85,0,0-1.6-16.42-.4-18,0,0,3.61,6,6.41,29.25,0,0,4.41-9.21,4-16.83s0-.8,0-.8,3.2,5.21,13.62,8.42c0,0,.8-.81,2,2.4,0,0-1.6-4.81-.4-6.41s2.41-2.81,2-4.41c0,0,2,2.41,2,12.82a90.08,90.08,0,0,0,2.4-9.21,40.59,40.59,0,0,1,2.81,10,29.65,29.65,0,0,1,0,6.81s4.4-6.41,6-12c0,0,3.6-.4,5.6,4.8s5.61,6,7.22,10.82c0,0,0-10-1.07-13.26l-.14-.36c.05.11.09.23.14.36.53,1.43,2.65,6.78,5.07,8.85,0,0-.4-8.81.4-10,0,0,3.61,5.61,8,12,0,0,12.42-8,14-15.23a46.78,46.78,0,0,1,0,14s.8-4,1.6-5.2c0,0,.8-1.21.8,2.4s.8,6,1.6,6.41c0,0,0-9.21,6.82-13.22,0,0,1.2,3.2-2,7.61,0,0,8-10,12.42-17.23.21-.33,1.56.73,1.73.9.83.89.12,2.22,0,3.22-.26,1.55-.42,3.13-.81,4.64s-1,3.11-1.47,4.7c-.13.47-.36,1.4-1,1.37,1.21.45,2.4-1,3-1.83a21,21,0,0,0,2.6-5.21,36.57,36.57,0,0,1,2.81-5.37c.22-.36,1-2.14,1.65-1.8.32.18.38,1,.43,1.26a31,31,0,0,1,.3,3.33c.4,7.61-.81,9.22-.81,9.22,1.31-1.53,2.56-3.11,3.77-4.72,1.41-1.88,2.57-4.11,3.83-6.16,1.16-1.89,3.27-2.83,4.42-4.75a52.51,52.51,0,0,1-3.2,8.42,34,34,0,0,0,10-17.23s4,7.21,6.82,8.81c0,0-3.61-8.41-2-12.82s4.81-20.43,4.41-23.64a20.82,20.82,0,0,1,2,10.42,106.68,106.68,0,0,0,1.29-27.77,11,11,0,0,1-1.69,4.13C714.17,395.52,707,382.7,707,382.7Z" style="fill:#0c0304"/><path d="M724.59,385.9a75.57,75.57,0,0,1-11.22-9.21,16.81,16.81,0,0,0,6.81,2s-11.22-8-13.62-14.42-16-19.23-16-19.23,7.62,1.6,8.82-1.6c0,0-17.23-2-22-6.81s-24.84-13.22-40.86-7.62c0,0-13.62-6-24,2s-24,7.61-26.84,8.81c0,0,3.2,3.21,10,3.61,0,0-3.6,5.21-14.42,5.61,0,0,3.21,3.2,7.21,2.8,0,0-13.22,5.21-21.63,35.66,0,0,4.4-7.21,7.61-9.62,0,0-8.41,16-9.83,39.34,2.13-5.32,6.11-15,7.83-17.3,0,0-3.61,18.83.8,28,0,0,1.6-18.83,2.8-20.83,0,0,1.2,20.43,2.81,24,0,0,3.6-27.65,6.41-30.45,0,0-2.41,25.24,7.61,37.66,0,0,.8-17.23,2.4-19.23,0,0,2,19.63,5.21,22,0,0-.8-21.63,5.21-32.45A73.07,73.07,0,0,0,620,443.6s-1.6-12.82,1.2-24.84c0,0,2.81,14.82,5.61,18.83,0,0,0-11.22,1.6-11.22,0,0,2.81,20,6,25.64,0,0,1.21-22,3.21-25.64,0,0,2.4,16,2,20.43,0,0,8.42-29.65,8-46.87,0,0,3.6,28.44,4.8,39.66,0,0,3.21-8.81,2.81-15.22a52.05,52.05,0,0,1,1.2,14.42,91.63,91.63,0,0,0,8-35.66s4,8.82,6,25.64a87.22,87.22,0,0,0,4-23.23s7.61,20.43,7.21,32c0,0,4-13.63,3.6-21.64,0,0,1.61,11.22,2,16.83,0,0,8.81-23.24,7.61-40.47,0,0,6.41,16,7.21,25.65,0,0,2-12.42,1.2-20.44a86,86,0,0,1,3.21,18.83,84.06,84.06,0,0,0,.4-33.65s7.21,12.82,8,21.63a11,11,0,0,0,1.69-4.13,74.26,74.26,0,0,0-4.09-19.1S719.38,386.31,724.59,385.9Z" style="fill:#111"/><path d="M636.05,333.82s-1.14-.71-1.21-.74a14,14,0,0,0-3.66-1.23,20.13,20.13,0,0,0-8.07.23,24.22,24.22,0,0,0-5.94,2c-1.93,1-3.37,2.6-5.16,3.79a10.84,10.84,0,0,1-3.21,1.2s3.61-.4,3.61,1.2-6,3.21-7.61,5.21c0,0,16.82-6,17.63-3.2,0,0-10,9.61-9.22,15.22,0,0,7.21-8.81,15.22-10.42,0,0-2,2.81-6,8,0,0,12.82-10.82,15.22-9.62s15.62,5.61,18.83,15.63c0,0,0-6.41-6.81-13.63,0,0,2.4,0,2.8.81,0,0-2.4-2.41-2.4-3.61,0,0,7.21,0,16.83,4.41s0-.4,0-.4-2-4.41-9.22-9.22c0,0,1.6-.8,4.81,0a4.42,4.42,0,0,0-2-1.6s2.4-1.2,6,.4a8.21,8.21,0,0,1-1.14-.82,30.59,30.59,0,0,0-3.48-2,45.53,45.53,0,0,0-13.7-4C643.9,330.84,639.5,330.8,636.05,333.82Z" style="fill:#0c0304"/><path d="M1208.26,364c-1.79-.28-21.41,9.14-29.26,20.91,0,0-41.59,29-45.52,48.66s0,19.62,0,29-4.71,14.13-4.71,21.19.79,28.26,3.93,33.75,25.11,10.2,31.39,3.93,25.11-33,29.82-36.11,9.42-25.11,11.78-25.89S1219,451.6,1219,451.6q-2.73,19.5-5.83,38.94c-1.5,9.47-3,18.94-4.86,28.35-1.32,6.88-2.46,14.2-7,19.82-4.22,5.23-10.42,9.64-15.48,14.07-8.36,7.33-16.91,16.28-26.49,22-3.92,2.36,65.93,23.55,80,22s134.2,5.49,135.77-5.5c2.36-16.47.37-34.28.3-50.86,0-10.49-.09-21,.23-31.48.4-12.91,4.08-25.11,5-38,.77-10.42,1.27-22.48-1.63-32.66-3.49-12.2-7.32-24.3-11.59-36.25q-3.27-9.13-6.88-18.14c-1.91-4.74-3.17-11.3-6.75-15.08-1.75-1.84-5.44-2.51-7.78-3.09-6.06-1.49-13.32-2.9-19.58-2-5.5.78-22-11-31.4-14.91S1208.26,364,1208.26,364Z" style="fill:#6b140d"/><path d="M1217.46,346.43s-40.81,7.07-59.65-21.19c0,0,2.12-2.8,2.23-3,6.39-10.11,5.32-21.58,6.39-32.91,1.23-12.93,1.69-25.8,7.56-37.59,4.88-9.81,11.83-20.5,21.49-26.19l19.62,23.55-8.63-31.39s34.53-14.13,70.63,3.13l66.71,37.68s-11.77,62.78-47.09,54.93-44.07-21.83-44.07-21.83L1228.44,326Z" style="fill:#272726"/><path d="M1214.57,346.69s91.57-25.37,104.91-35.57,92.61-47.09,203.27-21.19c0,0-72.21,0-106.74,43.95,0,0-58.07-8.64-109.09,5.49s-90.25,18.05-90.25,18.05Z" style="fill:#b8b8b8"/><path d="M1308.49,327.6s-28.25-1.57-29.82,7.06-2.35,12.56-2.35,12.56" style="fill:#171e1c"/><path d="M1277.08,328.48s6.3,5.4,5.52,15.6,2.35,26.68-4.71,28.25-20.41,3.93-25.12-1.57,4.71-13.34,4.71-23.54S1277.08,328.48,1277.08,328.48Z" style="fill:#e5e1b1"/><path d="M1241.79,358.21s-8.64,21.19-8.64,25.89-2.35,26.69-2.35,35.32-4.71,135.77-6.28,141.27c0,0,12.56-10.21,37.67,10.2,0,0,6.28,3.92,14.13-3.14s22.76-16.48,28.25-16.48-11-69.85-11-87.12c0-22.21-3.65-44.84-6.46-66.83-.86-6.68-1.88-13.34-2.54-20s-.35-13.17-.95-19.74c-.4-4.37-1.28-12.15-6.53-13.46-2.15-.54.79,14.13-4.71,18.05s-11,10.2-15.69,2.35,3.14-17.26,1.57-18.05S1241.79,358.21,1241.79,358.21Z" style="fill:#e7d8d9"/><path d="M1223.74,388.81s7.84-27.47,18-24.33c0,0,1.57-4.7,1.57-6.27s12.55-1.57,13.34-2.36-2.36-7.85-3.14-8.63-16.48-3.93-16.48-3.93-5.5,5.5-11,7.85-12.56,19.62-11.77,22S1223,385.67,1223.74,388.81Z" style="fill:#171e1c"/><path d="M1259.84,353.5s-25.12-3.93-40.81-28.26-15.7-45.51,1.57-50.22,41.59-14.92,51-8.64,12.56,55.72,7.85,62.79S1269.25,347.22,1259.84,353.5Z" style="fill:#fefcd4"/><path d="M1223,265.6s-23.54,12.56-22.76,39.24c0,0,2.36,9.42-3.92,21.19,0,0,3.92-.79,5.49-9.42,0,0,2.36,10.2,3.93,14.13a72.76,72.76,0,0,0,1.56-13.34s4.71,15.69,11,21.19c0,0-2.35-7.85-.78-8.64s-.79,0-.79,0,5.5,7.07,9.42,11c-1-1-1.77-3.46-2.42-4.85q-1.25-2.64-2.32-5.36a133.92,133.92,0,0,1-7.48-29.13c-.44-2.92-1.13-6.4-.34-9.32,0,0,3.14,22,4.71,24.33,0,0-1.57-31.39,1.57-35.32,0,0,3.93,18.84,5.5,21.19,0,0,0-16.48,1.56-20.4,0,0,5.5,22,15.7,27.47,0,0-4.71-16.48-1.57-22,0,0,3.14,12.56,6.28,14.91,0,0-1.57-14.12,0-16.48,0,0,6.28,6.28,6.28,11,0,0-3.14-24.33-1.57-26.68,0,0,14.13,14.12,16.48,29,0,0,.78-15.7,0-18.84,0,0,3.92,18.84,3.92,25.11,0,0,.79-12.55,0-19.62,0,0,5.5,12.56,7.85,19.62h0s5.5,16.48,2.36,22.76c0,0,5.49-7.06,4.7-13.34,0,0,3.14.79,3.14,7.06,0,0,1.57-11.77.79-14.12,0,0,4.71,8.63,4.71,13.34,0,0,3.92-15.7,2.35-18.05,0,0,2.36,6.28,3.93,8.63,0,0-7.07-30.61-14.92-36.88S1263,251.47,1223,265.6Z" style="fill:#937b50"/><path d="M1199.67,352.07s-8.11-12.7-.26-19.76,22.76,22,21.19,30.6-4.71,10.21-15.7-.78S1199.67,352.07,1199.67,352.07Z" style="fill:#baad7c"/><path d="M1147.61,368.41s51.8-14.91,53.37-17.27,10.2,7.07,7.06,11c0,0-47.09,18.05-54.15,20.4Z" style="fill:#4d413e"/><path d="M1125.63,376.26l22-7.85s6.28,6.28,6.28,14.12c0,0-22,7.07-24.33,7.07S1122.5,381,1125.63,376.26Z" style="fill:#baad7c"/><path d="M1277.1,344.08s28.26-17.27,31.39-16.48,4.71,4.71,3.93,12.56,6.28,11.77,8.63,12.55c0,0-2.35,3.93-1.57,4.71s-8.57,20.61-24.33,25.11h-.78S1283.38,345.65,1277.1,344.08Z" style="fill:#171e1c"/><path d="M1149.18,379.4s5.49-2.36,9.42,0a31,31,0,0,1,5.49,3.92l-5.49,7.06Z" style="fill:#181919"/><path d="M1158.56,379.15a8.08,8.08,0,0,0-3.52.73c-.91.56-1,1.44-1.21,2.43-.51,2.67.54,4.83,3.2,5.72,7.06,2.35,16.48,3.14,20.4-1.57s21.19-21.19,23.55-22c0,0-.79-3.14-7.07,0,0,0-1.57.79-1.57,0s-1.57-14.91-9.41-14.91-7.85,1.57-7.07,2.36-8.63,0-5.49,3.92c0,0-6.28-.78-3.93,2.36,0,0,6.28,3.92,6.28,11,0,2.07.28,5.58-2,6.63a38.08,38.08,0,0,1-7.83,2.67,34.59,34.59,0,0,1-4.18.65Z" style="fill:#fefcd4"/><path d="M1149.18,379.4s-10.2,25.11-11,27.46,8.63,21.19,12.56,22,30.61,0,33.75-7.85c0,0,2.35-31.39.78-33a8.62,8.62,0,0,0-7.06-3.14S1171.94,394.31,1149.18,379.4Z" style="fill:#090905"/><path d="M1209.61,414.71l22.76-18.83s-.79,157-7.85,176.58C1224.52,572.46,1206.47,425.7,1209.61,414.71Z" style="fill:#171e1c"/><path d="M1287.3,397.66s22,13.91,32.18,11.56c0,0-11.77,115.36-10.2,155.39C1309.28,564.61,1292,524.58,1287.3,397.66Z" style="fill:#171e1c"/><path d="M1113.05,307.29c-9-6-21.07-19.57-45.15-34.62s-24.08,12-58.69,13.55S947.5,250.1,947.5,250.1s-27.08,37.62-61.7,36.12-34.61-28.6-58.69-13.55S791,301.27,782,307.29s31.6,24.08,31.6,72.23S788,466.81,803,498.42s75.25,78.25,88.79,81.26,55.68,1.51,55.68,1.51,42.14,1.5,55.69-1.51S1076.93,530,1092,498.42s-10.53-70.74-10.53-118.9S1122.08,313.31,1113.05,307.29Z" style="fill:#73777a"/><path d="M1092.77,316.85l-21-19.39s-54.92,37.16-124.39-6.46C877.92,334.62,823,297.46,823,297.46l-21,19.39c37.15,4.84,21,155.07,21,155.07,1.62,45.23,51.69,69.46,67.85,74.31S947.38,585,947.38,585s40.39-33.92,56.54-38.77,66.23-29.08,67.85-74.31C1071.77,471.92,1055.62,321.69,1092.77,316.85Z" style="fill:#5e5f60"/><polygon points="473.45 579.68 1420.06 549.58 1356.85 828 526.12 809.94 473.45 579.68" style="fill:#fd7e47"/><text transform="translate(663.77 656.31)" style="font-size:52.67326736450195px;fill:#fff;font-family:BlackadderITC-Regular, Blackadder ITC"><tspan xml:space="preserve">Hoe slavernij tot stand kwam in het      </tspan><tspan x="-43.49" y="63.21">huidige New York door de Nederlanden</tspan></text><text transform="translate(885.72 356.8)" style="font-size:44px;fill:#fff;font-family:BlackadderITC-Regular, Blackadder ITC">Story of<tspan x="9.54" y="52.8">VOC </tspan><tspan x="36.91" y="105.6">and </tspan><tspan x="17.27" y="158.4">WiC</tspan></text></svg>