<svg id="Laag_1" data-name="Laag 1" xmlns="http://www.w3.org/2000/svg" viewBox="0 0 719 695"><defs><style>.cls-1{fill:#181919;}.cls-2{fill:#6b140d;}.cls-3{fill:#272726;}.cls-4{fill:#b8b8b8;}.cls-5{fill:#171e1c;}.cls-6{fill:#e5e1b1;}.cls-7{fill:#e7d8d9;}.cls-8{fill:#fefcd4;}.cls-9{fill:#937b50;}.cls-10{fill:#baad7c;}.cls-11{fill:#4d413e;}.cls-12{fill:#090905;}</style></defs><title>smallimages</title><path class="cls-1" d="M119.79,488.51C109.49,431-15,337.34,21.88,321s91-88.46,65.28-134.84-50.68-81.6-18-97.92,91-63.56,116-38.65,11.17,59.26,73.87,26.63,77.3-91,138.28-62.7,100.49,48.09,118.53,85,10.3,54.11,61,61,118.53-18,130.55,18.9S686.67,285,619.67,315,459.06,371.7,520,437s105.65,103.07,79,126.26-48.1,50.68-138.28,49S188.51,638,149,595.87,122.37,502.88,119.79,488.51Z"/><path class="cls-2" d="M239.27,388.35C237,388,212,400,202,415c0,0-53,37-58,62s0,25,0,37-6,18-6,27,1,36,5,43,32,13,40,5,32-42,38-46,12-32,15-33,17-10,17-10q-3.48,24.84-7.42,49.62c-1.92,12.06-3.89,24.13-6.2,36.13-1.68,8.76-3.13,18.09-8.9,25.24-5.38,6.67-13.29,12.29-19.73,17.94C200.1,638.27,189.21,649.67,177,657c-5,3,84,30,102,28s171,7,173-7c3-21,.47-43.68.38-64.81-.06-13.37-.11-26.75.3-40.12.5-16.45,5.19-32,6.4-48.45,1-13.28,1.62-28.65-2.08-41.62-4.44-15.54-9.32-31-14.76-46.19q-4.17-11.64-8.77-23.11c-2.43-6-4-14.4-8.6-19.21-2.23-2.35-6.94-3.21-9.91-3.94-7.73-1.91-17-3.69-25-2.55-7,1-28-14-40-19S239.27,388.35,239.27,388.35Z"/><path class="cls-3" d="M251,366s-52,9-76-27c0,0,2.7-3.57,2.84-3.8,8.13-12.88,6.78-27.51,8.14-41.94,1.56-16.47,2.16-32.88,9.63-47.89,6.22-12.5,15.08-26.13,27.39-33.37l25,30-11-40s44-18,90,4l85,48s-15,80-60,70-56.15-27.82-56.15-27.82L265,340Z"/><path class="cls-4" d="M247.32,366.33S364,334,381,321s118-60,259-27c0,0-92,0-136,56,0,0-74-11-139,7s-115,23-115,23Z"/><path class="cls-5" d="M367,342s-36-2-38,9-3,16-3,16"/><path class="cls-6" d="M327,343.12s8,6.88,7,19.88,3,34-6,36-26,5-32-2,6-17,6-30S327,343.12,327,343.12Z"/><path class="cls-7" d="M282,381s-11,27-11,33-3,34-3,45-6,173-8,180c0,0,16-13,48,13,0,0,8,5,18-4s29-21,36-21-14-89-14-111c0-28.31-4.65-57.14-8.24-85.17-1.09-8.5-2.39-17-3.23-25.52-.82-8.38-.44-16.79-1.21-25.16-.51-5.56-1.63-15.48-8.32-17.15-2.74-.69,1,18-6,23s-14,13-20,3,4-22,2-23S282,381,282,381Z"/><path class="cls-5" d="M259,420s10-35,23-31c0,0,2-6,2-8s16-2,17-3-3-10-4-11-21-5-21-5-7,7-14,10-16,25-15,28S258,416,259,420Z"/><path class="cls-8" d="M305,375s-32-5-52-36-20-58,2-64,53-19,65-11,16,71,10,80S317,367,305,375Z"/><path class="cls-9" d="M258,263s-30,16-29,50c0,0,3,12-5,27,0,0,5-1,7-12,0,0,3,13,5,18a92,92,0,0,0,2-17s6,20,14,27c0,0-3-10-1-11s-1,0-1,0,7,9,12,14c-1.33-1.33-2.25-4.41-3.08-6.18-1.05-2.25-2-4.52-3-6.83-4.65-11.68-7.64-24.63-9.53-37.12-.57-3.72-1.44-8.15-.43-11.87,0,0,4,28,6,31,0,0-2-40,2-45,0,0,5,24,7,27,0,0,0-21,2-26,0,0,7,28,20,35,0,0-6-21-2-28,0,0,4,16,8,19,0,0-2-18,0-21,0,0,8,8,8,14,0,0-4-31-2-34,0,0,18,18,21,37,0,0,1-20,0-24,0,0,5,24,5,32,0,0,1-16,0-25,0,0,7,16,10,25h0s7,21,3,29c0,0,7-9,6-17,0,0,4,1,4,9,0,0,2-15,1-18,0,0,6,11,6,17,0,0,5-20,3-23,0,0,3,8,5,11,0,0-9-39-19-47S309,245,258,263Z"/><path class="cls-10" d="M228.33,373.19S218,357,228,348s29,28,27,39-6,13-20-1S228.33,373.19,228.33,373.19Z"/><path class="cls-11" d="M162,394s66-19,68-22,13,9,9,14c0,0-60,23-69,26Z"/><path class="cls-10" d="M134,404l28-10s8,8,8,18c0,0-28,9-31,9S130,410,134,404Z"/><path class="cls-5" d="M327,363s36-22,40-21,6,6,5,16,8,15,11,16c0,0-3,5-2,6s-10.92,26.26-31,32h-1S335,365,327,363Z"/><path class="cls-1" d="M164,408s7-3,12,0a39.57,39.57,0,0,1,7,5l-7,9Z"/><path class="cls-8" d="M176,407.69c-1.5.13-3.18.12-4.49.93-1.16.71-1.31,1.83-1.55,3.09-.64,3.4.69,6.16,4.08,7.29,9,3,21,4,26-2s27-27,30-28c0,0-1-4-9,0,0,0-2,1-2,0s-2-19-12-19-10,2-9,3-11,0-7,5c0,0-8-1-5,3,0,0,8,5,8,14,0,2.64.35,7.11-2.55,8.45a49.58,49.58,0,0,1-10,3.4,45.41,45.41,0,0,1-5.33.82Z"/><path class="cls-12" d="M164,408s-13,32-14,35,11,27,16,28,39,0,43-10c0,0,3-40,1-42s-4-4-9-4C201,415,193,427,164,408Z"/><path class="cls-5" d="M241,453l29-24s-1,200-10,225C260,654,237,467,241,453Z"/><path class="cls-5" d="M340,431.27S368,449,381,446c0,0-15,147-13,198C368,644,346,593,340,431.27Z"/></svg>