<svg id="Laag_1" data-name="Laag 1" xmlns="http://www.w3.org/2000/svg" viewBox="0 0 1593 1433"><defs><style>.cls-1{fill:#705c57;}.cls-2{fill:#281d1c;}.cls-3{fill:#443632;}.cls-4{fill:#664f48;}.cls-5{fill:#785e54;}.cls-12,.cls-6{fill:#3a3a3a;}.cls-6{stroke:#1e1d1c;stroke-width:3px;}.cls-13,.cls-6{stroke-miterlimit:10;}.cls-7{fill:#1e1d1c;}.cls-8{fill:#738588;}.cls-9{fill:#332623;}.cls-10{fill:#a3a69e;}.cls-11{fill:#587279;}.cls-13{fill:none;stroke:#664f48;stroke-width:2.5px;}.cls-14{fill:#fff;}.cls-15{fill:#306261;}</style></defs><title>smallimages</title><path class="cls-1" d="M12.63,890.64c.83,23.81,4.22,45.19,10.94,62.92,49.63,131,146.58,68.42,271.09,245.65s872.42,240.53,1002.18,234.2,177.23-224.71,104.43-281.67c-49.4-38.67-1.12-148.77,60.72-261.1Z"/><path class="cls-2" d="M1391.78,285.53c-107.6-8.54-186.73-149.71-381-244.65S758.81,44,661.26,158s-35.37,60.13-287.88,72.79-260.8,222.08-260.8,222.08c-3.72,21.21-43.17,125.64-71.44,238.21H1568C1607,536.68,1489,293.24,1391.78,285.53Z"/><path class="cls-3" d="M1550,737a185.43,185.43,0,0,0,18-45.91H41.14C23.75,760.34,10.6,832.69,12.63,890.64H1462C1491.27,837.47,1523.59,783.79,1550,737Z"/><ellipse class="cls-3" cx="749.7" cy="718.73" rx="497.08" ry="296.9"/><path class="cls-3" d="M957.88,449H541.74C411.06,485.07,301.61,573.62,236.62,691.06v342H1259.08V684.12C1193.66,570.14,1086,484.35,957.88,449Z"/><path class="cls-2" d="M541.74,449H236.62V691.06C301.61,573.62,411.06,485.07,541.74,449Z"/><path class="cls-2" d="M957.88,449c128.09,35.35,235.78,128.08,301.2,242.06V449Z"/><path class="cls-4" d="M553.87,650.64a74.36,74.36,0,0,0-148.18,0h-.28V816.79H554.15V650.64Z"/><path class="cls-3" d="M521.88,717.83s-8.37,0-6.09,12.18c0,0,1.53,5.33,3.81,3.81,0,0,.76,3.81,2.28,3,1.53.76,2.29-3,2.29-3,2.28,1.52,3.8-3.81,3.8-3.81C530.26,717.83,521.88,717.83,521.88,717.83Z"/><g id="_3U9O8o.tif" data-name="3U9O8o.tif"><path class="cls-5" d="M518.73,722.14a2.91,2.91,0,0,0-1.68.84,6.83,6.83,0,0,1-2.08,1.39,3.76,3.76,0,0,1-2.72-.14A16,16,0,0,1,509,722.6a14.11,14.11,0,0,0-7.68-2.19,10.31,10.31,0,0,0-3.64.61,1,1,0,0,0-.63,1.47c.16.38.34.74.52,1.12a1,1,0,0,0,1.57.63,8.52,8.52,0,0,1,3.27-.62,12.35,12.35,0,0,1,5.38,1.42,18.2,18.2,0,0,0,5.31,1.84,6.54,6.54,0,0,0,1.65.1,5.88,5.88,0,0,1,3.15.51,2.76,2.76,0,0,0,3.94-2A2.89,2.89,0,0,0,518.73,722.14Z"/></g><rect class="cls-6" x="445.49" y="644.84" width="72.26" height="49.58"/><rect class="cls-7" x="462.45" y="644.84" width="2.37" height="49.03" transform="translate(927.27 1338.7) rotate(180)"/><rect class="cls-7" x="479.82" y="644.84" width="2.37" height="49.03" transform="translate(962 1338.7) rotate(180)"/><rect class="cls-7" x="496.89" y="645.39" width="2.37" height="49.03" transform="translate(996.15 1339.8) rotate(180)"/><rect class="cls-7" x="480.65" y="636.27" width="2.37" height="69.72" transform="translate(-189.3 1152.96) rotate(-90)"/><rect class="cls-7" x="480.56" y="649.68" width="2.37" height="69.72" transform="translate(-202.8 1166.27) rotate(-90)"/><rect class="cls-7" x="480.66" y="621.19" width="2.37" height="69.72" transform="translate(-174.21 1137.9) rotate(-90)"/><rect class="cls-1" x="659.65" y="649.24" width="86.51" height="59.42"/><rect class="cls-8" x="659.65" y="652.22" width="84.4" height="56.44"/><rect class="cls-1" x="231.87" y="890.64" width="1029.36" height="150.33"/><ellipse class="cls-3" cx="754.46" cy="922.68" rx="33.63" ry="13.05"/><ellipse class="cls-3" cx="679.03" cy="992.7" rx="33.63" ry="13.05"/><ellipse class="cls-3" cx="799.59" cy="982.74" rx="25.21" ry="6.09"/><rect class="cls-9" x="307.42" y="825.9" width="13.17" height="28.1" transform="translate(-525.95 1153.96) rotate(-90)"/><ellipse class="cls-3" cx="1093.27" cy="956.52" rx="29.05" ry="13.05"/><ellipse class="cls-2" cx="1189.21" cy="956.52" rx="29.05" ry="13.05"/><rect class="cls-1" x="408.69" y="814.68" width="199.79" height="25.37"/><rect class="cls-9" x="408.69" y="839.2" width="228.54" height="25.37"/><rect class="cls-2" x="393.8" y="864.57" width="260.25" height="26.07"/><ellipse class="cls-2" cx="1026.88" cy="935.74" rx="26.35" ry="13.05"/><ellipse class="cls-2" cx="941.37" cy="930.41" rx="23.95" ry="13.05"/><ellipse class="cls-3" cx="497.42" cy="940.59" rx="30.95" ry="10.18"/><ellipse class="cls-3" cx="342.43" cy="948.79" rx="30.95" ry="10.18"/><path class="cls-5" d="M355.69,915.16h48.16a87.52,87.52,0,0,0,4.84-9.21h-53Z"/><path class="cls-5" d="M419.45,842.64H355.69v42.21h60.08a149.7,149.7,0,0,0,3.88-34.3Q419.65,846.55,419.45,842.64Z"/><path class="cls-5" d="M416.91,821.54a118.07,118.07,0,0,0-8.44-26.9H355.69v26.9Z"/><path class="cls-10" d="M355.69,842.64h63.76a147.61,147.61,0,0,0-2.54-21.1H355.69Z"/><path class="cls-10" d="M355.69,906h53a115.28,115.28,0,0,0,7.08-21.1H355.69Z"/><path class="cls-9" d="M335.13,906a85.72,85.72,0,0,0,4.85,9.21h15.71V906Z"/><path class="cls-9" d="M324.18,850.55a150.27,150.27,0,0,0,3.87,34.3h27.64V842.64H324.37Q324.18,846.54,324.18,850.55Z"/><path class="cls-9" d="M326.91,821.54h28.78v-26.9H335.36A118.57,118.57,0,0,0,326.91,821.54Z"/><path class="cls-11" d="M326.91,821.54a149.06,149.06,0,0,0-2.54,21.1h31.32v-21.1Z"/><path class="cls-11" d="M335.13,906h20.56v-21.1H328.05A115.28,115.28,0,0,0,335.13,906Z"/><rect class="cls-2" x="695.94" y="695.34" width="9.1" height="22.55" transform="translate(133.81 -111.23) rotate(10.03)"/><rect class="cls-2" x="688.37" y="738.12" width="9.1" height="22.55" transform="translate(141.15 -109.25) rotate(10.03)"/><rect class="cls-2" x="680.81" y="780.89" width="9.1" height="22.55" transform="translate(148.48 -107.28) rotate(10.03)"/><path class="cls-2" d="M699.35,713.05c-6.56-1.16-13.13,5-14.67,13.67s2.53,16.72,9.09,17.88,13.13-5,14.67-13.67S705.91,714.21,699.35,713.05ZM695,737.77c-3.73-.65-6-5.2-5.16-10.14s4.6-8.42,8.33-7.76,6,5.2,5.15,10.15S698.7,738.43,695,737.77Z"/><path class="cls-2" d="M706.85,670.66c-6.56-1.16-13.13,5-14.67,13.68s2.53,16.71,9.09,17.87,13.13-5,14.67-13.67S713.41,671.82,706.85,670.66Zm-4.37,24.73c-3.73-.66-6-5.2-5.16-10.15s4.6-8.41,8.32-7.75,6,5.2,5.16,10.14S706.2,696.05,702.48,695.39Z"/><path class="cls-2" d="M691.85,755.43c-6.56-1.16-13.13,5-14.67,13.68s2.53,16.71,9.09,17.88,13.13-5,14.67-13.68S698.42,756.59,691.85,755.43Zm-4.37,24.73c-3.72-.66-6-5.2-5.16-10.14s4.6-8.42,8.33-7.76,6,5.2,5.15,10.14S691.2,780.82,687.48,780.16Z"/><rect class="cls-2" x="712.26" y="699.39" width="9.1" height="22.55" transform="translate(-146.5 187.63) rotate(-13.54)"/><rect class="cls-2" x="722.44" y="741.62" width="9.1" height="22.55" transform="translate(-156.1 191.19) rotate(-13.54)"/><rect class="cls-2" x="732.61" y="783.85" width="9.1" height="22.55" transform="translate(-165.71 194.75) rotate(-13.54)"/><path class="cls-2" d="M718.34,717c-6.48,1.56-10.05,9.8-8,18.4s9,14.31,15.49,12.75,10-9.8,8-18.4S724.82,715.45,718.34,717Zm5.88,24.41c-3.67.89-7.61-2.35-8.78-7.23s.85-9.56,4.52-10.44,7.61,2.35,8.79,7.23S727.9,740.54,724.22,741.42Z"/><path class="cls-2" d="M708.26,675.16c-6.48,1.56-10,9.8-8,18.4s9,14.32,15.49,12.76,10.05-9.8,8-18.41S714.74,673.6,708.26,675.16Zm5.88,24.42c-3.67.88-7.61-2.36-8.78-7.24s.85-9.55,4.52-10.44,7.61,2.35,8.79,7.24S717.82,698.69,714.14,699.58Z"/><path class="cls-2" d="M728.42,758.86c-6.48,1.56-10,9.8-8,18.4s9,14.31,15.49,12.75,10.05-9.8,8-18.4S734.9,757.3,728.42,758.86Zm5.88,24.41c-3.67.89-7.61-2.35-8.78-7.23s.85-9.56,4.53-10.45,7.6,2.36,8.78,7.24S738,782.39,734.3,783.27Z"/><path class="cls-8" d="M741.87,801.57a19.78,19.78,0,1,0,19.77,19.78A19.79,19.79,0,0,0,741.87,801.57Zm1.37,31.8c-4.38,0-7.93-5.91-7.93-13.19S738.86,807,743.24,807s7.93,5.9,7.93,13.18S747.62,833.37,743.24,833.37Z"/><path class="cls-8" d="M681,796.8a19.78,19.78,0,1,0,19.77,19.77A19.78,19.78,0,0,0,681,796.8Zm0,33c-4.38,0-7.94-5.9-7.94-13.18s3.56-13.18,7.94-13.18,7.93,5.9,7.93,13.18S685.42,829.75,681,829.75Z"/><rect class="cls-12" x="892.8" y="563.41" width="71.57" height="92.02"/><rect class="cls-13" x="892.8" y="563.41" width="71.57" height="92.02"/><rect class="cls-4" x="905.45" y="562.78" width="3.68" height="93.28" transform="translate(1814.59 1218.83) rotate(180)"/><rect class="cls-4" x="926.95" y="562.78" width="3.68" height="93.28" transform="translate(1857.58 1218.83) rotate(180)"/><rect class="cls-4" x="947.94" y="562.78" width="3.68" height="92.65" transform="translate(1899.56 1218.2) rotate(180)"/><rect class="cls-4" x="927.15" y="576.24" width="3.68" height="72.66" transform="translate(316.42 1541.56) rotate(-90)"/><rect class="cls-4" x="926.96" y="599.75" width="3.68" height="72.28" transform="translate(292.91 1564.69) rotate(-90)"/><rect class="cls-4" x="927.22" y="549.17" width="3.68" height="72.52" transform="translate(343.63 1514.49) rotate(-90)"/><polygon class="cls-2" points="1190.6 818.48 1190.6 905.51 1210.38 905.51 1216.91 818.48 1190.6 818.48"/><polygon class="cls-5" points="1216.91 818.48 1210.38 905.51 1219.88 905.51 1227.99 818.48 1216.91 818.48"/><polygon class="cls-2" points="975.81 823.62 975.81 910.65 995.59 910.65 999.13 823.62 975.81 823.62"/><polygon class="cls-5" points="999.13 823.62 995.59 910.65 1005.09 910.65 1010.21 823.62 999.13 823.62"/><rect class="cls-9" x="901.02" y="877.03" width="304.22" height="21.36"/><rect class="cls-14" x="901.02" y="855.67" width="304.22" height="21.36"/><polygon class="cls-2" points="1126.12 823.62 1126.12 910.65 1145.9 910.65 1148.87 823.62 1126.12 823.62"/><polygon class="cls-5" points="1148.87 823.62 1145.9 910.65 1155.4 910.65 1159.94 823.62 1148.87 823.62"/><rect class="cls-2" x="878.47" y="823.62" width="19.78" height="87.03"/><rect class="cls-5" x="898.25" y="823.62" width="9.49" height="87.03"/><rect class="cls-9" x="756.78" y="749.78" width="13.17" height="28.1" transform="translate(-0.46 1527.2) rotate(-90)"/><rect class="cls-9" x="777.03" y="759.45" width="13.17" height="28.1" transform="translate(10.11 1557.11) rotate(-90)"/><rect class="cls-9" x="1084.94" y="549.5" width="13.17" height="28.1" transform="translate(527.98 1655.07) rotate(-90)"/><rect class="cls-9" x="884.97" y="707.11" width="13.17" height="28.1" transform="translate(170.4 1612.71) rotate(-90)"/><rect class="cls-9" x="912.26" y="785.91" width="13.17" height="28.1" transform="translate(118.88 1718.81) rotate(-90)"/><rect class="cls-15" x="1113.04" y="755.25" width="13.17" height="28.1" transform="translate(350.33 1888.92) rotate(-90)"/><rect class="cls-9" x="1133.28" y="764.92" width="13.17" height="28.1" transform="translate(360.9 1918.83) rotate(-90)"/><rect class="cls-9" x="990.14" y="673.56" width="13.17" height="28.1" transform="translate(309.12 1684.33) rotate(-90)"/><rect class="cls-9" x="1065.27" y="722.08" width="13.17" height="28.1" transform="translate(335.72 1807.98) rotate(-90)"/><rect class="cls-9" x="561.51" y="535.62" width="13.17" height="28.1" transform="translate(18.44 1117.77) rotate(-90)"/><rect class="cls-9" x="789.58" y="583.75" width="13.17" height="28.1" transform="translate(198.37 1393.98) rotate(-90)"/><rect class="cls-9" x="666.69" y="502.07" width="13.17" height="28.1" transform="translate(157.16 1189.39) rotate(-90)"/><rect class="cls-9" x="741.81" y="550.59" width="13.17" height="28.1" transform="translate(183.76 1313.04) rotate(-90)"/><rect class="cls-9" x="288.07" y="634.71" width="13.17" height="28.1" transform="translate(-354.1 943.42) rotate(-90)"/><rect class="cls-9" x="279.08" y="751.4" width="13.17" height="28.1" transform="translate(-479.78 1051.12) rotate(-90)"/><rect class="cls-9" x="302.12" y="738.84" width="13.17" height="28.1" transform="translate(-444.19 1061.6) rotate(-90)"/><ellipse class="cls-3" cx="1126.12" cy="1258.94" rx="33.63" ry="13.05"/><ellipse class="cls-3" cx="783.61" cy="1211.44" rx="25.21" ry="6.09"/><ellipse class="cls-2" cx="1210.48" cy="1164.44" rx="26.35" ry="13.05"/><ellipse class="cls-2" cx="957.98" cy="1287.42" rx="23.95" ry="13.05"/><ellipse class="cls-3" cx="528.37" cy="1062.47" rx="30.95" ry="10.18"/><ellipse class="cls-3" cx="405.41" cy="1134.63" rx="30.95" ry="10.18"/><ellipse class="cls-3" cx="1085.9" cy="1085.93" rx="29.05" ry="13.05"/><ellipse class="cls-2" cx="918.85" cy="1127.87" rx="29.05" ry="13.05"/><ellipse class="cls-2" cx="515.4" cy="1168.78" rx="26.35" ry="13.05"/><ellipse class="cls-2" cx="951.62" cy="1065.22" rx="29.05" ry="13.05"/><ellipse class="cls-3" cx="796.17" cy="1085.93" rx="33.63" ry="13.05"/><ellipse class="cls-3" cx="1000.53" cy="1209.95" rx="25.21" ry="6.09"/></svg>