<svg id="Laag_1" data-name="Laag 1" xmlns="http://www.w3.org/2000/svg" viewBox="0 0 1424 1292"><defs><style>.cls-1{fill:#181919;}.cls-2{fill:#b78c61;}.cls-3{fill:#8ca997;opacity:0.7;}.cls-4{fill:#862826;}.cls-5{fill:#dee0df;opacity:0.96;}.cls-6{fill:#444c61;}.cls-7{fill:#343746;}.cls-8{fill:#39414e;}.cls-9{fill:#242a38;}.cls-10{fill:#435061;}.cls-11{fill:#2e323d;}.cls-12{fill:#232937;}.cls-13{fill:#393d49;}.cls-14{fill:#717f17;}.cls-15{fill:#7bb942;}.cls-16{fill:#da9d4f;}.cls-17{fill:#6baa35;}.cls-18{fill:#538631;}.cls-19{fill:#f8f7ed;}.cls-20{fill:#b27647;}.cls-21{fill:#966138;}.cls-22{fill:#fbe560;}.cls-23{fill:#57392b;}.cls-24{fill:#b2260b;}.cls-25{fill:#c83114;}</style></defs><title>spice</title><path class="cls-1" d="M1238.48,275.81c-95-7.54-164.89-132.2-336.45-216s-222.5,2.79-308.64,103.4-31.24,53.1-254.22,64.28S108.86,423.56,108.86,423.56c-3.28,18.74-38.12,111-63.07,210.36C30.43,695.09,18.81,759,20.6,810.16c.74,21,3.73,39.91,9.66,55.56,43.83,115.65,129.45,60.42,239.39,216.93s770.4,212.4,885,206.81,156.5-198.43,92.22-248.74c-43.62-34.14-1-131.37,53.62-230.56,25.86-47,54.39-94.35,77.74-135.7a163.66,163.66,0,0,0,15.88-40.54C1428.49,497.59,1324.36,282.62,1238.48,275.81Z"/><path class="cls-2" d="M284,643.65s76.67,43.13,95.83,43.13S423,643.65,423,634.07,351.08,567,336.71,567,284,614.9,284,643.65Z"/><path class="cls-3" d="M461.29,662.82c3.22-9.66,30.23-17.15,47.61-21-23.46-14.54-46-26.89-52.4-26.89-14.37,0-47.92,4.79-57.5-19.16s-14.37,4.79-14.37,4.79L341.5,667.61s-9.58,9.58-4.79,19.17S375,682,379.83,705.94c3.88,19.38,4.64,32.49,27.58,49.46C416.25,744,423,728.62,423,715.53,423,696.36,456.5,677.19,461.29,662.82Z"/><path class="cls-4" d="M509.21,797c14.37-4.8,43.12-38.34,47.92-52.71s19.16-47.92,14.37-57.5c-2.66-5.32-33.35-26.86-62.6-45-17.38,3.88-44.39,11.37-47.61,21C456.5,677.19,423,696.36,423,715.53c0,13.09-6.71,28.42-15.55,39.87a187.33,187.33,0,0,0,20.34,12.84C470.88,792.19,494.83,801.78,509.21,797Z"/><path class="cls-5" d="M475.67,653.24S518.79,672.4,518.79,682s-43.12,81.45-52.71,86.25-47.91-28.75-47.91-33.55S466.08,653.24,475.67,653.24Z"/><circle class="cls-6" cx="662.54" cy="653.24" r="23.96"/><circle class="cls-7" cx="664.94" cy="612.51" r="16.77"/><circle class="cls-6" cx="705.67" cy="586.15" r="14.38"/><circle class="cls-8" cx="698.48" cy="641.26" r="21.56"/><circle class="cls-9" cx="755.98" cy="641.26" r="21.56"/><circle class="cls-10" cx="815.88" cy="619.69" r="19.17"/><circle class="cls-11" cx="837.44" cy="593.34" r="21.56"/><circle class="cls-12" cx="748.79" cy="552.61" r="19.17"/><circle class="cls-6" cx="815.88" cy="566.99" r="19.17"/><circle class="cls-6" cx="734.42" cy="600.53" r="19.17"/><circle class="cls-13" cx="734.42" cy="576.57" r="23.96"/><path class="cls-14" d="M1223.25,792a.65.65,0,0,0-.38.67c-5.43,4.78-9.58,10.74-14.87,15.73-4.93,4.66-11.07,7.73-15.47,12.91l-.21.12-3.41,2.48,0,0c-3.49.55-5.59,3.8-9,4.59-.49-3.07-5.58-3.91-4.38-7.13,1-2.58,3.89-4.42,5.94-6.59.23-.24.47-.48.71-.71,1.21-1.11,2-2.2.43-3.72s-2.9-1.56-4.3,0a48.56,48.56,0,0,1-4.3,4.83c-1.39,1.16-2.51,3.91-5.23,1.35-2.41-2.27-2.15-4.37-.24-6.47,1.55-1.71,3.45-3.1,5.16-4.67,1.33-1.23,3.19-2.51,1.18-4.47-1.67-1.63-3.37-.82-4.81.62-2.7,2.69-5.48,5.32-8,8.14s-2.71,5.39.29,8.22c4.46,4.22,8.64,8.73,12.94,13.12-1.27,2-3.33,2.6-5.39,3.25-2.66-2-4.86-3.87-6.37-7.32-2.88-6.61-9.76-10.76-16.28-2.64a43.08,43.08,0,0,1-3.16,3.18c-5,5.07-5,5-.12,10,1.9,2,4.65,3.36,5.12,6.5a8.05,8.05,0,0,1-4.17,1.37c-2-2.17-3.24-5.12-6.22-6.1-5.67-1.85-17,7.54-16.63,13.69-6.22,2.24-12.74,3.21-19.19,4.49-1.7.34-4.4-.15-4.57,2.71-.32,5.49-3,10.42-3.58,15.83a.69.69,0,0,0-.38.82q-2.76,4.16-5.5,8.33c-3.78-6.62-7.9-13.07-11.19-19.92-1.57-3.27-3.23-4.74-6.7-4.13A109.8,109.8,0,0,1,1042.8,858a27.58,27.58,0,0,1,2.91-1.81c16.37-7.53,32.88-14.78,49.11-22.6,28.28-13.61,56.39-27.6,85.5-39.41q6-2.43,12-5c.92-.38,2.08-1,1.43-2.16s-1.65-.11-2.51.25c-15.76,6.61-31.6,13-47.29,19.81-15.4,6.66-30.64,13.68-46,20.51-11.7,5.2-23,11.31-35.27,15.17-7.56,2.38-14.55,6.61-22.66,7.23-.26-1.41.41-2.48,1-3.72,3.47-7.31,9.19-13,14-19.23,1.32-1.3.83-2.59.21-4.08-4.81-11.51-11.51-22-17-33.21-5.68-11.62-12-23-18-34.42l-12.39-23.58a3,3,0,0,0-3.16-1.94c-2.71-2.34-.55-5.82-3.26-9.31a58.37,58.37,0,0,0,6.34,2.76c2,.59,3.52,3.24,6.1,1.58a13,13,0,0,1,6,1.83c9,4.67,16.48,11.5,24.33,17.77l.13.19,18.59,21.42c-.19,11.79.29,23.48,4,34.83,2.87,8.71,4.08,9.19,10.83,3.64,1.15-.94,2.56-1.59,3.6-2.63,5.54-5.53,13.09-8.36,18.6-13.91a17,17,0,0,0,2.77-1A229.58,229.58,0,0,1,1153,764.91a193.2,193.2,0,0,1,33-5.12l7.08,0c12.71.62,25,2.93,36.52,8.68l0-.05,1.31.78,0,0c2.43,1.5,3.77,2.91,1.56,6-2,2.88-3.14,6.42-4.66,9.67l0,0C1226.29,787.21,1224.77,789.62,1223.25,792Z"/><path class="cls-15" d="M843.58,728.51c9.86-15,22-28.3,34.92-40.71,2.86-2.75,32.5-28.32,30.92-30.46.85,1.16.25,2.49.4,3.73l-.12,1.1a16.7,16.7,0,0,0-.66,2.37c-1.65,12.1-.39,24.27-.67,36.4a78,78,0,0,1-4.58,25.83c-5.75,15.37-13.23,30.12-16.74,46.29a16.07,16.07,0,0,1-1.45,3.65c-7.18,10.14-15.8,19-24.53,27.81-5.89,5.93-11.77,11.84-15.88,19.43-2.13,3.92-1.65,9-5.54,12-2.18,1.68-2.84,4-2.93,6.55-3.32-.24-2.89-5.12-5.82-5.16-4-.06-5.71-2.46-7.24-5.43,0-11.83,2.54-23.42,3.41-35.16,1.11-14.93,2-30,5.66-44.57A77.71,77.71,0,0,1,843.58,728.51Z"/><path class="cls-16" d="M1100.12,788c-5.51,5.55-13.06,8.38-18.6,13.91-1,1-2.45,1.69-3.6,2.63-6.75,5.55-8,5.07-10.83-3.64-3.75-11.35-4.23-23-4-34.83a6.94,6.94,0,0,0,.71-1.82,205.52,205.52,0,0,1,19-69.77,130.19,130.19,0,0,1,21.41-32.2c4.86-5.31,10.72-9.39,15.9-14.27a2.42,2.42,0,0,1,1,.27c-.39,5.6-.34,11.29-1.27,16.8-2.33,13.86-5.27,27.62-7.66,41.48q-4.68,27.13-8.84,54.36C1101.87,769.93,1099.92,778.86,1100.12,788Z"/><path class="cls-17" d="M1100.12,788c-.2-9.17,1.75-18.1,3.1-27.08q4.13-27.23,8.84-54.36c2.39-13.86,5.33-27.62,7.66-41.48.93-5.51.88-11.2,1.27-16.8l1.92-.27q2,2.51,4.07,5c.49,1.1.63,2.4,1.88,3,1.39,2.87,2.73,5.76,5,8.08h0c5.42,9.52,8.94,19.89,13.4,29.85l.81,2c2.84,13.11,6,26.14,6.38,39.67.29,9.81-.61,19.52-1.42,29.25A229.58,229.58,0,0,0,1102.89,787,17,17,0,0,1,1100.12,788Z"/><path class="cls-18" d="M953,728.24l2.11-.25c.13.5.26,1,.38,1.49-.18.87-.37,1.73-.55,2.59-4.12,7.92-6.31,16.51-8.73,25-.13.51-.27,1-.4,1.52q-2.82,7.75-5.65,15.5a5.22,5.22,0,0,0-1.36,3.36c-5.35,6.91-10.8,13.76-14.73,21.64l-.81,2a1.31,1.31,0,0,0-.48.85q-1,2.32-1.9,4.64-1.79,4.54-3.56,9.08c-.41,1.15-.82,2.3-1.22,3.46-4.79,8.11-8.07,17.18-15,23.93l0,0-9.38,7.32-.28.15c-6.46,4.41-13.57,7.67-20.38,11.47h0L849,873.43c-5.07.42-9.38-2.21-14-3.44,11.84-15,25.56-28.2,38.58-42.08a230.9,230.9,0,0,0,30-38.88c6.48-10.78,13-21.59,20.22-31.85a100.18,100.18,0,0,1,15.6-17.9C943.76,735.45,948.41,731.91,953,728.24Z"/><path class="cls-15" d="M1014,724.89c-2.58,1.66-4.09-1-6.1-1.58a58.37,58.37,0,0,1-6.34-2.76c2.71,3.49.55,7,3.27,9.31-.09.65-.47,1.45-.23,1.92,3.24,6.36,6.56,12.67,9.87,19,6.08,11.62,12.29,23.17,18.22,34.86,6.68,13.17,13.11,26.46,19.63,39.7a3.08,3.08,0,0,0,2.79,1.77c-4.85,6.28-10.57,11.92-14,19.23-.58,1.24-1.25,2.31-1,3.72v0l-1,1-11.24,4.06c-1.61-2-3.21-3.91-4.82-5.87L1022,848a2.18,2.18,0,0,0-1.92-2.13l0,0c-1-5.43-5.07-9.25-7.18-14.11-5.38-12.34-10.45-24.79-14.14-37.75a2.09,2.09,0,0,0-.72-2.08c-2.44-13.89-4.86-27.79-5.16-42,0-.64.11-1.29.16-1.94,1.94-10,2.79-20.24,6.29-29.91l1.48.15C1005.35,720.28,1010.64,720.63,1014,724.89Z"/><path class="cls-17" d="M953,728.24c-4.54,3.67-9.19,7.21-13.57,11a100.18,100.18,0,0,0-15.6,17.9C916.54,767.44,910,778.25,903.56,789a230.9,230.9,0,0,1-30,38.88C860.57,841.79,846.85,855,835,870l-4.2-.84c.29-4.93,5.44-6.9,6.8-11.17a9,9,0,0,0,3-6.92c.57-3.7-4.05-5.07-3.88-8.59.1-2.58.76-4.87,2.94-6.55,3.89-3,3.41-8,5.54-12,4.11-7.59,10-13.5,15.88-19.43,8.73-8.8,17.35-17.67,24.53-27.81a16.07,16.07,0,0,0,1.45-3.65c7.3-10.2,14.53-20.43,24.64-28.24,2.08-1.61,4.41-2.86,6.35-4.64,4.13-2.36,8.76-3.81,12.51-6.87l.28.06.18-.22,22.08-5.48A1,1,0,0,1,953,728.24Z"/><path class="cls-19" d="M609.57,493.37c-.6-1.75-2.08-1.78-3.57-1.67s-2.86.54-2.59,2.17,2,2.07,3.49,1.79C608.09,495.44,609.56,495.22,609.57,493.37Zm-10.35,10.47c0-1.85-1.24-2.27-2.63-2.29s-2.68.54-2.67,2.19,1.1,2.3,2.61,2.32A2.53,2.53,0,0,0,599.22,503.84Z"/><path class="cls-20" d="M840.59,851.06a9,9,0,0,1-3,6.92c-12.4,1.78-24.68,3.73-37.38,3.32-17.07-.56-33.43-4.16-49.78-8.45-5.25-1.37-10.73-1.91-16.12-2.73-1.06-.16-2.48-.36-3,1s.57,2.11,1.3,3c2.08,2.56,5.2,4.2,6.49,7.45-1.46,1.64-2.73.33-4.05-.25-5.8-7-11.76-13.83-22.13-13.22,4-3.11,2.83-7.57,3.06-11.67l2.72.78c7.24,4.1,10.83,3.17,15.47-4h0l1.87-1.38c2.94-.48,5.32-2.46,8.36-2.85a114.8,114.8,0,0,1,45.81,3.21c12.75,3.53,25.84,5.79,37.67,12.4C831.93,846.92,835.69,850.25,840.59,851.06Z"/><path class="cls-16" d="M681.16,879.48c2.09-.93,3.5-3.24,6.15-3,5.43-.12,10.87-.18,16.31-.37,17.75-.62,34.85,3.16,51.81,7.77,2,.55,4.84.28,5.57,3.25a11,11,0,0,1-.42,1.93c-3.78,9.26-2.06,11.89,7.9,12.09l1.5,0a43.4,43.4,0,0,1,8.23,13,138.15,138.15,0,0,1-52.71-8.33c-8.21-2.93-16.37-5.84-24.16-10-6-3.27-13-6-20.4-3.76a12.47,12.47,0,0,0-10.1.61c-2.16,1-4.6,1.26-6.36-.94s-1.57-4.6-.51-7.06,3.09-2.81,5.38-2.49A15.53,15.53,0,0,0,681.16,879.48ZM670,887.83c0-1.4-.24-2.73-2.06-2.75-1.49,0-2.7.68-2.64,2.27a2.62,2.62,0,0,0,2.29,2.79C669.28,890.33,670.07,889.48,670,887.83Z"/><path class="cls-21" d="M778.21,914.13a43.4,43.4,0,0,0-8.23-13c2.79.69,5.16-2.48,7.31-1.72,10.68,3.79,21.23,8,31.71,12.28,9.67,4,19.81,6.45,29.82,9.25,10.62,3,21.74,2.89,32.62,2,7.13-.6,14.89-.4,20.85-5.83-.5,1.61-1,3.22-1.49,4.83l0,0c-3.55,1.16-5.56,4.3-8.32,6.48a2.65,2.65,0,0,0-.3.06c-6.9,4.4-14.52,7-22.36,9.16l-1.84.53c-5.75.63-11.49,1.34-17.25,1.88-6.68.62-13.13-1.57-19.76-1.79a78.33,78.33,0,0,1-34-14.56C783.55,921,780.89,917.53,778.21,914.13Z"/><path class="cls-20" d="M778.21,914.13c2.68,3.4,5.34,6.84,8.81,9.51-13.41,5.59-27.24,8.71-41.87,7.05-12.42-1.41-24.22-6.46-34.47-13.5-9.77-6.7-17.6-15.79-27.39-22.47l-1-.68-1.35-2c7.43-2.26,14.36.49,20.4,3.76,7.79,4.21,15.95,7.12,24.16,10A138.15,138.15,0,0,0,778.21,914.13Z"/><path class="cls-16" d="M830.81,869.15l4.2.84c5.52,1.46,11.64,3.08,16.72,5.64,15.48,7.81,37.63,15.86,42.9,34.47-1.94-.41-4-.46-5.79-1.29-14.61-6.91-29.15-13.91-44.33-19.58-13.45-5-27-8.78-41.47-9.26-7.21-.24-14.09,1.84-21.2,1.8.39-1.2.79-2.4,1.18-3.6a9.08,9.08,0,0,0,4.85-2.35c3.44-3,7.49-4.61,11.88-5.88C810.09,867,820.43,868.14,830.81,869.15Z"/><path class="cls-22" d="M783,878.17c-.39,1.2-.79,2.4-1.18,3.6-4.76,4.51-9.45,9.32-16.58,4l-.29.37-1.86.5-2.11.45c-.73-3-3.55-2.7-5.57-3.25-17-4.61-34.06-8.39-51.81-7.77-5.44.19-10.88.25-16.31.37-.27,0,.7-2,.85-2.14a6.14,6.14,0,0,1,2.23-1.32c10.31-5,21.93-9,33.49-10.23,3.51-.38,8,.53,11.16-1.4,1.32.58,2.59,1.89,4.05.25,1.55.47,2.91,1.27,4.58,1.62C757.58,866.09,771.18,869.85,783,878.17Z"/><path class="cls-16" d="M840.59,851.06c-4.9-.81-8.66-4.14-12.75-6.43-11.83-6.61-24.92-8.87-37.67-12.4A114.8,114.8,0,0,0,744.36,829c-3,.39-5.42,2.37-8.36,2.85.84-3.14,3.49-4.67,5.83-6.47,10.89-8.35,23.44-8.69,36.13-6.84A182,182,0,0,1,819,830a1.18,1.18,0,0,0,.94.24c.9,1.29,2,2.17,3.7,1.67,1.53,3,3.22,5.37,7.24,5.43,2.93,0,2.5,4.92,5.82,5.16C836.54,846,841.16,847.36,840.59,851.06Z"/><path class="cls-15" d="M1080.12,887.21l-4.93-1.43-.06,0c-9-4.35-18.62-7.41-27-13l-2-1c-3.47-3.51-8.17-5.52-11.31-9.43,1.79-3.07,5.27-3,8-4.37a109.92,109.92,0,0,0,28.22,3.07c2,7.49,5.83,14.26,8.82,21.36C1080.47,884,1082.3,885.49,1080.12,887.21Z"/><path class="cls-23" d="M705.14,968.11c-.18-1.67-.35-3.33-.53-5,.06-.67.11-1.34.17-2s.16-1.33.23-2c2.25-4.36,6-5.63,10.62-5.33,2.12.13,4.25.11,6.37.15l9,1.21c3.69,2.68,4.73,6,1.75,9-5.39,5.44-10.31,11.85-18.76,13l-.47-.15H713c-.44-.83-1.25-.81-2-.9l-3.49-3.19Q706.32,970.51,705.14,968.11Z"/><path class="cls-23" d="M734.08,973.12a1.26,1.26,0,0,0,.43-.86,9.35,9.35,0,0,1,3.49-4.15c4.67-1,9.3-2.34,14-3,6-.78,8.54,3,6.36,8.64-1.68,4.36-5.36,7-8.5,10.08l-5,2.77c-2.28-.41-4.36,2.51-6.74.41C733.72,983.29,733.9,978.2,734.08,973.12Z"/><path class="cls-23" d="M745,954.35l-5-.17a10.32,10.32,0,0,1-5-5.07,23.54,23.54,0,0,1,.09-4.45c1.64-7.91,7.13-10.54,12.33-7.13,2.58,1.69,5.68,2.61,8.56,3.82,4.73,2,5.24,5.75,1.13,9-3.23,2.56-7.37,2.7-11.12,3.89Z"/><path class="cls-23" d="M788.78,962.93a85.22,85.22,0,0,1-8.84-.91c-3.05-.66-6.53-1.39-6.69-5.45s1.66-7.56,5.6-9.17c6.52-2.67,17,2.57,19.36,9.29,1,2.75-.24,4.3-2.48,5A47,47,0,0,1,788.78,962.93Z"/><path class="cls-14" d="M1160,839.9c-4.1.1-7.08,3.18-10.86,4.09-.47-3.14-3.22-4.53-5.12-6.5-4.85-5-4.92-5,.12-10a43.08,43.08,0,0,0,3.16-3.18c6.52-8.12,13.4-4,16.28,2.64,1.51,3.45,3.71,5.35,6.37,7.32-2.53,2-6,2.41-8.23,4.87Zm-.92-9.51c-1.17-2.44-2.6-4.89-5.41-4.3s-5.51,2.86-5.6,6c-.06,2.56,2.19,5.11,4.7,4.58C1155.73,836.08,1157.81,833.37,1159.08,830.39Z"/><path class="cls-23" d="M702.84,945.41l-1.75.18c-2.16-.41-4.4-.64-5.92-2.54q-.64-5-1.27-9.94c0-2,1.51-3.86.64-6l0,0,6.45-.25,1,.17c3.9,2.1,8,3.87,11.63,6.41,2.81,2,1.51,5.76-2.93,10Z"/><path class="cls-16" d="M712.91,848.13c-4.24.65-6.7-1-6.79-5.44-.09-4.75,3-7.33,8.83-7.46l1,1.23C715.74,840.56,716.88,845,712.91,848.13Zm-4-6.08c.11,1.71.9,3.07,2.38,2.68,2-.51,2.47-2.49,2.53-4.36,0-1-.62-2.08-1.78-1.9A3.45,3.45,0,0,0,708.89,842.05Z"/><path class="cls-20" d="M734.16,833.24c-4.64,7.17-8.23,8.1-15.47,4C724.75,839.41,729.27,835.59,734.16,833.24Z"/><path class="cls-21" d="M430,491a4.35,4.35,0,0,1-1,3.83l-1.95,0-.85-.85c-.43-.9-1.82-1.75-.54-2.81A3.45,3.45,0,0,1,430,491Z"/><path class="cls-21" d="M445.14,491.49c-1.09-.78-1.79-1.62-.23-2.6a2.89,2.89,0,0,1,3.67.18c1.31,1.24-.21,1.95-.83,2.79Z"/><path class="cls-14" d="M1230.92,769.17l-1.31-.78A1.07,1.07,0,0,1,1230.92,769.17Z"/><path class="cls-16" d="M1034.78,862.38c-4.77-1.3-7.66,3.1-11.8,4-2.77.58-4.11-.44-5.22-2.36a3.77,3.77,0,0,1,1.37-5.55c1.1-.69,2.46-.93,3.63-1.52,1.6-.8,3.63-.38,5-1.82L1039,851l1-1v0c8.11-.62,15.1-4.85,22.66-7.23,12.22-3.86,23.57-10,35.27-15.17,15.32-6.83,30.56-13.85,46-20.51,15.69-6.78,31.53-13.2,47.29-19.81.86-.36,1.79-1.5,2.51-.25s-.51,1.78-1.43,2.16q-6,2.53-12,5c-29.11,11.81-57.22,25.8-85.5,39.41-16.23,7.82-32.74,15.07-49.11,22.6a27.58,27.58,0,0,0-2.91,1.81C1040.05,859.33,1036.57,859.31,1034.78,862.38Z"/><path class="cls-22" d="M1080.12,887.21c2.18-1.72.35-3.24-.29-4.77-3-7.1-6.79-13.87-8.82-21.36,3.47-.61,5.13.86,6.7,4.13,3.29,6.85,7.41,13.3,11.19,19.92,1.34,5.4,5.87,9,8,14,1.57,3.72,1.3,6.26-2.14,7.8s-4.44-1.55-5.5-4c-1.73-3.92-3.74-7.76-5-11.82C1083.5,888.8,1081.4,888.6,1080.12,887.21Z"/><path class="cls-16" d="M1055.06,827.09a3.08,3.08,0,0,1-2.79-1.77c-6.52-13.24-13-26.53-19.63-39.7-5.93-11.69-12.14-23.24-18.22-34.86-3.31-6.31-6.63-12.62-9.87-19-.24-.47.14-1.27.23-1.92a3,3,0,0,1,3.15,1.94l12.39,23.58c6,11.46,12.29,22.8,18,34.42,5.47,11.17,12.17,21.7,17,33.21C1055.89,824.5,1056.38,825.79,1055.06,827.09Z"/><path class="cls-14" d="M1180,828.5l-4.65,2.5c-4.3-4.39-8.48-8.9-12.94-13.12-3-2.83-2.77-5.5-.29-8.22s5.34-5.45,8-8.14c1.44-1.44,3.14-2.25,4.81-.62,2,2,.15,3.24-1.18,4.47-1.71,1.57-3.61,3-5.16,4.67-1.91,2.1-2.17,4.2.24,6.47,2.72,2.56,3.84-.19,5.23-1.35a48.56,48.56,0,0,0,4.3-4.83c1.4-1.54,2.8-1.39,4.3,0s.78,2.61-.43,3.72c-.24.23-.48.47-.71.71-2,2.17-5,4-5.94,6.59C1174.41,824.59,1179.5,825.43,1180,828.5Z"/><path class="cls-14" d="M1127,850.85a11.06,11.06,0,0,1-4.87,2.1c-.33-6.15,11-15.54,16.63-13.69,3,1,4.27,3.93,6.22,6.1l-6.9,2.54c-.2-2-1.38-3.2-3.32-2.84a5.38,5.38,0,0,0-4.7,5v0A3.28,3.28,0,0,0,1127,850.85Z"/><path class="cls-24" d="M551.07,502.78c-1.71-1.12-4.14-1.76-3.56-4.57a3.53,3.53,0,0,1,2.85-3.06c2.43-.4,5-.92,7,1.05,2.58,2.58,1,5-4.4,6.78Z"/><path class="cls-24" d="M537,509c2.49-3.09,5.62-2.48,8.8-1.52a.41.41,0,0,0,.36.51c-.35,4.68-1.89,5.44-8.13,4C537.66,511,537.31,510,537,509Z"/><path class="cls-21" d="M571,495c-.3.14-.58.29-.89.41-2.61,1-5.29,1.82-7.49-.69a2,2,0,0,1,.52-3c2.9-1.16,6-1.94,8.23,1.37C571.23,493.66,571.1,494.31,571,495Z"/><path class="cls-21" d="M475,501c2-.12,4-.46,5.72,1,.06,3.88-2.71,3.64-5.07,3.08C472.92,504.43,473.73,502.63,475,501Z"/><path class="cls-21" d="M578.94,502.82c-2.21.1-4.15-.26-4.81-2.81a.43.43,0,0,0,.12-.6c2.33-1.19,4.61-2,6.54.67a.8.8,0,0,0,.1.72l-.71,1.21Z"/><path class="cls-21" d="M519.17,506.44c-1.13-1.21-1.82-2.44,0-3.69a2.6,2.6,0,0,1,3.6.33c1.48,1.52.23,2.67-.78,3.78Z"/><path class="cls-21" d="M487,508.71c.48,1.49.79,3-1.05,3.77a2.3,2.3,0,0,1-2.71-.68c-1.18-1.49-.21-2.76.76-3.94a2,2,0,0,0,.91-.21l1.41.35C486.55,508.24,486.78,508.48,487,508.71Z"/><path class="cls-21" d="M564.48,506l.76-1.51,1.75-.72,1,.07a1.05,1.05,0,0,0,.8.24l1.06,1.38C568.44,509.3,566.69,510,564.48,506Z"/><path class="cls-25" d="M383.86,473c-8.74-7.5-9.89-16.71-6.14-27,2.61-5.76,7.91-9.3,11.87-13.92a279.73,279.73,0,0,0,34.49-51.55c6.56-12.43,12.22-25.37,18.65-37.9a8.06,8.06,0,0,0,.35-2.45c4.64-2.26,5.53-7.26,8.07-11.06l-.07,0a1.08,1.08,0,0,0,1-1.14c4.64-4.95,9.1-10.05,14.59-14.19,14-10.55,33.1-10.09,47.35.17,15.4,11.08,24.87,26.57,33.76,42.58,8.48,15.26,15,31.48,22.65,47.17a176.71,176.71,0,0,0,26.51,40.32c1.08,1.22,2,2.63,2.92,3.95-2,2.33-3.57,3-7,1.55-6-2.5-9.35-7.39-13-12-9.58-12.26-15.06-26.8-21.56-40.71-3.21-6.88-6.16-14.05-10.95-19.68-11.43-13.44-19.56-28.86-28.38-43.89-1.52-2.59-2.79-5.44-5.5-6.9-1.27-.69-2.56-3.52-4.48-1-1.53,2-1.21,4,.63,5.82a14.6,14.6,0,0,1,3.58,4.69c4.38,10.35,7.21,21.21,11,31.76,2.11,5.93,3.74,12.68,8.38,16.76,7.25,6.36,8.34,15.21,11.12,23.19,3.16,9.07,3.91,18.95,6.77,28.15,1,3.28,1.11,6.72,2.56,9.93,4,8.89,5.19,18.42,4.93,28.09-.09,3.48-5.47,6.87-7.59,5-4.05-3.65-8.65-3.1-13.2-2.12-3.37.73-6.18.36-8.91-1.73a23.37,23.37,0,0,0-4.69-2.78c-6.35-2.77-10.3-7.3-11.66-14.24a48.36,48.36,0,0,0-1.94-7.64c-2.93-7.9-6.3-15.86-7.65-24.09-2.2-13.37-2.9-27-4.29-40.47-.59-5.76-1.35-11.5-2-17.25a3.82,3.82,0,0,0-3.92-3.69c-1.86.14-1,2.47-1.06,3.84-.84,11.72-2.46,23.37-3.32,35.1-1.09,15-4.19,29.75-3.76,44.88.31,10.49-.4,20.79-9.38,28.33a12.17,12.17,0,0,1-5.68,3.09c-4.23.93-7.79-.64-11.64-.78-2.8-.11-3.64-.62-3.33-3.61,1.28-12.17-1.38-24.16-2.25-36.22a72,72,0,0,1,1.82-21.5c1.29-5.66,3.7-10.87,5.52-16.31,6.35-19,12.48-38,18.61-57.08.65-2,1.31-4.74-1.1-5.8-2.1-.92-2.81,1.62-3.85,3.07C460.58,358.53,453,377.82,443.32,396,436,409.8,428.93,423.7,418.2,435.1c-8.66,9.21-17.28,18.26-21.22,30.58-1.1,3.44-2.84,4.6-6.34,4.49C388.16,470.09,386,471.64,383.86,473ZM538,459.91c-1.79-5.19-.41-10.6-1.11-15.84s-1.64-10.46-4-15.31c-3.15-6.49-4.83-13.5-7.18-20.25-1.38-3.94-.78-8.2-2.91-11.81-1-1.63-2.29-3.16-4.4-2.45s-1.49,2.81-1.24,4.31c1.45,8.84,2.62,17.71,4.71,26.48,2.83,11.84,7.53,23.24,8.33,35.58a4.41,4.41,0,0,0,4.35,4.12C537.22,464.66,537.48,462,538,459.91Z"/><path class="cls-14" d="M1040,850l-1,1Z"/><path class="cls-21" d="M783,878.17c-11.84-8.32-25.44-12.08-39.35-14.95-1.67-.35-3-1.15-4.58-1.62-1.29-3.25-4.41-4.89-6.49-7.45-.73-.88-1.83-1.67-1.3-3s2-1.2,3-1c5.39.82,10.87,1.36,16.12,2.73,16.35,4.29,32.71,7.89,49.78,8.45,12.7.41,25-1.54,37.38-3.32-1.37,4.27-6.52,6.24-6.81,11.17-10.38-1-20.72-2.19-31.06.79-4.39,1.27-8.44,2.86-11.88,5.88A9.08,9.08,0,0,1,783,878.17Z"/><path class="cls-24" d="M383.86,473c2.09-1.39,4.3-2.94,6.78-2.86,3.5.11,5.24-1.05,6.34-4.49,3.94-12.32,12.56-21.37,21.22-30.58C428.93,423.7,436,409.8,443.32,396c9.63-18.19,17.26-37.48,29.34-54.34,1-1.45,1.75-4,3.85-3.07,2.41,1.06,1.75,3.78,1.1,5.8-6.13,19.05-12.26,38.1-18.61,57.08-1.82,5.44-4.23,10.65-5.52,16.31a72,72,0,0,0-1.82,21.5c.87,12.06,3.53,24,2.25,36.22-.31,3,.53,3.5,3.33,3.61,3.85.14,7.41,1.71,11.64.78a12.17,12.17,0,0,0,5.68-3.09c9-7.54,9.69-17.84,9.38-28.33-.43-15.13,2.67-29.92,3.76-44.88.86-11.73,2.48-23.38,3.32-35.1.1-1.37-.8-3.7,1.06-3.84a3.82,3.82,0,0,1,3.92,3.69c.63,5.75,1.39,11.49,2,17.25,1.39,13.5,2.09,27.1,4.29,40.47,1.35,8.23,4.72,16.19,7.65,24.09a48.36,48.36,0,0,1,1.94,7.64c1.36,6.94,5.31,11.47,11.66,14.24a23.37,23.37,0,0,1,4.69,2.78c2.73,2.09,5.54,2.46,8.91,1.73,4.55-1,9.15-1.53,13.2,2.12,2.12,1.91,7.5-1.48,7.59-5,.26-9.67-.92-19.2-4.93-28.09-1.45-3.21-1.54-6.65-2.56-9.93-2.86-9.2-3.61-19.08-6.77-28.15-2.78-8-3.87-16.83-11.12-23.19-4.64-4.08-6.27-10.83-8.38-16.76-3.76-10.55-6.59-21.41-11-31.76a14.6,14.6,0,0,0-3.58-4.69c-1.84-1.82-2.16-3.85-.63-5.82,1.92-2.48,3.21.35,4.48,1,2.71,1.46,4,4.31,5.5,6.9,8.82,15,16.95,30.45,28.38,43.89,4.79,5.63,7.74,12.8,10.95,19.68,6.5,13.91,12,28.45,21.56,40.71,3.62,4.63,6.92,9.52,13,12,3.45,1.42,5.07.78,7-1.55,5.06,6.79,11.09,13.21,8.67,22.83a21.12,21.12,0,0,1-11.57,10A45.89,45.89,0,0,0,586.68,486a4.13,4.13,0,0,1-4.33-.34c-5.76-4.06-10.93-2.82-16,1.31a3.46,3.46,0,0,1-2.28.89c-6.59-1-12.12,1.83-18,4.18-5.71,2.29-11.39.56-16.23-3.36-6.48-5.23-12.55-5.53-19.42-1.52-3.53,2.06-7.15,2.13-10.3-1.43-2.45-2.76-5.24-3-7.81.22a11.55,11.55,0,0,1-18.46-.86c-.86-1.34-2.27-2.37-3.13-1.8-3.29,2.19-7.43.8-10.66,2.95-3.68,2.43-7.14,2.2-10.3-1.1-2.36-2.46-11.84-2.56-14.43-.11-2.28,2.15-4.13,3-6.58,0-1.61-2-10.84-1-13.54,1a16.3,16.3,0,0,1-22.81-2.82,3.92,3.92,0,0,0-2.34-1.57C385.41,480.69,383.43,477.72,383.86,473Z"/><path class="cls-21" d="M603,489c-2.23-.78-4.3-2-3-4.65,1.47-2.89,3.79-1.82,5.85-.32C606.53,486.64,605.23,488.1,603,489Z"/><path class="cls-21" d="M609.57,493.37c0,1.85-1.48,2.07-2.67,2.29-1.51.28-3.2,0-3.49-1.79s1.22-2.07,2.59-2.17S609,491.62,609.57,493.37Z"/><path class="cls-21" d="M583,494c-1.13-1.17-2.06-2.71-.24-3.65,2.31-1.21,4.8-1.22,6.31,1.61a1.41,1.41,0,0,0-.15.83l-1.28,1Z"/><path class="cls-21" d="M599.22,503.84a2.53,2.53,0,0,1-2.69,2.22c-1.51,0-2.59-.76-2.61-2.32s1.24-2.22,2.67-2.19S599.21,502,599.22,503.84Z"/><path class="cls-21" d="M612,480.15c-1.76.07-3.7.63-4.81-1.38-.6-1.09.27-1.86,1-2.47,1.8-1.5,3.31-.49,4.76.69A3.27,3.27,0,0,1,612,480.15Z"/><path class="cls-25" d="M452.05,328a1.08,1.08,0,0,1-1,1.14Z"/><path class="cls-24" d="M528.85,492.12c2.57.75,6.19.47,6.11,4.33-.09,4.17-3.94,4-6.7,4.13-2.6.12-5.68-.71-5.61-4.13C522.73,492.71,526.12,492.71,528.85,492.12Z"/><path class="cls-24" d="M365.93,482c-2.78-.15-5.51-.73-5.48-3.83,0-2.89,2.57-4.13,5.24-4s5.6.6,5.53,4.16S368.08,481.51,365.93,482Z"/><path class="cls-21" d="M411.76,494.91c-2.88,3.37-6.29,1.63-9.59,1-.38-1-.76-1.93-1.13-2.89h0c3.65-1.19,7.31-3.57,10.9.13a1.24,1.24,0,0,0,.2.86A2,2,0,0,0,411.76,494.91Z"/><path class="cls-24" d="M372.66,497.44c-2.74,2.5-5.63,2.43-8.62.5-.63-2.6,1-3.79,3-4.74,3-1.16,4.67.3,5.89,2.8Z"/><path class="cls-24" d="M387.48,485.24c.16.91.33,1.83.49,2.75-2.42,2.63-5.17,2.61-8,.76a1.84,1.84,0,0,1-.2-3C382.18,483.46,384.81,483.77,387.48,485.24Z"/><path class="cls-24" d="M510.75,497.85c2.21,0,4.38.24,4.57,2.43s-1.84,2.8-3.78,2.77-4.42.15-4.47-2.56C507,498.16,509.27,498,510.75,497.85Z"/><path class="cls-21" d="M357,489.14,354.85,487a4.27,4.27,0,0,1,.13-.48c.93-2.59,2.9-2.94,5.2-2.28,1.12.32,2.24,1,2,2.43C361.58,489.78,359,488.81,357,489.14Z"/><path class="cls-21" d="M399.85,502.91c-2.2,0-4.58.37-4.85-2.86a5.18,5.18,0,0,1,6-1.1l.1.08.87,1v0C401.89,501.48,400.62,502,399.85,502.91Z"/><path class="cls-21" d="M386,493c4.3,1,4.23,2.82,1,5.26C383.67,497.06,383.5,495.27,386,493Z"/><path class="cls-21" d="M379.63,480.69a2.8,2.8,0,0,1-2.93,2.17c-1.31-.11-2.77-.55-2.72-2.27s1.54-2.1,2.84-2.16A2.54,2.54,0,0,1,379.63,480.69Z"/><path class="cls-21" d="M573.34,490.57c-.72-2,0-3.27,2-3.72a2.42,2.42,0,0,1,3.16,1.67c.49,1.75-.66,2.44-2.13,2.52a13.93,13.93,0,0,1-2.91-.39l-.23.14Z"/><path class="cls-21" d="M492.21,493.44a2.45,2.45,0,0,1-2.7,2.25c-1.32,0-2.63-.52-2.63-2.25s1.34-2.28,2.62-2.27A2.49,2.49,0,0,1,492.21,493.44Z"/><path class="cls-21" d="M433.62,493.06l.33-1.37c1.91-1,4.06-1.79,5.83-.3,1.51,1.27.08,2.52-1,3.51a8.89,8.89,0,0,1-4.72-.94C433.93,493.66,433.78,493.36,433.62,493.06Z"/><path class="cls-21" d="M519.79,489.93a2.48,2.48,0,0,1-3,1.74,2,2,0,0,1-1.94-2.35c.21-1.63,1.42-2.07,2.86-1.81A2.19,2.19,0,0,1,519.79,489.93Z"/><path class="cls-21" d="M368.07,467.24l.92-.33c1.92.31,3.95.85,3.08,3.33-.55,1.6-2.35,1.7-3.85,1C365.82,470,367,468.61,368.07,467.24Z"/><path class="cls-21" d="M497,500a10.23,10.23,0,0,1,1.45-.17c1.65,0,3.93-.92,4.27,1.71.21,1.63-1.62,2-2.82,2-2.13,0-4-.65-2.9-3.52Z"/><path class="cls-21" d="M421.33,494.09c0,1.83-1.24,2.44-2.56,2.55s-2.68-.43-2.85-2c-.19-1.77,1.35-2.16,2.56-2.42C420,491.85,420.85,492.86,421.33,494.09Z"/><path class="cls-21" d="M459.18,491.68c0-.5-.05-1-.08-1.51,1.51-.95,3-2.2,4.58-.1a1.63,1.63,0,0,1,0,2.22C462,493.74,460.48,493.43,459.18,491.68Z"/><path class="cls-21" d="M380.36,493.75c-.55,1.33-1.33,2.32-2.9,2a2.09,2.09,0,0,1-1.79-2.51,2,2,0,0,1,2.55-1.63C379.39,491.85,380.44,492.25,380.36,493.75Z"/><path class="cls-20" d="M894.63,910.1c1.18,3-.68,5-2.34,7-6,5.43-13.72,5.23-20.85,5.83-10.88.92-22,1-32.62-2-10-2.8-20.15-5.25-29.82-9.25-10.48-4.33-21-8.49-31.71-12.28-2.15-.76-4.52,2.41-7.31,1.72l-1.5,0c-10-.2-11.68-2.83-7.9-12.09a11,11,0,0,0,.42-1.93l2.11-.45a3.26,3.26,0,0,0-.18,1c-1.23,2.14-.91,4.49-.94,6.79,0,.8-.11,1.78.85,2.12,1.17.43,1.74-.59,2.43-1.26,3.35-3.26-.4-5.19-1.44-7.62l1.14-1.5.29-.37c7.13,5.32,11.82.51,16.58-4,7.11,0,14-2,21.2-1.8,14.46.48,28,4.23,41.47,9.26,15.18,5.67,29.72,12.67,44.33,19.58C890.58,909.64,892.69,909.69,894.63,910.1Z"/><path class="cls-21" d="M670,887.83c0,1.65-.75,2.5-2.41,2.31a2.62,2.62,0,0,1-2.29-2.79c-.06-1.59,1.15-2.28,2.64-2.27C669.79,885.1,670,886.43,670,887.83Z"/><path class="cls-14" d="M1130.05,850.08a5.38,5.38,0,0,1,4.7-5c1.94-.36,3.12.83,3.32,2.84A20.8,20.8,0,0,1,1130.05,850.08Z"/><path class="cls-14" d="M1127,850.85a3.28,3.28,0,0,1,3.06-.8C1129.32,851.42,1128.11,851,1127,850.85Z"/><path class="cls-16" d="M765,886.14l-1.14,1.49a.75.75,0,0,0-.9,0,3.26,3.26,0,0,1,.18-1Z"/><path class="cls-14" d="M1159.08,830.39c-1.27,3-3.35,5.69-6.31,6.33-2.51.53-4.76-2-4.7-4.58.09-3.19,2.65-5.43,5.6-6S1157.91,828,1159.08,830.39Z"/><path class="cls-21" d="M708.89,842.05a3.45,3.45,0,0,1,3.13-3.58c1.16-.18,1.81.85,1.78,1.9-.06,1.87-.57,3.85-2.53,4.36C709.79,845.12,709,843.76,708.89,842.05Z"/><path class="cls-24" d="M538,459.91c-.52,2.12-.78,4.75-3.45,4.83a4.41,4.41,0,0,1-4.35-4.12c-.8-12.34-5.5-23.74-8.33-35.58-2.09-8.77-3.26-17.64-4.71-26.48-.25-1.5-.93-3.59,1.24-4.31s3.43.82,4.4,2.45c2.13,3.61,1.53,7.87,2.91,11.81,2.35,6.75,4,13.76,7.18,20.25,2.36,4.85,3.3,10.08,4,15.31S536.21,454.72,538,459.91Z"/><path class="cls-21" d="M402,500l-.87-1Z"/><path class="cls-21" d="M762.93,887.61a.75.75,0,0,1,.9,0c1,2.44,4.79,4.37,1.44,7.63-.69.67-1.26,1.69-2.43,1.26-1-.34-.87-1.32-.85-2.12C762,892.1,761.7,889.75,762.93,887.61Z"/></svg>