<svg id="Laag_1" data-name="Laag 1" xmlns="http://www.w3.org/2000/svg" viewBox="0 0 1920 1080"><defs><style>.cls-1{fill:#f98267;}.cls-2{fill:#72502c;}.cls-3{fill:#8b6c43;}.cls-4{fill:#86603c;}.cls-5{fill:#4f4c4c;}.cls-6{fill:#eabea8;}.cls-7{fill:#a00000;}.cls-8{fill:#fff;}.cls-9{fill:#02006a;}.cls-10{fill:#e7b042;}.cls-11{fill:#3f7d7e;}.cls-12{fill:#45898b;}.cls-13{fill:#4fa1a4;}</style></defs><title>VOC</title><rect class="cls-1" x="-17.58" y="-3.46" width="1985.82" height="1027"/><rect class="cls-2" x="1317.83" y="535.07" width="4.41" height="31.42" transform="translate(2677.98 1000.06) rotate(175.66)"/><rect class="cls-2" x="1291.83" y="538.07" width="4.41" height="31.42" transform="translate(2626.28 1008.02) rotate(175.66)"/><rect class="cls-2" x="1264.83" y="541.07" width="4.41" height="31.42" transform="translate(2572.59 1016.06) rotate(175.66)"/><rect class="cls-2" x="1238.83" y="542.07" width="4.41" height="31.42" transform="translate(2520.74 1020.02) rotate(175.66)"/><rect class="cls-2" x="1212.83" y="545.07" width="4.41" height="31.42" transform="translate(2469.04 1027.98) rotate(175.66)"/><rect class="cls-2" x="1186.83" y="548.07" width="4.41" height="31.42" transform="translate(2417.34 1035.94) rotate(175.66)"/><rect class="cls-2" x="1160.83" y="551.07" width="4.41" height="31.42" transform="translate(2365.64 1043.9) rotate(175.66)"/><rect class="cls-2" x="1133.83" y="554.07" width="4.41" height="31.42" transform="translate(2311.95 1051.94) rotate(175.66)"/><rect class="cls-2" x="1107.83" y="556.07" width="4.41" height="31.42" transform="translate(2260.17 1057.9) rotate(175.66)"/><rect class="cls-3" x="1104.13" y="535.39" width="250.66" height="9.91" transform="translate(2509.94 945.24) rotate(173.82)"/><path class="cls-2" d="M1199,752.59s34-29,129-165,113-159,108-164-23,21-23,21l-240,308Z"/><path class="cls-4" d="M1309.89,576.71,1171,762.59l-407,15s-66.8-116.4-69.4-138.7l96.4-13.3,110-12,11,10,14,12,6,5,11,6,24,9,25-5,41-20,21-32Z"/><polygon class="cls-5" points="795.25 39.57 799.04 55.59 779.04 55.59 779.04 43.59 795.25 39.57"/><rect class="cls-6" x="1080.15" y="395.08" width="2.53" height="244.49" transform="translate(778.88 -642.65) rotate(49.82)"/><path class="cls-7" d="M781,37.59c12-3,13-1,13-1,7,8-19,13-9,17s64-14,64-14L851,45.9C835.87,49.73,806.65,57.12,800,58.59a30.92,30.92,0,0,1-11.78.08,45.33,45.33,0,0,1-5.78-1.35c-1.33-.41-4.17-.86-4.93-2.18a2,2,0,0,1-.14-1.46c.49-1.91,2.16-3.39,3.51-4.72A57.59,57.59,0,0,1,786,44.59c7.78-6.05-36,5.82-48,9.16l-6-4.16S769,40.59,781,37.59Z"/><path class="cls-8" d="M794,69.59c-3-2-2-8-7-8s-11-2-12-4c-.78-1.55-22.07,4.13-31.53,6.75L745,58.59l-7-4.84c12-3.34,55.77-15.21,48-9.16q-13.5,10.5-6,12c5,1,11,4,20,2,6.61-1.47,35.83-8.86,50.92-12.69l2.84,9.33C843,58.3,796.69,71.36,794,69.59Z"/><path class="cls-9" d="M796,77.59c-6,2-9-11-10-14s-45,10-45,10l2.47-9.25c4.44-1.57,9.25-2.5,13.82-3.63,2.95-.73,5.91-1.42,8.87-2.09l4.45-1c1.24-.27,2.59-.71,3.82-.19,1.82.77,3.22,2.24,5.1,3a21.38,21.38,0,0,0,6.77,1.14c1.86.13,3.53.6,4.5,2.34s1.31,4.44,3.2,5.7c2.65,1.77,49-11.29,59.76-14.36L856,62.59S802,75.59,796,77.59Z"/><path class="cls-10" d="M870,89.59s-1-7-2-8l-15,3s3,10,4,11S870,89.59,870,89.59Z"/><path class="cls-2" d="M1002,644.59s-124-543-132-555l-14,3s121,532,126,556Z"/><path class="cls-10" d="M866.07,82s-20-67.39-22-65.39,15,69,15,69Z"/><path class="cls-8" d="M1044,310.59s115,62,58,211l-230,31s55-138-62-211Z"/><path class="cls-8" d="M972.86,178.59s67.24,33.82,33.91,115.09L828,310.59s30-70-32-111Z"/><rect class="cls-2" x="791.5" y="522.8" width="4.41" height="31.42" transform="translate(1737.32 710.37) rotate(156.17)"/><rect class="cls-2" x="759.95" y="524.88" width="4.41" height="31.42" transform="translate(1677.75 727.1) rotate(156.17)"/><rect class="cls-2" x="728.55" y="528.46" width="4.41" height="31.42" transform="translate(1619.09 746.65) rotate(156.17)"/><rect class="cls-2" x="698.09" y="531.81" width="4.41" height="31.42" transform="translate(1562.11 765.38) rotate(156.17)"/><rect class="cls-2" x="666.2" y="535.29" width="4.41" height="31.42" transform="translate(1502.45 784.92) rotate(156.17)"/><rect class="cls-2" x="635.63" y="538.95" width="4.41" height="31.42" transform="translate(1445.4 804.29) rotate(156.17)"/><rect class="cls-2" x="822.2" y="518.95" width="4.41" height="31.42" transform="translate(1794.55 690.6) rotate(156.17)"/><polygon class="cls-4" points="860.38 612.34 832.04 546.59 641.04 568.59 670.04 633.59 860.38 612.34"/><path class="cls-11" d="M-81.24,720.52s49.23-6.4,63.58-24.32c0,0,67.69,53.76,153.83,0,0,0,67.69,53.76,155.88,0,0,0,61.53,53.76,151.77,2.56,0,0,75.89,49.92,153.83,0,0,0,71.79,48.64,153.83-2.56,0,0,59.48,56.32,153.83,2.56,0,0,71.78,53.76,155.87-2.56,0,0,65.64,51.2,151.78,2.56,0,0,90.24,46.08,153.83-2.56,0,0,82,55,153.82,0,0,0,80,51.2,155.88,0,0,0,69.73,56.32,153.83,2.56,0,0,77.94,46.08,139.47,1.28v339.2h-2051Z"/><path class="cls-12" d="M-207,831.52s53.66-6.4,69.31-24.32c0,0,73.78,53.76,167.68,0,0,0,73.78,53.76,169.92,0,0,0,67.08,53.76,165.45,2.56,0,0,82.73,49.92,167.69,0,0,0,78.25,48.64,167.68-2.56,0,0,64.84,56.32,167.68,2.56,0,0,78.26,53.76,169.92-2.56,0,0,71.55,51.2,165.45,2.56,0,0,98.38,46.08,167.68-2.56,0,0,89.44,55,167.69,0,0,0,87.19,51.2,169.92,0,0,0,76,56.32,167.68,2.56,0,0,85,46.08,152,1.28v339.2H-207"/><path class="cls-13" d="M2121,1250H-141.18V931.25s54.29-6.4,70.13-24.32c0,0,74.65,53.76,169.66,0,0,0,74.65,53.76,171.93,0,0,0,67.86,53.76,167.4,2.56,0,0,83.7,49.92,169.66,0,0,0,79.18,48.64,169.66-2.56,0,0,65.61,56.32,169.67,2.56,0,0,79.17,53.76,171.92-2.56,0,0,72.39,51.2,167.41,2.56,0,0,99.53,46.08,169.66-2.56,0,0,90.49,55,169.66,0,0,0,88.23,51.2,171.93,0,0,0,76.91,56.32,169.66,2.56,0,0,86,46.08,153.83,1.28"/><path class="cls-10" d="M1319,564.59l-271,28s-22,67-84,56c0,0-41-8-56-41l-241,24v10l235-23s20,37,62,40c0,0,69,8,92-56l255-26Z"/><path class="cls-7" d="M558.09,468.48c12.27-1.59,13,.51,13,.51,6,8.76-20.38,10.71-10.91,15.84s65.19-6.49,65.19-6.49l1.18,6.49c-15.43,2.06-45.32,6-52.05,6.71a31.17,31.17,0,0,1-11.71-1.29,44.32,44.32,0,0,1-5.59-2c-1.27-.56-4-1.34-4.64-2.73a2,2,0,0,1,0-1.47c.7-1.85,2.53-3.12,4-4.28a56.91,56.91,0,0,1,5.6-3.75c8.42-5.11-36.39,1.62-48.73,3.54L508,474.72S545.82,470.07,558.09,468.48Z"/><rect class="cls-6" x="1134.34" y="-36.51" width="2.12" height="648.37" transform="matrix(-0.58, 0.81, -0.81, -0.58, 2029.48, -468.98)"/><path class="cls-8" d="M567.3,501.77c-2.75-2.34-1.06-8.18-6-8.76s-10.69-3.26-11.46-5.36c-.59-1.63-22.39,1.55-32.1,3.05l2.19-5.53-6.38-5.62c12.34-1.92,57.15-8.65,48.73-3.54q-14.62,8.87-7.35,11.22c4.85,1.58,10.46,5.25,19.63,4.31,6.73-.69,36.62-4.65,52.05-6.71l1.74,9.6C617.25,496.23,569.72,503.83,567.3,501.77Z"/><path class="cls-9" d="M568.36,510c-6.2,1.29-7.67-12-8.31-15.07s-45.86,4.72-45.86,4.72l3.52-8.9c4.6-1,9.48-1.41,14.15-2,3-.39,6-.73,9.06-1.05l4.53-.48c1.26-.13,2.66-.41,3.82.25,1.71,1,2.93,2.6,4.72,3.56a21.61,21.61,0,0,0,6.59,1.91c1.83.35,3.43,1,4.19,2.85s.8,4.56,2.53,6c2.42,2.06,50-5.54,61-7.34l1.37,7.57S574.55,508.66,568.36,510Z"/><path class="cls-10" d="M640.47,530.44s-.19-7.07-1.06-8.18l-15.25,1.24s1.82,10.28,2.7,11.39S640.47,530.44,640.47,530.44Z"/><path class="cls-10" d="M637.4,522.43s-12.08-69.27-14.3-67.51,6.9,70.27,6.9,70.27Z"/><polygon class="cls-3" points="629.04 540.59 821.9 520.73 816.04 510.59 625.33 530.9 629.04 540.59"/><path class="cls-8" d="M1359,447.37,1056.07,230.18s87.83,73.32,112.09,213.63C1168.16,443.81,1236.73,418.23,1359,447.37Z"/></svg>