<svg id="Laag_1" data-name="Laag 1" xmlns="http://www.w3.org/2000/svg" viewBox="0 0 1920 1080"><defs><style>.cls-1{fill:#85b9ca;}.cls-2{fill:#93c193;}.cls-3{fill:#669daa;}.cls-4{fill:#cecbc4;}.cls-5{fill:#91e1d2;}.cls-6{fill:#e5e4e3;}.cls-7{fill:#b18254;}.cls-8{fill:#e9a24a;}.cls-9{fill:#eea443;}.cls-10{fill:#b47c59;}.cls-11{fill:#ea9c4a;}.cls-12{fill:#f26666;}.cls-13{font-size:25.27px;fill:#fff;font-family:MyriadPro-Regular, Myriad Pro;}.cls-14{letter-spacing:0em;}.cls-15{letter-spacing:-0.01em;}.cls-16{letter-spacing:-0.01em;}.cls-17{letter-spacing:0em;}.cls-18{letter-spacing:-0.01em;}.cls-19{letter-spacing:-0.01em;}.cls-20{letter-spacing:-0.01em;}.cls-21{letter-spacing:0em;}</style></defs><title>worldmap</title><path class="cls-1" d="M1439.25,83.51c-.43-3.15-1.84-5.63-5.13-6.39-22.65-5.22-45-6.87-66,6L1359.35,73l-5.08-3.61c-.33-4-2.55-6.9-5.45-9.41-2.12-2.79-4.66-4.93-8.32-5.27-32.61-3-64.75-19.4-98.06-3.28-2.07,1-5.08.53-7.55.12-8.3-1.37-15.79-.61-22.59,5.25-4.28,3.69-9.56,3.22-14.13-.19-10.63-7.91-22.12-1.74-33.19-2.09a5.93,5.93,0,0,0-5.82,5.83c-.71,14.05-10,13.95-18.66,9.68-16.33-8.08-32,1.52-48.11.88-8.82-.35-16.56,1.75-25.28-3.35-7.44-4.35-16.52-4.23-23,3.92-6,7.59-13.72,11-23.39,10a15.94,15.94,0,0,0-6.83-8.11c-1.79-10.35-10-13-18.44-14.6-6.18-1.14-12.64-1.14-19-1C953,58.23,929.74,47.35,906,56.54c-2.07.8-5-.8-7.48-.79-17.14,0-34-2.14-51,5.4-9.86,4.4-21.39,10.7-32.78,7.18-9.61-3-18.22-2-27.29.11-5.37,1.23-10.71,2.62-16.28,1.38-4.25-.95-8.65-1.75-11.57,2.44-3.68,5.26,1.71,8.38,3.46,12.35,1.1,3,2.19,6,3.27,9.06-2.5-.14-5.33.45-7.42-.52-14.32-6.66-24.25,5.07-36,8.61-5.82,1.76-2.8,6.68-.6,10.32,9.6,17,23.07,31.15,34.39,46.89,2,2.8,5,4.58,3.16,8.52-5.88.36-11.75.85-17.63,1-2.95.1-6.58-.83-6.46,3.66.14,5,2.38,10.64-4.51,12.71-5.54,1.66-11.58.08-15.95-2.54-8.8-5.26-16.46-11.13-26.69-2.67-1.66,1.37-6.38-.72-9.61-1.53-21.58-5.41-43.15-10.92-64.72-16.39-9.43-4.59-11.41-16-19.74-21.59-12.47-13.41-28.5-8.21-35.44,11.49.7,2.24,1.39,4.47,2.09,6.7-6.41,2-12.85.54-19.28.15l-6-6.68c-1.31-1-2.54-2.86-3.93-3-18.4-1.82-35.69,2.21-51.84,10.9-5.42,2.92-2.48,7.09-.22,10.74,1,5.55,5,9.43,8,13.88,6.39,9.57,15.38,17.48,18.74,29-6.47,1.88-12.06.2-18.08-2.75-7.43-3.64-17.43-5.25-21.13,3.46-3.49,8.21-16.79,15.72-5.71,27.28,2.33,4,4.33,8.18,7,11.85,7.69,10.38,17.14,19.55,21.78,32a85.43,85.43,0,0,1-34-1.23c-6.68-1.58-13.59-2.84-20.08-.48-10.7,3.91-21.57,3.8-32.61,3.29-7.21-.33-14.64-.9-21.38,1.85-16,6.55-31.35,3.93-47.13-1-9.85-3.07-18.78-9.91-30.26-7.32-16.54,3.73-32.85.24-49.06-3-5.84-1.16-11.58-2.07-17.61-1.59-21.94,1.76-42.57-3.91-62.71-11.8-2-.78-3.17-1.85-5.53-.44-21.24,12.63-42.1,26-65.54,34.5-2.3.84-1.72,3.58-1.6,5.68l9.94,16.45c-4,1-8.19,1.41-11.79,3.15-6.31,3.05-11.32,7.28-6.51,15.33l5.92,5.39-.16-.23c1.42,6.23,8.08,10,8,16.91l-8,11.81c1.36,2.55,2.46,5.29,4.13,7.6q20,27.63,40.19,55.11c-6,3-11.87,6.14-17.92,9-4.11,1.93-7.79,3.77-4.74,9.23,21.9,32.31,45,63.7,68.4,95,49.27,66,96.83,133.24,145.7,199.52,73.29,99.42,144.49,200.36,218.06,299.59,72.3,97.51,144.27,195.29,214.38,294.41,23.27,32.89,47.61,65,71.44,97.52q34.24,46.71,68.44,93.48c2.14,2.88,1.2,5.62-.51,8.21-13.94,21.17-13.6,57.83.78,77.72l4.57,4.5,0-.06,2.52,2.52.09.09c2.83,11.17,11.81,18.38,18,27.33q58.55,84.9,118,169.21c22.42,31.93,45.51,63.39,67.71,95.46,6.3,9.1,10.42,8.59,17.26.84,8.11-9.2,17.26-17.51,26.25-25.9,11.51-10.76,26.31-12.4,39.57-3.77,8.33,5.42,16.56,6,25.41,2.66,15.9-6,29-1.91,40.13,10.47,11.79,13.13,26.48,23.68,35.1,39.61h-15.29c-5.05-13.71-17.94-20.77-26.56-31.45s-19.46-12.58-31.84-8c-10.65,4-20.32,2.9-30.21-3.19-12.55-7.72-22.43-6-33.09,4.45-8.48,8.27-16.8,16.71-25.19,25.07-3.63,3.62-7.43,7.17-6,13.1H737.47c-1.62-2.94-2.91-6.12-4.89-8.8q-115.94-156.91-231.92-313.78c-4-5.41-8.58-9.24-15.33-10.16-4.18-4-10.13-2.7-14.85-5.06-16.86-22.74-33.66-45.52-50.6-68.2-3.1-4.16-5.71-10.78-12.77-5.91-10.35,7.15-15.63,1.4-21.42-6.78-16.13-22.76-32.83-45.12-49.38-67.58-1.7-2.31-3.42-5.9-6.53-5.31-4.4.83-2.7,5.41-3.46,8.44-3.29,4.17-3.88,9.19-4.93,14.19-5.27,25.16-10.53,50.33-16.28,75.39-3.11,13.59-6.73,14.61-18,6.89-10-6.9-19.67-14.59-31.37-18.76l-2.31-2.25-.28.25,2.28,2.33c-1.5,8.88,4.77,14.75,8.35,21.68,4.55,8.81,12.55,15.85,13.62,26.45q-53.49,11.54-107,23.05c-7.67,1.64-9.08,5-3.94,11.32,8.27,10.22,16.43,20.54,24.16,31.16,48.68,66.94,97.41,133.84,145.61,201.12,7.11,9.93,12.31,12.87,20.55,2.12,2.32-3,5.64-5.83,9.63-1.87s1,6.85-1.66,9.74c-.57.63-1.19,1.22-1.71,1.89-4.15,5.4-11.58,9.78-3.87,18.12,7.86,8.52,12.5,1.88,17.77-2.93,2.94-2.69,6-5.44,9.78-1.51s.51,6.87-2.06,9.69a37.08,37.08,0,0,1-3.57,3.63c-6.86,5.72-7.88,10.55-2.13,19.07,7.28,10.82,17.72,19.59,22.07,32.37q-197.46,0-394.91.24c-8.56,0-10.53-1.47-10.52-10.35q.4-1024.24,0-2048.48c0-9.6,2.48-10.89,11.25-10.89q1645.29.34,3290.56,0c9.88,0,11.57,2.55,11.56,11.86q-.43,340.77-.23,681.55c-10.6-6.42-15.47-17.72-22.42-27.08-45.87-61.78-91.25-123.92-136.89-185.88-4.21-5.71-7.51-12.4-14.49-15.59-2-11.7-12.11-16-20.91-17.94-20.93-4.5-36.22-18-52.56-29.68-21.57-15.47-45.34-23.09-71.6-23.66-7.5-.16-14.25.16-14.91,10.91-.42,6.86-6.24,9.8-11.86,4.69-18.73-17-40.63-10.24-61.31-7.74-9.3,1.13-14,1.08-17.35-8.21-3.78-10.6-13.57-16.13-23.17-13.18-16.1,4.94-32,1.49-47.89,2.88-6.87-2-8.22-9.66-13.54-13.25-2.72-5.72-7.91-8.67-13.5-7.5-19.86,4.18-37.23-7.71-56.57-8-10-.13-16.76.56-19.61,10.57-3.36,11.81-11.68,14.11-21.74,11-8.13-2.55-16.64-3.07-24.56-5.53-9-2.81-13,.75-15,8.27-2.63,9.47-7,12-15.15,5.26-2.22-1.83-5.25-2.68-7.91-4l-2.68-2.46.2.28c-1.11-2.43-2.67-4.41-5.31-5.3l.16.19c-5.74-10.18-11.56-20.3-21.41-27.25a38,38,0,0,0-18.37-8c-5.07-.64-10.26.89-7.12,7.8,5.9,13-1.43,11.28-9.78,9.58a123.57,123.57,0,0,0-16.31-1.87c-4.84-.33-9.79-.88-11.87-5.74-3.23-7.55-9.74-8.61-16.48-9.7l-20.65-26.43c-11.66-21-22.65-26-45.09-19.92-5.05,1.36-9.1.51-12.67-3.18l-19.91-28.59c-10.11-4.8-19.31-16.15-31.72-4.41-4.43-2-6.8-5.94-9.5-9.62-10.49-.71-17.19-7-23.77-14.61-8-9.21-19-8.51-21.82,1.09-2.64,9.09-6.81,14.55-16.68,15.92-5.9.83-9.63,4.33-2.75,9.78,6.46,14.31,20.08,24.17,24.64,39.65-16.59,3.41-33.11,7.19-49.79,10.07-9.33,1.62-16.6,5.66-18.58,14.88-3.72,17.29-8.32,17.9-27,14.44-7.85-1.45-15.07-1.25-20.61,6.08-5.93,7.85-.29,13.41,3,19.55l5.32,8.78c-6.61,1.6-12.23.06-17.8-4.06-12.4-9.14-24.77-3.9-28.54,11.67-8-2.19-7.8-14.07-17.25-14.51l-3.8.8c-6.21-2.94-8.22-10.88-15.25-12.85l.14.16c-1.43-8.85-8.82-14-13-21.21-4.91-8.46-10.07-10.59-16.91-1.8-2.09,2.69-4.07,6.56-9.19,4-9.07-4.54-17.65-20.72-16.22-31.56,1.35-1,3-1.7,4-3,2.83-3.64,10.5-5.93,6.68-11.65-3.34-5-9.66-2.88-15.17-1.08-19.83,6.52-39.61,13.4-59.8,18.59a92,92,0,0,0-35.78,17.9c-13.83,11.27-15.05,30.47-26.45,43.55-4,4.65,1.54,6.05,5.12,7.21,2.79,15,15.56,23.89,22.43,36.39,1.3,2.36,4.94,4.65,1.76,7.67-2.43,2.3-5.54,3.94-9.19,1.62s-7.53-5.92-11.57-3.59c-10.31,5.94-22.58,7.39-32.36,13.77-6.91,4.51-10.87,5.51-14.78-2.62-4-8.38-12.08-9.74-19.23-6.88-6.76,2.71-10,1-13.7-4.06-19-26-38-52-57.26-77.7-25.15-33.5-48.75-68.17-75.42-100.53-4.8-6.46-10.73-9.25-18.68-5.94-9.39,3.92-18.17,2.24-26.62-3-4.43-2.74-9.92-5.52-14.23-1.91-10,8.38-18.75,15.42-34,12.31-5.21-1.07-14,1.92-21.41,1.06-4.77-.55-10.09-4.11-14,1.4-3.77,5.23-.86,10.71.74,15.79,1,3.09,3.5,5.7,5.33,8.52l4,5.5c6.36,4.13-2.06,15.15,8.16,17.48-.05,3.28,2.25,5.3,4,7.67,17.1,23.12,34.54,46,51,69.56,5.28,7.54,14.23,13.89,12.35,25.17l-12.43,3.4c-7.92-.57-12.48,4.69-17.09,9.86L1682,283c-2,7.73-8.1,12.92-11.88,19.55l-4.16,5.25c-11.76,7.44-18.83,19.69-29.28,28.49l-3.9,3.58c-18.49-17.68-31.56-39.65-46.74-59.88m531.36-98.06c-1.83-4-3.75-8.76-8.49-9.76-3.56-.75-4.62,3.29-4.35,6.17.47,5.09,3.53,8.5,8.78,8.89C2116.43,187.45,2117.51,185,2117.39,181.92Z"/><path class="cls-2" d="M2161.84,237.05c1.27-.27,2.53-.53,3.81-.82.55,3.61.78,7.33,1.71,10.86,2.44,9.22,7.06,10.24,15.53,3.67,3.77-15.57,16.14-20.81,28.54-11.67,5.57,4.12,11.19,5.66,17.79,4,2.43,5.19-.49,10-1.81,14.56-3.42,11.92.6,16.73,14.15,15.81-6-4.94-3.64-11.86-2.74-17.56,2-12.57-3.1-19.11-14.91-21.58-3.32-6.14-9-11.7-3-19.55,5.54-7.33,12.76-7.53,20.61-6.08,18.71,3.46,23.31,2.85,27-14.44,2-9.22,9.25-13.26,18.58-14.88,16.68-2.88,33.2-6.66,49.77-10.08,13.16,8.59,26.18,6.64,39.06-.71,3.44-2,9.39,1.67,10.83-3.93,2.64-10.27,10.25-13.18,19.28-15.08,9.43-2,18.27-4.14,23.05,8,1.09,2.75,5.85,2.79,9.31,2.52,3.57,3.69,7.62,4.54,12.67,3.18,22.44-6.08,33.43-1.12,45.08,19.93-3,9.92-9.74,14.7-19.94,16.38-11.3,1.85-21.13,6.16-28.69,16.22-5.7,7.59-15.44,11.2-24.56,15.33,13.89-5.25,31.8-.39,40-18.18,1-2.29,4.09-3.1,6.74-2.06,15.91,6.23,31.42-.91,47.13-1.27,6.74,1.09,13.25,2.15,16.48,9.7,2.08,4.86,7,5.41,11.87,5.74a123.57,123.57,0,0,1,16.31,1.87c8.35,1.7,15.68,3.42,9.78-9.58-3.14-6.91,2.05-8.44,7.12-7.8a38,38,0,0,1,18.37,7.94c-4.79,2-10.12,4.55-10.17,10.06-.07,5.9,6,7.46,10.61,9.33,6.92,2.8,14,5.26,21,7.87l-.16-.19c-.44,4,1.85,5.23,5.31,5.3l-.2-.28,2.68,2.46c2.66,1.3,5.69,2.15,7.91,4,8.18,6.75,12.52,4.21,15.15-5.26,2.08-7.52,6-11.08,15-8.27,7.92,2.46,16.43,3,24.56,5.53,10.06,3.15,18.38.85,21.74-11,2.85-10,9.59-10.7,19.61-10.57,19.34.24,36.71,12.13,56.57,8,5.59-1.17,10.78,1.78,13.5,7.5-.6,5.52-10.23,9.81-4.54,15.18,4.83,4.56,12.62,4.3,18.08-1.93,15.89-1.39,31.79,2.06,47.89-2.88,9.6-3,19.39,2.58,23.17,13.18,3.31,9.29,8.05,9.34,17.35,8.21,20.68-2.5,42.58-9.28,61.31,7.74,5.62,5.11,11.44,2.17,11.86-4.69.66-10.75,7.41-11.07,14.91-10.91,26.26.57,50,8.19,71.6,23.66,16.34,11.71,31.63,25.18,52.56,29.68,8.8,1.9,18.9,6.24,20.91,17.94-7.64,4.2-17.2,4.75-21.2,15.4-1.79,4.77-25.47-1.43-29.44-7.21-5.1-7.44-21.28-9.46-27.32-2.83a17.85,17.85,0,0,1-13.3,6.19c-9.18.45-10,4.5-4.7,11.27a50.15,50.15,0,0,1,5.23,8.68c2.84,5.71,1.33,8.89-5.48,8.76-23.48-.46-42.65,9.43-59.36,25-5.52,5.15-10.54,8.24-17,1a7.94,7.94,0,0,0-11.62-.42c-8.66,8.27-19,7.32-29.54,6.81-7.61-.36-21.1,18.32-16.57,24.06,6.19,7.85-1.79,17.73,5.62,24.74,1.36,1.29-1.35,3.54-3.21,4.7s-4.76,2.21-4.93,3.61c-2.87,22.78-26.17,32.74-33.07,53-1.39,4.07-5.22,7.72-9.66,7-4.86-.76-3.49-6.07-3.93-9.6-1.51-12.2-4.9-24.07-5.44-36.48-.7-16.43,5.23-29.78,16.57-41.15,11.69-11.71,23.29-23.5,35.11-35.09,2.67-2.62,5.75-5.52,9.17-6.55,8-2.41,9.74-8.74,11.63-15.35.71-2.45,1.84-5.25-1-6.83a4.92,4.92,0,0,0-7.26,3c-2.76,9.57-13,10.05-18.61,16.17-3.73,4.09-7,1.55-10.65-1.81-11.18-10.32-17.77-10.72-28.18.43-6.71,7.18-20.24,10.2-16.44,25.61,1.13,4.56-8.24,4-12.88,5.21-4.06,1.09-9.61,1.59-10.74-3.68-3-14.11-14.12-9.13-19.56-6.14-9.16,5-17.35,3.53-25.61,1.09-20.57-6.06-32.9-2.07-47.67,14.27-12.5,13.82-24.39,28.29-38.63,40.49-4.78,4.1-11,8.58-.87,14.09,3.38,1.83,2,6.27,3.54,9.2,2.06,4,4.79,8.05,9.59,3.49,3.91-3.71,7.32-7.72,12.93-3.54,6.62,4.94,12.62,10.65,11.58,19.91-3.18,28.48-11,55.2-30,77.63-7.66,9-14.85,18.51-22.52,27.56-3.37,4-7.18,6.83-13.26,3.89-11.87-5.72-25.52-.16-30,13A25.13,25.13,0,0,1,2616,649.27c-7.75,5.42-10.11,11.82-3.08,20.25a44.79,44.79,0,0,1,10.38,24.26,21.6,21.6,0,0,1-18.1,23.93c-5.19.85-5.88-2.12-5.43-6,.49-4.21,1.35-8.38,2.06-12.57,1.55-9.11,3.31-17.83-10.22-19.73-4.45-.63-8.2-4.78-5.18-10.7,2.56-5,1.07-9.3-3.31-12.18-5-3.29-9.58-1.3-14,2.08-2.85,2.19-5.9,6.85-9.65,4.23-4-2.8-.43-6.9,1.12-10.2,1.21-2.58,1.54-4.9-1.18-6.61a6,6,0,0,0-7.19.37c-8.49,6.91-15.78,15.07-25.63,20.62-5.61,3.15.07,8.17,2.3,11.88,2.42,4,5,8.44,11,5.27,3-1.57,5.7-4.21,8.83-4.76,5.74-1,14-2.67,16.4,2.73,2.7,6.13-6.06,6.48-10,9-15.75,10.13-17.72,21.62-7.95,37.41,11.91,19.25,18.09,39.29,2.14,60a51.1,51.1,0,0,0-7.73,14.54c-7.16,21.14-23.19,31.31-43.46,37.07-12.84,3.65-26.79,5.65-33.91,19.67-2.15,4.24-5.93,2.68-8.38-.19-7.49-8.78-14.76-4.37-21,.91-7.72,6.5-13.49,14.45-8.66,25.58,2.42,5.58,6.66,9.77,10.58,14.23,11.28,12.83,18.65,27.27,18.14,44.88-.23,7.65-2.42,14.31-9.86,17.92-8,3.86-17.39,4.75-21.59,15.12-1.58,3.88-6,3.56-7.8-3.4-4.45-17.18-18-27.74-31.58-37.74-4.1-3-5.7.12-6.85,4-7.48,25-6.29,47.54,17,64.59,8.24,6,13.37,14.11,11.35,25.27-.81,4.42,2.33,8,4,11.88,1.15,2.73,2.58,5.68-.6,8-2.66,2-5.58,1.76-8.4.25-11.35-6.08-17.12-16.2-19.33-28.32-1.3-7.13-1.4-14.83-5.7-20.67-9.75-13.26-10.53-28.16-10.07-43.62.56-18.54-4.42-36.13-10.18-53.46-3.55-10.67-7-11.19-14.35-2.83-2.92,3.32-5.62,7-10.5,5-5.14-2.1-3.5-6.64-3.31-11,.5-11.63,2.55-23.57-12.37-29.82-5.31-2.22-6.06-10.68-7.31-17-1-4.83-3.1-9.29-8.13-10.38s-5.67,4-7.52,7.14c-.42.72-1,2-1.45,2-16.87.19-24.41,14.75-36.05,23-2.74,2-5.74,3.45-7.83,6.16-9.26,12-21.76,20.35-33.91,28.81-9.34,6.5-8,15-7.54,23.83.89,18.13-1.93,35.26-14.07,49.66-4.69,5.56-9.43,9.38-14.05-.46-15.06-32-23.17-66.26-32.54-100.14-2.74-9.93,2.79-20.48-3.51-30.36-3.6,5-5.43,12.82-13.09,11.11-6.06-1.36-11.15-7.54-11-12.77.22-9.89-6.91-14.1-11.93-19.7-4.19-4.66-9.63-8-12.37-14.18-2.51-5.62-7.61-4.43-12.2-3-19,5.74-37.93.62-56.89,0-4.77-.15-7.46-3.31-9.19-7.63-3.41-8.51-9-10.85-16.92-5.35-6.67,4.62-12.32,2.94-18.46-1.82-9.32-7.23-16.73-15.79-20.86-26.75-2.67-7.06-7.37-9.75-14.45-10.05-9-.39-12.54,4-8.37,11.66,7.79,14.31,16.18,28.37,25.35,41.84,6.68,9.81,21.64,11.77,29.6,3,8.61-9.44,12.72-7.24,18,2.26,2.5,4.47,7.74,6.18,12.55,8.18,11.78,4.86,14.13,12.32,9.33,24.2A85.54,85.54,0,0,1,1995.56,891c-26.68,16.79-51.61,36.67-82.62,45.9-11.23,3.35-18,.62-19-10.91-2-25.43-11.92-47.3-27.77-66.88a13.26,13.26,0,0,1-2.7-7c-1.74-25.59-18.76-44-30.29-64.94-3.77-6.87-9.15-6.75-15.1-4.38-7.86,3.14-3.81,9-1.36,12.56,9.44,13.65,15.69,29.1,22.09,44,7,16.18,12.36,33.17,18.94,49.64,7,17.45,17.28,30.37,29,43.49,2.82,3.16,5.93,6,7.24,10.29,5.93,19.48,14.59,23.86,34.56,16.5,6.46-2.37,13-3.6,19.57-5.24,8.63-2.16,13.16,1,10.68,9.53-8.94,30.57-17.33,62.18-45.47,81.44-18.31,12.54-29.89,31-45.58,45.76-7.75,7.29-8.42,19.36-7.31,30.11,1.13,11,3.14,22,7.69,32.1,6.1,13.53,5.39,27.86,3,41.3-2.47,14.06-17.17,17.89-28.47,22.7-20.63,8.76-24.38,14.77-18.42,36.25,4.14,14.93,2.39,19.5-11.87,26-6.43,2.94-8.28,7.35-9,13.81-3.52,31-40.18,64-71,64.09-9.59,0-18.22,3.33-27.14,6.1-17.66,5.47-23.91,0-24.26-18.43-.3-15.24-8.91-28.09-15.4-41.17-7.59-15.31-14.29-30.66-17.79-47.46-2.18-10.45-7.24-19.83-12.79-29-6.89-11.35-12.36-25.13-3.52-35.9,20.64-25.13,9.4-50.51,4.06-76.11-2.62-12.58-10.68-21.88-20.31-29.94-8.35-7-11.22-15.41-7.57-26.13a68.77,68.77,0,0,0,3-16.22c1.47-17.51-5.07-23.69-22.29-20.18-7.57,1.55-11.17-1.15-13.65-7.55-5-12.83-15.06-15.86-27-12.28a483.28,483.28,0,0,1-81.43,16.82c-8,1-14-2.52-19.89-6.71-8-5.73-14.55-13.23-20.06-21.21-11.09-16-22.19-32-34.91-46.88-5.91-6.9-6.78-15.48-5.23-24.15a240.84,240.84,0,0,0,2.64-70.93c-1.87-16.12,8.33-29.12,17.82-41,8.17-10.23,17.74-19.44,27.37-28.37,6.75-6.25,10.5-13,9.72-22.29-1.26-15,6.06-26,17.25-34.89,8.41-6.68,30.12-15.05,41.32-16.86,4.54-.73,9.74-1.56,13.18-4.23,16.21-12.6,34.75-14.27,54.25-13.8,11,.27,22-1.52,33-1.81,13.53-.35,16.3,2.63,16,16.51a62.8,62.8,0,0,1-1.8,12.53c-1.62,7.12,1,12.05,7.86,13.55,16.18,3.52,29.75,11.91,43,21.31,5.27,3.75,11.6,5.21,17.93,6.15,7.87,1.17,12.78-.79,13.53-10.32,1-13.3,7.18-16.5,19.91-10.53,15.09,7.08,30.22,12.95,47.11,14.59,16.7,1.63,32.94-2.37,49.47-2.1,5.43.08,9.62-3.33,12-8.28a76.36,76.36,0,0,0,7.56-40.78c-.69-7.43-5.27-10.43-11.24-6.81-9,5.5-17.39,5.44-26.35.75a8.33,8.33,0,0,0-3.76-.45c-24.5.33-31.57-5.68-35.19-28.88-1.36-8.77,1.83-13.64,10-16.31,13.68-4.45,27.24-9.28,40.85-13.94,7.48-2.56,15.11-3.67,21.92,1.24,11.72,8.44,25,6.89,38.1,6.59,4.52-.1,9.76-1.08,11.43-6.46,1.83-5.88-.37-11.06-5-14.79-5.58-4.55-11.48-8.73-17.43-12.8-9.46-6.49-13.58-13.73-4.68-23.86,1.89-2.15,2.85-5.13,4.72-8.65-12.42-2-22.15,5.7-33.08,7.53-5.44.92-1.32,5.7.51,7.89,4.56,5.42,3.36,9.27-2.62,11.9-6.42,2.83-9.79-2.63-9.72-6.6.22-12.67-11-10.76-17.21-13.49-6.9-3-9.55,5.52-12.67,10-6.74,9.74-10.38,21.35-18.06,30.64-1.92,2.32-1.62,5.46-.83,8.54,2.88,11.34-2.85,17.27-13.88,13.73-8.94-2.87-14.78-1.55-22.39,5.34-8.11,7.33-5.55,10.69.26,15.74,3.56,3.09,8.23,5.89,4.69,11.38-3.76,5.83-8.65,10.52-16.46,10.17-7.29-.32-7.17-5.61-7.66-10.85a27.69,27.69,0,0,0-6.85-16.13c-3.11-3.52-7-7.66-6.44-12.13,2.85-21.51-16.41-24.22-28-32.59-5.56-4-11.89-6.08-13.45-13.6-.78-3.76-2.9-6.4-6.78-6.44-5.17-.06-10.47-7.09-15.65.93-4.63,7.16.36,10.69,4,15.33,7.54,9.62,14,19.79,26.81,24.21,6.37,2.21,10.69,7.62,5.81,16.3-2.06,3.67.35,9.72.17,14.67-.07,1.86-1.21,4.34-3.82,4.4-2.82.07-3.14-2.35-3.3-4.4-1-13.25-11.12-21.29-20.67-25.53-12.3-5.47-18.09-14.34-23.55-25-7.55-14.67-13.55-15.77-26.25-4.56-5.69,5-11.43,6.69-18.64,3.87-9.57-3.74-15.6-.45-17.73,9.74-.43,2-.65,5.26-1.91,5.84-22.47,10.24-24.6,36.51-41,51.77-6.83,6.35-14.64,3.19-21,6.62-7.84,4.23-13.43,3.49-18.19-4.19-1.4-2.26-4.19-2.64-6.84-2.66-4.79,0-11.34,5.07-13.92-.8-2.92-6.69-5.63-14.84-3.13-22.24,4.43-13.13,7.85-25.33,1.26-39.28-3.56-7.54,6-8.49,10.5-8.77,13.52-.84,27.13-.48,40.69-.12,5.67.15,12.8,4.85,16.27-1.8,3.72-7.12,4.82-17-.34-23.11-6.82-8.12-10.74-19.77-22.9-22.8-2.36-.59-4.9-2.18-4.54-5.34.4-3.57,3.34-4.55,6.27-5.4,18.11-5.24,35.69-11.31,47.76-27.26,1.4-1.86,4.14-3.19,6.5-3.77,8.4-2,14.78-4.8,17.62-14.81,2.07-7.32,11.42-7.74,18.47-9.09,17.4-3.35,20.74-9.31,14-25.44-7.33-17.64-3.54-25.9,14.92-31.6,1.88,9.31,5,18-2.88,26.86-3.68,4.13-2.21,10.95,2.32,15.1,4.32,3.95,9.14,8.19,15.44,2.36,2.39-2.21,5.58-1.31,8.52-.48,11.52,3.23,22.57,2.42,33.27-3.38,4.83-2.63,10.05-5.05,15.36-.63,3.1,2.56,6,1.11,7.61-1.47,5-8.21,15.2-13,13-26.11-1.22-7.39,3.84-15.74,14.7-7.78,5.85,4.29,9.68,1.77,10.32-5.08a38.11,38.11,0,0,0-.59-11.38c-1.75-8.12,2-12.13,9.39-13.52,7-1.32,13.79-3.77,21.29-3.17,4.89.39,11.18-2.42,11.08-7.52-.12-5.79-5.27-9-12-8.49-7.8.64-14.94,2.36-21.18,7.51-5.68,4.68-10.51,3.61-14.9-2.67-5.83-8.33-12.35-15.92-10.62-27.39.79-5.29,1.33-10.26,6-13.28,8.6-5.54,12-15.16,18.11-22.6,5-6,1.23-10.48-4.65-12.75-10.39-4-25.5,4.55-25.94,15.88-.35,8.95-4.72,12.7-11.48,16.29-11.43,6.07-19.88,14.6-20.21,28.61-.16,6.79-.15,12.55,7.82,16.81,8.81,4.7,8.55,16.57-.23,19-14.09,3.85-14.2,14.4-14.55,24.57-.27,7.81-3.27,10.75-10.31,11.26-4.87.35-9.11,1.75-11.42,6.69-1.72,3.66-4.74,4.62-8.49,3.16-3.48-1.37-3.94-4.6-3.48-7.46,2.24-13.93-13.08-21.15-12.91-34.56,0-3.7-4.63-1.95-7.33-.69-6.93,3.23-13.7,6.86-20.83,9.55-8.34,3.16-13.44.66-14.65-9.12a85.27,85.27,0,0,0-5.23-20.75c-3.88-9.78-1.66-16.18,6.49-23.14,14.19-12.11,28.31-24.09,44.41-33.64a12.33,12.33,0,0,0,5.53-8.3l3.86-3.55c11.28-7.91,20.44-18.06,29.31-28.51l4.12-5.2c6.66-4.85,12.56-10.23,11.92-19.6,1.92-2.22,3.85-4.44,5.73-6.64,7.14-.75,10.86-7.53,17.13-9.88,4.15-1.13,8.29-2.26,12.38-3.36,16.7-8.14,36-7.06,53.07-14.47,6.43-2.78,13,2,18.22,6.62,6.07,5.44-1.78,8.9-3.17,13.36,7,0,13.88-2,18.58.35,20.43,10.24,42.9,15.72,62.58,27.62,10.52,6.36,11.77,14.17,2.58,22.38-5.75,5.13-12.48,6.21-20.19,4.86-14.62-2.57-28-8.37-42.15-14.17,11.86,14.35,23.32,28.5,32.46,44.33a2.29,2.29,0,0,0,1,.72c3.86,1.76,8.13,4.31,11.84.92,4-3.61.86-6.76-2.1-9.53-2-1.91-2.86-4.35-1-6.77,2.36-3.13,5.21-1.92,7.91-.34,2.2,1.28,4.27,2.8,6.53,3.94,3,1.52,6.37,3.71,9.47,1.25s.25-5.46-.42-8.19c-1.48-6,1.79-9.64,6.17-12.77,4.18-3,7.63-2.17,11.19,1.47,4.71,4.82,7.56,1.94,8.84-3.12,1.95-7.77,3.31-15.69,5.29-23.46,1-3.8,3-7.15,7.87-6.77,4,.31,7.75,1.35,9.62,5.16,2.1,4.27,0,7.12-3.85,9.3-3.58,2-6,4.86-4,9.41a7.93,7.93,0,0,0,8,5.15c4.14-.11,9.5.7,10.78-4.5,3.48-14.17,15.09-17.25,26.63-20.32,7.1-1.9,14.2-9.08,21.52-3.72,6,4.39,11.92,5.46,18.69,5.72,2.09.08,5.25.09,3.7,5.28-4.08-4.45-4.71-10.55-.24-10.38,8.93.34,18.57-4.8,26.49,0,11.34,6.86,14.78.46,16.57-8.29s6.91-10.59,14.57-10.6c14.64,0,25.78,7.22,36,16.56,3.16,2.89,5,9.48,10.87,5.64,5.08-3.35,2.34-8.49.34-12.64-8.46-17.52-9.1-32.55,6.28-48.33,12.76-13.1,15.35-16.4,32.91-10.42l-.14-.16c1.44,14.84-5.89,29-1.45,44.72,1.8,6.36-.66,14.33,4.74,20.75,3,3.61.79,7.84.29,12-1.29,11-13.46,12.83-18,21.25,7.87,4.73,13.31,4.8,19.38-2.38,5.74-6.81,12.36-11.61,10.63-22.51-1.13-7.11,4.19-12.52,12.49-12.92,8.55-.41,9.29,5.66,9.77,11.81.26,3.4.32,6.78,2.44,9.69,1.28,1.75,2.7,3.54,5.15,2.4,1.73-.8,1.49-2.56,1.52-4.33.34-19.52-7.19-27-25.35-24.47-7.38,1-10.8-.76-11.05-9.12C2156.82,259.39,2154.84,247.69,2161.84,237.05Z"/><path class="cls-2" d="M1368.1,83.08c21-12.83,43.37-11.18,66-6,3.29.76,4.7,3.24,5.13,6.39-11.1,6.28-22.34,12.39-35.16,14.07-16.81,2.2-23.68,18-36.15,26.19-5.46,3.6-1,9.59,4.26,13.17,4,2.73,10.72,3.9,10.23,10.13-.57,7.28-7.87,4.57-12.17,6.36-3.77,1.57-9.21,2.14-8.78,7.58.35,4.42,5,3.55,8.25,3.93,2.62.3,6.08.79,5.91,3.6-.64,10.35,8.65,20.87-3,31.48-5.24,4.77-8.47,7.53-15.53,6.87-11.77-1.11-23.72-4.57-35.37,1.68-3.12,1.67-9.92-2.21-9.73,4.28.16,5.15,6.24,4.63,10.34,5.09,5.92.66,11.87,1.21,17.08,4.47A54.87,54.87,0,0,1,1355,237.23c2.51,3.5,5.55,7.67,1.08,11.16-4,3.12-8,.41-11.3-2.67-1.54-1.45-2.9-3.09-4.39-4.6-9.32-9.55-28.66-7.18-35.34,4.35-2.8,4.82-.73,7,4.23,7.62,11,1.35,21.91,2.48,33,2.06,3.44-.13,8.8-1.32,8.59,4.5-.18,4.82-4.94,5.61-8.75,5.28-9.37-.82-14.43,5.06-21.47,9.95-11.82,8.2-26.86,13-41.89,10.26-10.59-1.95-16.24.83-18.86,10.88-3.55,13.63-17,16.92-26.32,24.32-4.67,3.72-9-1.11-11.62-6.26-3.52-7-6.31-5.15-8.93,1-7.25,17-18.06,32.63-28.65,47-7.25,9.85-10.83,16.11-8.15,27.43,1.34,5.7-1.88,11.61-4.68,16.9-4.18,7.87-9.78,9.69-15.69,2.16-4.62-5.86-9.87-8.26-17.36-8.52-10-.33-17.86-5.34-21.87-14.9-4.67-11.17-12.4-21.48-9.76-34.79.58-2.93-.11-6.43-3.09-7.84-13-6.17-13.12-19.91-18-30.7-3.5-7.75.07-12.6,8.57-14.74,12.1-3.06,18-26.64,9.28-35.48-3-3-6.16-2.42-9.28-.64-3.71,2.11-7.31,4.36-11.81,4.14-3.88-.19-8.28-.36-9.76-4.47-1.63-4.55,2.34-6.91,5.66-8.73,4.46-2.44,9.11-4.53,13.79-6.53,6-2.56,5.83-7.33,3.31-11.56-2.93-4.94-6.59-2-9.25,1-5.86,6.58-12.64,7.32-19,1.81s-1.3-10.78,2.07-15.54a13,13,0,0,0,2.69-8.21c-.36-13.83-25.37-42.83-39.09-44.51-7-.85-13.14-2.76-18.46-7.49-8.55-7.62-17.69-7.38-26.78-1.13-6,4.12-12,8-19.34,9.26-6.18,1.09-11.52-.81-13.47-6.76-2.3-7.05,3.53-9.52,8.74-11.71,3.55-1.49,10.31-.21,9-6.21-1.16-5.4-7.5-4.78-12-4.28a168.9,168.9,0,0,0-18.74,3.52c-5,1.16-10.09,1.93-15.1.59s-11.32-2.81-11.55-8.39c-.23-5.78,6.62-5.29,10.8-6.59,10.79-3.34,22.55-3.19,32.24-10.69,4.49-3.48,10.69-.77,16.13-.08,3.39.43,7.83.85,8.61-3.15.82-4.26-3.21-5.09-6.85-5.37-4.48-.34-10.21.58-10-6.54.18-6.93,5.31-9,11.1-10.11,14.8-2.75,30.67-1.53,43.48-11.71,9.67,1,17.39-2.41,23.39-10,6.45-8.15,15.53-8.27,23-3.92,8.72,5.1,16.46,3,25.28,3.35,16.08.64,31.78-9,48.11-.88,8.63,4.27,18,4.37,18.66-9.68a5.93,5.93,0,0,1,5.82-5.83c11.07.35,22.56-5.82,33.19,2.09,4.57,3.41,9.85,3.88,14.13.19,6.8-5.86,14.29-6.62,22.59-5.25,2.47.41,5.48.88,7.55-.12,33.31-16.12,65.45.29,98.06,3.28,3.66.34,6.2,2.48,8.32,5.27-3.4,5-8.19,6.64-14.1,6.24a72.56,72.56,0,0,0-22.46,1.6l-.21,0-5.16.75a24.66,24.66,0,0,0-13.26,2c-6.17-2.21-12.43-2-18.58-.21-4.09,1.16-8.73,3-8.11,8.08s5.68,6.52,9.75,6.17c8.3-.71,16.51-2.55,24.76-3.92,6.36,1.11,12.7,1.66,18.82-1.18,14.34,6.88,24.22-1.4,34-10l5.09,3.62a26.74,26.74,0,0,1-7.09,11.5c-2.23,2.17-8.65,3-5,8,3,4,7.53,2.13,11.32,0C1362.68,90.3,1366.32,87.62,1368.1,83.08Z"/><path class="cls-2" d="M768.78,227.08c5-11.52,16.2-13.83,26.33-17.59,2.7-1,6.13-1.43,7.9,1.86,1.49,2.79-.43,5.29-2.54,6.46-10.08,5.62-9.92,12.23-2.59,20,.81.85.91,2.35,1.45,3.5,2.19,4.65,1.81,13.83,8.56,11.85,7.73-2.26.73-9.12.16-13.92-1.38-11.55,13-28.25,22.49-24.11,11.18,4.86,21.14,2.38,31.59.23,7.44-1.53,13.57-.8,17.2,6.71,2.22,4.6,6.63,5.87,10.6,8.31,12.28,7.55,21.22,22,39.14,17.12C931,247,933,250.4,933.78,253c1.89,6.18,5.49,7.79,11.62,5.27,8.69-3.58,13.87,2.53,17.68,8.48,4.18,6.52-.75,9.67-6.47,12.13-2.93,1.26-2.76,4.12-.13,6,4.44,3.21,9.16,8.94,13.55,8.74,14-.62,22.05,10.86,33.75,14.28,3.62,1.05,6.34,2.46,6.78,6.44.49,4.5-.54,8.43-4.66,11-9.58,6.08-18.66,7.7-26.75-2.55-3.48-4.39-7.36-8.34-13.82-7.48-8.18,1.1-10.8,5.17-5.49,11.92,2.79,3.55,7.18,5.82,10.68,8.85s7.21,6,10.09,9.55c3.71,4.62,8,11.16,3.83,15.87s-10-.65-14.65-3.33a50,50,0,0,0-8-3.76,4.57,4.57,0,0,0-5.64,1.8c-1.78,3.12.76,4.54,3.07,5.68,4.95,2.45,10,4.7,13.72,9a6.49,6.49,0,0,1,1.27,7.12c-1.15,2.54-3.4,2.07-5.4,1.13-14.39-6.8-30.49-9.92-43.3-20.13-4-3.16-8.52-5.83-11.77-9.61-9.57-11.13-13.33-11.58-25.57-2.1-4.14,3.2-8.55,8.77-13.7,1.61-2.75-3.81-8.07-6.93-5-13.23,3.17-6.52,8.26-4.18,13.21-3.41,9.77,1.53,19.68,3.6,22.94-10.28.52-2.24,4.5-3.59,6.73-5.54,9.75-8.5,8.63-24.46-3.5-26.37-16.83-2.65-24.71-15.3-35.71-24.38-7.74-6.39-12.38-7.63-22.92-3.23-15.27,6.37-33.19,4.95-50.14,4.17a13.34,13.34,0,0,0-9.82-3.15c-2.7-2.57-5-6.48-8.18-7.45-12.82-3.94-16-13.09-15.13-25Z"/><path class="cls-2" d="M763.11,84.61c-1.75-4-7.14-7.09-3.46-12.35,2.92-4.19,7.32-3.39,11.57-2.44,5.57,1.24,10.91-.15,16.28-1.38,9.07-2.07,17.68-3.08,27.29-.11,11.39,3.52,22.92-2.78,32.78-7.18,16.94-7.54,33.84-5.38,51-5.4,2.51,0,5.41,1.59,7.48.79,23.71-9.19,47,1.69,70.49,1.23,6.32-.12,12.78-.12,19,1,8.44,1.55,16.65,4.25,18.44,14.6-11.25,5.91-23.47,1.83-35.06,3.57-4.45.66-16.54-4-9.94,9.83,1.61,3.36-3.79,5.45-7.1,5.15-10-.93-16.77,3.92-23,11s-14.63,7.7-23.47,6c-13.61-2.63-18.67.69-22.23,14.21-2.29,8.7-9.71,11.13-17,13.61-4,1.37-8.55,1.75-9.12,7.3-.47,4.58,4.54,10.59-2.56,13.39a39.23,39.23,0,0,1-20,2.06c-11.41-1.59-22.47-1.91-34,1.81-10.41,3.39-21.38-1.83-32.22-2.26-3.89-.16-4.53-5.62-1.65-8.11,7.25-6.27,14.59-13.67,25.69-7.79,1.88,1,3.71,2.07,5.64,3,3.35,1.55,7,1.86,9.18-1.41,2.69-4-.89-6.45-3.53-8.2-3.83-2.54-8.3-4.09-12.26-6.45-2.8-1.67-6.78-3.62-5.38-7.55,1.59-4.44,6-4.25,9.82-3,8.59,2.87,16.53,8.41,27.76,6.3-5.82-7.53-14.69-8-20.63-13-3-2.49-6.9-5.15-5.29-9.22,2.18-5.53,6.29-1.58,9.6-.52,15.45,4.93,27.69-5.08,41-9.42,3.8-1.23,0-5-2.68-6.14-5.45-2.29-10.79-1.12-15.95,1.4-11.35,5.55-22.14,5.68-31.59-3.83C803.86,81,798.46,79.5,794,82,783.85,87.83,773.48,84.88,763.11,84.61Z"/><path class="cls-2" d="M1371.46,356.79c-13,3.13-22.22-5.57-31.61-13.47-3.67-3.09-10.23-7.18-6.09-11.93,3.62-4.15,11.16-7.48,17.32-4.49,14.16,6.87,29.32,4.76,42.09.4,12.94-4.42,19.46,3.87,26.87,8.25,5.61,3.3-2.09,11.61-6.09,12C1399.59,349,1387.54,359.81,1371.46,356.79Z"/><path class="cls-2" d="M722.35,112.08c-2.2-3.64-5.22-8.56.6-10.32,11.76-3.54,21.69-15.27,36-8.61,2.09,1,4.92.38,7.42.52,8.08,2.37,15.37,6.87,23.86,8.16,4.44.67,8.21,4,8.35,8.37.14,4-4.92,3.78-7.86,5a101.43,101.43,0,0,1-30.6,7.92c-2.84.27-6.59.72-7.82-2.59-1.51-4.07,2.6-4.52,5.07-5.74,1.88-.93,4.49-1.58,3.41-4.26-1.24-3.06-4.28-2.28-6.66-1.71C743.67,111.37,733.61,117.49,722.35,112.08Z"/><path class="cls-2" d="M883.05,305.68c-3.16-.12-6.55-.16-6-4.36.47-3.7,3.27-5.65,7-5.72,3.06-.06,6.64.94,6.8,4.08C891.09,304.58,886.21,304.49,883.05,305.68Z"/><path class="cls-3" d="M122,453.44c24.68-5.57,44.78-19.71,65.85-32.82,10.1-6.29,19.16-11.49,27-21.1a50.18,50.18,0,0,1,46.73-17.83c23.35,3.59,46.54,9.82,69,17.34,19.31,6.47,34,22,51.73,31.78,27.49,15.25,46.78,36.7,56.08,67.22,2.13,7,8.21,13.12,14.85,17.08,15.57,9.31,18.72,23.83,16.13,39.73-3.33,20.44-1.87,40.6.36,60.87.19,1.69-.34,3.9.55,5,14.87,18.47,19.92,44.67,43.7,56.1,4.44,2.13,8.18,4.85,10.1,9.22,8.53,19.38,19.31,37.82,29.55,56.07,9.59,17.11,22.38,33.33,34.68,49.28,1.28,1.66,3.41,3.35,5.34,1.47,2.15-2.09,1.07-5.22-.38-7.07-8.38-10.76-11.29-25-21.18-34.56-9.17-8.89-13.9-20.1-19.06-31.24-2.37-5.12-3.15-10.38,2.2-13.52,6.92-4.07,8.36,2.71,10.9,6.79,16.55,26.61,35.4,51.62,53.92,76.85,6.65,9.06,12.77,17.21,9.9,29.86-2,8.94,13.26,27,25.65,30.28,16.35,4.35,30.66,12.11,44.28,21.64,5.41,3.79,11.25,5.12,16.34.36,8.88-8.31,17.56-4.18,21.29,3.31,8.81,17.65,26,19.88,41.24,25.93,4.68,1.86,8.52,4,10.57,8.34,9.7,20.53,27.75,33.57,43.07,49.14,6.45,6.55,10.3,6.39,16-.54,8.8-10.63,10.09-10.17,18,1.57,10.13,15,10.63,31.81,9.29,49-.41,5.25-4.44,7.85-7.66,11.21-14.49,15.14-27.35,30.92-18,54.06,1.69,4.2-.49,7.43-3.16,10.31-7.65,8.23-6.74,17.54-1.58,25.91,16.16,26.19,27.6,54.52,38.14,83.18,6.15,16.7,16.2,28.95,32.71,34.77,18.75,6.6,22.54,21.52,22.93,38.26.54,23.06-4.52,45.58-8.64,68.09-3.91,21.37-7.18,42.64-5.43,64.46.65,8.09.81,17-3.31,23.71-12,19.59-11.48,41.74-15.09,63.09-.68,4.07-.41,7.86,2.35,10.76,10.42,10.93,3.09,23.09,2.62,34.75,0,.51-2.08.94-3.19,1.4q-34.21-46.74-68.44-93.48c-23.83-32.5-48.17-64.63-71.44-97.52-70.11-99.12-142.08-196.9-214.38-294.41C480.59,948.3,409.39,847.36,336.1,747.94c-48.87-66.28-96.43-133.54-145.7-199.52C167,517.14,143.9,485.75,122,453.44Z"/><path class="cls-3" d="M2146.73,224.36c-17.56-6-20.15-2.68-32.91,10.42-15.38,15.78-14.74,30.81-6.28,48.33,2,4.15,4.74,9.29-.34,12.64-5.83,3.84-7.71-2.75-10.87-5.64-10.25-9.34-21.39-16.58-36-16.56-7.66,0-12.8,1.91-14.57,10.6s-5.23,15.15-16.57,8.29c-7.92-4.8-17.56.34-26.49,0-4.47-.17-3.84,5.93.24,10.38,1.55-5.19-1.61-5.2-3.7-5.28-6.77-.26-12.7-1.33-18.69-5.72-7.32-5.36-14.42,1.82-21.52,3.72-11.54,3.07-23.15,6.15-26.63,20.32-1.28,5.2-6.64,4.39-10.78,4.5a7.93,7.93,0,0,1-8-5.15c-2-4.55.41-7.39,4-9.41,3.86-2.18,6-5,3.85-9.3-1.87-3.81-5.66-4.85-9.62-5.16-4.87-.38-6.9,3-7.87,6.77-2,7.77-3.34,15.69-5.29,23.46-1.28,5.06-4.13,7.94-8.84,3.12-3.56-3.64-7-4.45-11.19-1.47-4.38,3.13-7.65,6.79-6.17,12.77.67,2.73,3.45,5.79.42,8.19s-6.47.27-9.47-1.25c-2.26-1.14-4.33-2.66-6.53-3.94-2.7-1.58-5.55-2.79-7.91.34-1.83,2.42-1,4.86,1,6.77,3,2.77,6,5.92,2.1,9.53-3.71,3.39-8,.84-11.84-.92a2.29,2.29,0,0,1-1-.72c-9.14-15.83-20.6-30-32.46-44.33,14.14,5.8,27.53,11.6,42.15,14.17,7.71,1.35,14.44.27,20.19-4.86,9.19-8.21,7.94-16-2.58-22.38-19.68-11.9-42.15-17.38-62.58-27.62-4.7-2.36-11.6-.35-18.58-.35,1.39-4.46,9.24-7.92,3.17-13.36-5.19-4.64-11.79-9.4-18.22-6.62-17.12,7.41-36.37,6.33-53.07,14.47,1.93-11.32-7-17.67-12.3-25.21-16.48-23.55-33.92-46.44-51-69.56-1.75-2.37-4.05-4.39-4-7.67a60.74,60.74,0,0,1,7.24,2.09c13,5.49,27.2-.17,33.63-13.35,1.36-2.8.12-8,4.58-7.94,4.28.05,7.72,3.78,9.82,7.26,7.36,12.26,13.66,13.87,26.15,5.91-11-9.9-25.95-15-33.93-28.46l1.89-2.18c11.62.38,23.17-.81,34.89.78,12,1.62,20.06-6.12,26.55-15.37,26.67,32.36,50.27,67,75.42,100.53,19.31,25.73,38.28,51.72,57.26,77.7,3.71,5.09,6.94,6.77,13.7,4.06,7.15-2.86,15.19-1.5,19.23,6.88,3.91,8.13,7.87,7.13,14.78,2.62,9.78-6.38,22.05-7.83,32.36-13.77,4-2.33,8,1.35,11.57,3.59s6.76.68,9.19-1.62c3.18-3-.46-5.31-1.76-7.67-6.87-12.5-19.64-21.36-22.43-36.39,7.73-2,12.81.48,12.57,9-.14,5.22,2.73,5.16,6.26,5.69,4.16.63,8.25,1.78,12.36,2.71,6.24,9.76,13.84,8.06,21.27,2,8.15-6.7,7.66-15.4,1.31-22.26-6.87-7.42-15.39-8-22.72.66-6.71-9.7-3.95-22,7.24-28.37a151.56,151.56,0,0,0,30.53-22.28c4.52-4.32,9.57-8.47,16.48-8.64,7.14,16,21.14,25.81,33.29,37.29,2.5,2.35,5.35,2.3,7.89-.15,3.1-3,2.68-6.23-.25-8.77-11.4-9.9-19.93-22.87-33.08-30.88,8.41-6.3,18.72-5.4,28.24-7.49-1.45,10.85,7.13,27,16.2,31.57,5.12,2.56,7.1-1.31,9.19-4,6.84-8.79,12-6.66,16.91,1.8C2137.91,210.32,2145.3,215.51,2146.73,224.36ZM2059,259.62c-20.81-5.77-27.13,9.5-37.06,18.09-2.92,2.52-5.28,6.1-1.21,9.63,3.26,2.82,7.06,2.79,10.25-.28C2039.88,278.47,2048.67,269.73,2059,259.62Z"/><path class="cls-2" d="M506.64,213.37c16.28-.9,29.78,6.43,44.34,12.48,10.94,4.55,24,10.2,37,6.07,7.46-2.37,11,1.16,14.79,6.14,1.51,2,3.6,4,6.41,3.24,3.26-.9,2.38-3.66,2.43-6.24.22-9.61,11.2-17.95,20.49-16.13,6.71,1.31,3.68,4.68,2.42,8.33-4.62,13.38,2.66,25.38,16.93,27.53,4.58.69,9.47,1.38,8.88,6.63-.63,5.55-1.8,12.32-9.55,13.2-5.07.58-11.14,1.35-14.87-1.84-11.86-10.16-24.38-4.14-36.13-1.74-15.44,3.16-30.11,7.94-44.56-3.22-2.67-2.07-8.2-.29-12.38-.61-3-.23-8.08,2.11-8.39-2.57-.35-5.25,5-4.66,8.67-4.72,9.58-.14,19.17-.05,30.19-.05-2.74-6.1-6.73-9.65-10.1-9.31-14,1.44-23.85-10.23-37.3-10.53-7.48-.17-10.1-4.16-3.16-10.25,1.9-1.66,6-3.57,2.92-6.92-2.37-2.53-5.41-.48-8.08,1-8.69,4.87-13.88,13.71-21.93,19.21-8.61,5.87-17.43,11.36-27,1.08-1.54-1.66-4.61-1.9-7-2.81-11.08-11.56,2.22-19.07,5.71-27.28,3.7-8.71,13.7-7.1,21.13-3.46C494.58,213.57,500.17,215.25,506.64,213.37Z"/><path class="cls-3" d="M100.34,372.52c17.2,7.66,34.18,15.41,48.52,28.32,5.61,5.05,14.63,2.73,22.08,3.31,9.49.73,8.83,3.34,4.38,10.49-7.34,11.79-19.23,15.58-30.66,20.59q-20.11-27.54-40.19-55.11C102.8,377.81,101.7,375.07,100.34,372.52Z"/><path class="cls-2" d="M533.75,160.45c-18.75-1-35.93,6.38-53.81,10-2.26-3.65-5.2-7.82.22-10.74,16.15-8.69,33.44-12.72,51.84-10.9,1.39.14,2.62,2,3.93,3-2,2.59-3.81,5.23-2.42,8.76Z"/><path class="cls-3" d="M614.33,161.77c-4,6.57-7.88,2.72-12.57.48s-13-6.76-8.35,5.89c2,5.28-2.17,5.17-5.53,5.59-9.69,1.22-17.13-2.46-22.72-10.27q-2-2.7-3.93-5.4v.31c-.7-2.23-1.39-4.46-2.09-6.7,13.7,2,26.93,2.53,35.44-11.49C602.92,145.77,604.9,157.18,614.33,161.77Z"/><path class="cls-3" d="M100.4,343.8c14.77-3,30,1,44.8-3,3.26-.9,8.5-.13,7.54,5.56-1.18,7-5.49,12.2-13.11,10.08-11.31-3.13-21.37-1-31.25,4.29C108.48,353.77,101.82,350,100.4,343.8Z"/><path class="cls-2" d="M594.59,140.18c-8.51,14-21.74,13.48-35.44,11.49C566.09,132,582.12,126.77,594.59,140.18Z"/><path class="cls-3" d="M103,303.71c12.73,4.35,25.49,8.61,38.16,13.13,3,1.07,7.63,2.09,7,6.08s-5.41,3-8.6,3.54c-9.71,1.53-18.2-2.18-26.57-6.31Z"/><path class="cls-2" d="M1666,307.79c-8.87,10.45-18,20.6-29.31,28.51C1647.12,327.48,1654.19,315.23,1666,307.79Z"/><path class="cls-3" d="M1368.1,83.08c-1.78,4.54-5.42,7.22-9.47,9.46-3.79,2.09-8.36,3.95-11.32,0-3.7-5,2.72-5.8,5-8a26.74,26.74,0,0,0,7.09-11.5Z"/><path class="cls-2" d="M1682,283c.64,9.37-5.26,14.75-11.92,19.6C1673.89,295.91,1680,290.72,1682,283Z"/><path class="cls-2" d="M1704.85,266.47c-6.27,2.35-10,9.13-17.13,9.88C1692.37,271.16,1696.93,265.9,1704.85,266.47Z"/><path class="cls-2" d="M533.51,160.61c-1.39-3.53.42-6.17,2.42-8.76l6,6.67C539.56,160.87,536.83,161.94,533.51,160.61Z"/><path class="cls-4" d="M100.56,344a2.08,2.08,0,0,0,0-.25l-.16,0Z"/><path class="cls-2" d="M94.64,338.64c3.07.6,6.08,1.25,5.92,5.39Z"/><path class="cls-2" d="M1226.06,1098.8a13.6,13.6,0,0,1-8.57-8.66c-.67-1.08-1.34-2.17-2-3.23-12.48-8.93-27.11-9.45-41.47-9.56-7.68,0-12.42-2.11-16.78-8.58-11.18-16.59-19.64-17.65-34.63-5.33-10,8.23-16.32-3.2-24-5.34-5.48-1.53.27-8.56,2.84-12.39,4-6,9.62-11.75,7.14-19.48-1.93-6-4.76-11.69-6.18-18-2.87-12.78-23.94-29.07-36.94-26.7-12.1,2.2-19.1-2.06-25.48-11.38-3.76-5.48-8.59-10.87-14.16-14.29s-8.56-6.64-11-13.17c-4.3-11.46-19.3-15.39-27.05-9.15-6.28,5-29.5,2.37-33.43-4.7-3.3-6-6.28-10.26-13.63-7-7.09,3.16-14.49,6.11-11.09,16.59,1.13,3.52,1.62,7.63-4.32,10-4.16-7.51-2.76-15.4-2.12-23.23.54-6.66-1-9.82-8.69-6.32-11.21,5.14-23.44,8.51-24.92,24-.27,2.86-3.79,5.42-5.84,8.09-4.25,5.53-8.44,5.8-11.41-.88-5.47-12.32-12.62-12.72-22.88-5-8.62,6.46-16.82,3-22.39-6.5-8.91-15.21-6.78-31.16-3.71-46.91,2.56-13.18-4.48-22.79-18-21.52-6.71.63-13.32,2.28-20,3.49-6.33,1.15-8.92.07-8.39-7.83,1.11-16.71,4.65-32.56,12-47.52,3.41-7,.43-9.39-6.07-9.84-12.61-.85-19.86,6.22-23.91,17.07-3.7,9.93-7.68,19.52-20.17,19.92-13.92.45-25.35-3.07-32-17.65-4.52-9.84-8.66-19.16-8.16-30.17.61-13.53.48-27.1,1.4-40.6,1.62-23.84,23.63-45.61,49.59-33.58,7.84,3.63,15.15,3.07,22.68-2.34,12.77-9.16,36.08-8.39,48.79,1,3,2.19,7.42,6.4,6.86,8.54-3.74,14.35,7.83,23.68,10.6,35.74.63,2.73.21,6.77,4.39,6.5,3.8-.25,5.66-3.49,6.25-7.08a50.57,50.57,0,0,0-4.06-29.78c-10.18-22.51-8.39-31.62,9-48.75,5.73-5.66,11.73-11.07,17.85-16.32,6.33-5.42,9.37-12,11.91-20.12,5.5-17.59,11.63-35.63,27.86-47,9.51-6.69,21-11,21.85-25.57.19-3.31,4.61-7.53,8.12-9.28,13.28-6.64,25.89-15.42,41.56-16.14,1.34,5.83-3.38,6.42-6.22,8.54-3.35,2.5-3.5,6-1.27,9,2.69,3.58,5.14.35,7.52-1.17,8.92-5.73,17.81-11.19,28.47-13.75,4.44-1.07,8.27-5.66,11.8-9.22,2.26-2.28,2.28-5.68-.94-7.61a4.13,4.13,0,0,0-6.27,2.3c-3.58,10.11-9.73,6-16.39,3.89-8.3-2.58-12.81-9.11-18.73-14.46-7-6.34-8.54-9.5,2.62-10.81,3.09-.36,5.75-2.07,5.08-6s-3.7-4.52-6.74-4.37-5.79,1.35-8.71,1.51c-12.56.7-20,12.73-32.09,14.33l-.31-.33c7.32-18.51,31.56-34.33,56.25-29.45,22.19,4.39,38-4.65,55.3-13.5,5.55-2.85,10.15-7.7,9.2-14-1.08-7.1-8-6.41-13.47-6.34-7.36.1-14.71.68-26.45,1.27,16.83-9.63,12.62-15.65,2.91-23.36-5.56-4.41-13.58-7.21-15.48-16-1.81-8.41-7.21-15.28-12.06-22.24-9.5-13.61-10.25-13.6-18.46.36-4.08,6.95-10,11.19-17.82,8.68-7.5-2.39-17.89-.51-18.75-14.2-.68-10.83-28.51-30.48-39.67-30.55-6.8,0-13.6.16-20.38-.14-9.66-.44-13.08,6.49-10.77,13,3.28,9.29,4.46,16.47-2.76,24.35-3,3.28,1.84,5.51,4.34,7.65,13.25,11.32,12.77,24.3-2.56,32.5-8.75,4.69-9.82,10.73-8.32,18.68,1.33,7.1,3.41,14.11,1.77,21.39-1.82,8.11-5.72,11.5-13.25,5.16-10.41-8.76-17.52-19.42-18.89-33.31-.53-5.34-1.37-10.74-8.33-10.55-20.31.55-36.57-9.35-52.58-19.94-4.85-3.21-10.18-5.09-15.67-3.56-9.05,2.51-16,3-16.7-9.32-.08-1.48-2.64-3.91-4.24-4.07-12.29-1.25-10.36-9.61-9.72-17.88.84-10.94,7.93-18.15,15.71-23.62,7.49-5.27,10.39-9.21,1.3-16.43,3.17-.14,4.59-.63,5.61-.18,7.16,3.15,14.28,8.47,20.55-1.69.7-1.14,4-.5,6.09-1,3.49-.85,8.57.35,9.38-4.64.73-4.55-4.35-5.69-6.8-8.41-2.22-2.46-6.82-.73-9-7.24,13.84,7.15,24.5,4.54,33.75-5.79a7.42,7.42,0,0,1,10.51.08c11.36,10.9,16.78-.83,24.19-6,9.52-6.64,1.67-9.05-2.52-12.69-.55-.48-.37-2.57.2-3.46,7.41-11.48-2.6-9.09-8-10-4.57-.75-9.24-1-13.86-1.41L806,290.24c2.94,11.28-6.22,17.34-12.61,21.81-6.17,4.31-11.38-3.53-13-9.66-2.25-8.67-4.3-13.69-13.93-6.36-4.88,3.71-6.19-.83-6.29-5.08l-.25-.27c-11.27-5-19.35-13.73-24.6-24.35-3.43-6.93,4.36-9.83,8.42-13.83,3.06-3,9.68-4.65,7.38-10.28-1.91-4.71-7.52-2.34-11.55-2.27-20.44.33-20.44.39-19.43,21.37.06,1.26.67,3,.07,3.72-12.53,14.84-.4,19.38,10.15,24.62C733,291,736,292.31,736,295.82c0,3.9-2.8,6.15-6,7.43-2.69,1.07-6.14,2.52-8.53,1.7-18-6.18-34.79.49-51.85,4.26-3.91.87-7.4-.24-11.16-.93-15.33-2.84-31.23-9.75-44.76,4.94-2.09,2.27-4.94.56-7-.82-9.1-6.19-18.64-6.33-29.09-3.84-10.19,2.42-19.49-.74-29.23-5.2a257.43,257.43,0,0,0-57.91-18.15,85.43,85.43,0,0,1-34-1.23c-6.68-1.58-13.59-2.84-20.08-.48-10.7,3.91-21.57,3.8-32.61,3.29-7.21-.33-14.64-.9-21.38,1.85-16,6.55-31.35,3.93-47.13-1-9.84-3.07-18.78-9.91-30.26-7.32-16.54,3.73-32.85.24-49.06-3-5.84-1.16-11.58-2.07-17.61-1.59-21.94,1.76-42.57-3.91-62.71-11.8-2-.78-3.17-1.85-5.53-.44-21.24,12.63-42.1,26-65.54,34.5-2.3.84-1.72,3.58-1.6,5.68,12.73,4.35,25.49,8.61,38.16,13.13,3,1.07,7.63,2.09,7,6.08s-5.41,3-8.6,3.54c-9.71,1.53-18.2-2.18-26.57-6.31-4,1-8.19,1.42-11.79,3.16-6.31,3.05-11.32,7.28-6.51,15.33,3,.58,5.94,1.23,5.92,5.14,14.72-3,29.9,1,44.64-3,3.26-.9,8.5-.13,7.54,5.56-1.18,7-5.49,12.2-13.11,10.08-11.31-3.13-21.37-1-31.25,4.29q-4,5.88-8,11.79c17.2,7.66,34.18,15.41,48.52,28.32,5.61,5.05,14.63,2.73,22.08,3.31,9.49.73,8.83,3.34,4.38,10.49-7.34,11.79-19.23,15.58-30.66,20.59-6,3-11.87,6.14-17.92,9-4.11,1.93-7.79,3.77-4.74,9.23,24.68-5.57,44.78-19.71,65.85-32.82,10.1-6.29,19.16-11.49,27-21.1a50.18,50.18,0,0,1,46.73-17.83c23.35,3.59,46.54,9.82,69,17.34,19.31,6.47,34,22,51.73,31.78,27.49,15.25,46.78,36.7,56.08,67.22,2.13,7,8.21,13.12,14.85,17.08,15.57,9.3,18.72,23.83,16.13,39.73-3.33,20.44-1.87,40.6.36,60.87.19,1.69-.34,3.9.55,5,14.87,18.47,19.92,44.67,43.7,56.1,4.44,2.13,8.18,4.85,10.1,9.22,8.53,19.38,19.31,37.82,29.55,56.07,9.59,17.11,22.38,33.33,34.68,49.28,1.28,1.66,3.41,3.35,5.34,1.47,2.15-2.09,1.07-5.22-.38-7.07-8.38-10.76-11.29-25-21.18-34.56-9.17-8.89-13.9-20.1-19.06-31.24-2.37-5.12-3.15-10.38,2.2-13.52,6.92-4.07,8.36,2.71,10.9,6.79,16.55,26.61,35.4,51.62,53.92,76.85,6.65,9.06,12.77,17.21,9.9,29.86-2,8.94,13.26,27,25.65,30.28,16.35,4.35,30.66,12.11,44.28,21.64,5.41,3.79,11.25,5.12,16.34.36,8.88-8.31,17.56-4.18,21.29,3.31,8.81,17.65,26,19.88,41.24,25.93,4.68,1.86,8.52,4,10.57,8.34,9.7,20.53,27.75,33.57,43.07,49.14,6.45,6.55,10.3,6.39,16-.54,8.8-10.63,10.09-10.17,18,1.57,10.13,15,10.63,31.81,9.29,49-.41,5.25-4.44,7.85-7.66,11.21-14.49,15.14-27.35,30.92-18,54.06,1.69,4.2-.49,7.43-3.16,10.31-7.65,8.23-6.74,17.54-1.58,25.91,16.16,26.19,27.6,54.52,38.14,83.18,6.15,16.7,16.2,28.95,32.71,34.77,18.75,6.6,22.54,21.52,22.93,38.26.54,23.06-4.52,45.58-8.64,68.09-3.9,21.37-7.18,42.64-5.43,64.46.65,8.09.81,17-3.31,23.71-12,19.59-11.48,41.74-15.09,63.09-.68,4.07-.41,7.86,2.35,10.76,10.42,10.93,3.09,23.09,2.62,34.75,0,.51-2.08.94-3.19,1.4,2.14,2.88,1.2,5.62-.51,8.21-13.94,21.17-13.6,57.83.77,77.72l4.58,4.5v0l2.47,2.48.1.09c2.83.42,3.81,3.2,5.8,4.57,13.65,9.43,25.45,24.4,45.33,16.34,3-1.21,8,.86,8.77-3.31.85-4.82-4.53-5.31-7.62-7.14-20-11.82-23.89-29.53-10.59-48.55,4.13-5.91,8.12-11.91,12.48-17.63,3.94-5.16,4.92-8.76-1.47-13.5-8.49-6.31-8.78-16.19.05-20.81,14.92-7.8,19.26-19,16.74-34.63-.66-4.11-.22-10.18,5.69-9,12.77,2.42,13.2-5.86,13.66-14.17.45-7.92,4.06-10.44,11.61-8.74a38.73,38.73,0,0,0,17.69-.16,22.85,22.85,0,0,0,14-34.17c-2.42-3.88-7.28-7.72-3.91-12.24,2.79-3.72,8-.3,12-.12,9.13.39,20.4,4.25,25.57-5.58,7.84-14.93,18.58-27.35,29.28-39.86,14.37-16.8,14.57-39.51,25.53-57.8,8.35-13.94,18.87-22.48,35.24-22.79,4.51-.08,8.81-.33,11-4.68,12.94-25.68,26.82-51.15,24-81.45-1.13-12,.74-23.17,9.23-31.94,10.46-10.82,17.75-23.81,25.71-36.23C1251.8,1126.43,1243.84,1105.57,1226.06,1098.8Z"/><path class="cls-3" d="M1348.82,60c-3.4,5-8.19,6.64-14.1,6.24a72.56,72.56,0,0,0-22.46,1.6l-.22,0-5.15.75a24.79,24.79,0,0,0-13.27,1.95c-6.16-2.2-12.42-1.94-18.57-.2-4.09,1.16-8.73,3-8.11,8.08s5.68,6.52,9.75,6.17c8.3-.71,16.51-2.55,24.76-3.92,6.36,1.11,12.7,1.66,18.83-1.18,14.33,6.88,24.21-1.4,34-10C1353.94,65.41,1351.72,62.51,1348.82,60Z"/><path class="cls-5" d="M1312.26,67.84l-.22,0Z"/><path class="cls-2" d="M533.51,160.61l.31.1a2.5,2.5,0,0,0-.07-.26Z"/><path class="cls-2" d="M759.91,167.44c0-.13.09-.47.09-.46Z"/><path class="cls-6" d="M759.9,167.5c.07-.15.12-.3.18-.44L760,167Z"/><path class="cls-2" d="M667.81,246.8c1.1-.59,3.08-1.06,3.18-1.79,2.3-17.58,16.9-9.37,26-12.51.38-.13,1.14-.17,1.22,0,3.15,6.65,7.9,13.1,8.88,20.08,1,6.74-5.65,7.78-11.71,7.76-8,0-14.88-2.2-20.25-8.33l0,.05-7,0C668.05,250.27,667.93,248.54,667.81,246.8Z"/><path class="cls-2" d="M700,292.4c-4.86-1.88-11.82.13-12.12-5.57-.27-5.06,5-9.16,10.5-8.59,6.08.64,14.82,2.51,14.7,8.94S703.43,288.49,700,292.4Z"/><path class="cls-2" d="M710,216.46c.74-.92,1.47-1.83,2.22-2.74,6.25.13,13.48-4.2,17.89,4.1,1.07,2,1.85,4.46-.3,5.49C721.13,227.47,716,220.51,710,216.46Z"/><path class="cls-2" d="M667.81,246.8c.12,1.74.24,3.47.35,5.21-1.22,0-2.55.2-3.61-.22-3.48-1.37-8.33-4.41-6.47-7.31C661.27,239.52,664.81,244.48,667.81,246.8Z"/><path class="cls-5" d="M675.19,252.05l0-.05S675.19,252.05,675.19,252.05Z"/><path class="cls-2" d="M687.71,187.46c3.27,6.43,8.12,11.61,13.15,16.65-7.71-1.41-15.53-.49-23.39-1.65s-16.84.91-19.13,11.49l.14.15c3.78.45,8.12-.15,11.23,1.53,13.85,7.46,24,1.65,33.25-8.25.23-1.87,1-3.23,3-3.45,5.13-3,9.77,1.1,14.73,1.12,4.49,0,10.1,2.8,12.84-2.2s-5.38-5.34-6.32-9.12c3.09-3.8,6.84-4.14,10.64-4.31l6.74,1.05c6.71-3,13.33-.81,19.87.56,18.19,3.8,36.73-3.37,54.77,1.71,10.93,3.07,18.93-2.49,28-6.88-20-10.53-39.66-7.47-59.6-3.85-5.05.92-11.58,4.82-16.09-2q-5.8-6.5-11.62-13c0,.17-.07.34-.1.51-5.88.36-11.75.85-17.63,1-2.95.1-6.58-.83-6.46,3.66.14,5,2.38,10.64-4.51,12.71-5.54,1.66-11.58.08-15.95-2.54-8.8-5.26-16.46-11.13-26.69-2.67-1.66,1.37-6.38-.72-9.61-1.53-21.58-5.41-43.15-10.92-64.72-16.39-4,6.57-7.88,2.72-12.57.48s-13-6.76-8.35,5.89c2,5.28-2.17,5.17-5.53,5.59-9.69,1.22-17.13-2.46-22.71-10.27h0q-2-2.69-3.92-5.39c0,.12,0,.22-.07.34-6.39,2-12.8.51-19.2.12-2.33,2.28-5,3.33-8.14,2.19,1.91,6.37-3.62,9.35-9.48,15.73,24-2.69,42.78,18.12,65.3,3.87,2.78-1.76,7.47-1.24,11.13-.74C610,180.8,618.62,181,624.48,172c2-3,4.76-4.45,6.84-.7,13.48,24.27,36.09,16.09,56.39,16.18"/><path class="cls-3" d="M3308.76,565.72c-10.6-6.42-15.47-17.72-22.42-27.08-45.87-61.78-91.25-123.92-136.89-185.88-4.21-5.71-7.51-12.4-14.49-15.59-7.64,4.2-17.2,4.75-21.2,15.4-1.79,4.77-25.47-1.43-29.44-7.21-5.1-7.44-21.28-9.46-27.32-2.83a17.85,17.85,0,0,1-13.3,6.19c-9.18.45-10,4.5-4.7,11.27a50.15,50.15,0,0,1,5.23,8.68c2.84,5.71,1.33,8.89-5.48,8.76-23.48-.46-42.65,9.43-59.36,25-5.52,5.15-10.54,8.24-17,1a7.94,7.94,0,0,0-11.62-.42c-8.66,8.27-19,7.32-29.54,6.81-7.61-.36-21.1,18.32-16.57,24.06,6.19,7.85-1.79,17.73,5.62,24.74,1.36,1.29-1.35,3.54-3.21,4.7s-4.76,2.21-4.93,3.61c-2.87,22.78-26.17,32.74-33.07,53-1.39,4.07-5.22,7.72-9.66,7-4.86-.76-3.49-6.07-3.93-9.6-1.51-12.2-4.9-24.07-5.44-36.48-.7-16.43,5.23-29.78,16.57-41.15,11.69-11.71,23.29-23.5,35.11-35.09,2.67-2.62,5.75-5.52,9.17-6.55,8-2.41,9.74-8.74,11.63-15.35.71-2.45,1.84-5.25-1-6.83a4.92,4.92,0,0,0-7.26,3c-2.76,9.57-13,10.05-18.61,16.17-3.74,4.09-7,1.55-10.65-1.81-11.18-10.32-17.77-10.72-28.18.43-6.71,7.18-20.24,10.2-16.44,25.61,1.13,4.56-8.24,4-12.88,5.21-4.06,1.09-9.61,1.59-10.74-3.68-3-14.11-14.12-9.13-19.56-6.14-9.16,5-17.35,3.53-25.61,1.09-20.57-6.06-32.9-2.07-47.67,14.27-12.5,13.82-24.39,28.29-38.63,40.49-4.78,4.1-11,8.58-.87,14.09,3.38,1.83,2,6.27,3.54,9.2,2.06,4,4.79,8.05,9.59,3.49,3.91-3.71,7.32-7.72,12.93-3.54,6.62,4.94,12.62,10.65,11.58,19.91-3.18,28.48-11,55.2-30,77.63-7.66,9-14.85,18.51-22.52,27.56-3.37,4-7.18,6.83-13.26,3.89-11.87-5.72-25.52-.16-30,13A25.13,25.13,0,0,1,2616,649.27c-7.75,5.42-10.11,11.82-3.08,20.25a44.79,44.79,0,0,1,10.38,24.26,21.6,21.6,0,0,1-18.1,23.93c-5.19.85-5.88-2.12-5.43-6,.49-4.21,1.35-8.38,2.06-12.57,1.55-9.11,3.31-17.83-10.22-19.73-4.45-.63-8.2-4.78-5.18-10.7,2.56-5,1.07-9.3-3.31-12.18-5-3.29-9.58-1.3-14,2.08-2.85,2.19-5.9,6.84-9.65,4.23-4-2.8-.43-6.9,1.12-10.2,1.21-2.58,1.54-4.9-1.18-6.61a6,6,0,0,0-7.19.37c-8.49,6.91-15.78,15.07-25.63,20.62-5.61,3.15.07,8.17,2.3,11.88,2.42,4,5,8.44,11,5.27,3-1.57,5.7-4.21,8.83-4.76,5.74-1,14-2.67,16.4,2.73,2.7,6.13-6.06,6.48-10,9-15.75,10.13-17.72,21.62-7.95,37.41,11.91,19.25,18.09,39.29,2.14,60a51.1,51.1,0,0,0-7.73,14.54c-7.16,21.14-23.19,31.31-43.46,37.07-12.84,3.65-26.79,5.65-33.91,19.67-2.15,4.24-5.93,2.68-8.38-.19-7.49-8.78-14.76-4.37-21,.91-7.72,6.5-13.49,14.45-8.66,25.58,2.42,5.58,6.66,9.77,10.58,14.23,11.28,12.83,18.65,27.27,18.14,44.88-.23,7.65-2.42,14.31-9.86,17.92-8,3.86-17.39,4.75-21.59,15.12-1.58,3.88-6,3.56-7.8-3.4-4.45-17.18-18-27.74-31.58-37.74-4.1-3-5.7.12-6.85,4-7.48,25-6.29,47.54,17,64.59,8.24,6,13.37,14.11,11.35,25.27-.81,4.42,2.33,8,4,11.88,1.15,2.73,2.58,5.68-.6,8-2.66,2-5.58,1.76-8.4.25-11.35-6.08-17.12-16.2-19.33-28.32-1.3-7.13-1.4-14.83-5.7-20.67-9.75-13.26-10.53-28.16-10.07-43.62.56-18.54-4.42-36.13-10.18-53.46-3.55-10.67-7-11.19-14.35-2.83-2.92,3.32-5.62,7-10.5,5-5.14-2.1-3.5-6.64-3.31-11,.5-11.63,2.55-23.57-12.37-29.82-5.31-2.22-6.06-10.68-7.31-17-1-4.83-3.1-9.29-8.13-10.38s-5.67,4-7.52,7.14c-.42.72-1,2-1.45,2-16.87.19-24.41,14.75-36.05,23-2.74,2-5.74,3.45-7.83,6.16-9.26,12-21.76,20.35-33.91,28.81-9.34,6.5-8,15-7.54,23.83.89,18.13-1.93,35.26-14.07,49.66-4.69,5.56-9.43,9.38-14.05-.46-15.06-32-23.17-66.26-32.54-100.14-2.74-9.93,2.79-20.48-3.51-30.36-3.6,5-5.43,12.82-13.09,11.11-6.06-1.36-11.15-7.54-11-12.77.22-9.89-6.91-14.1-11.93-19.7-4.19-4.66-9.63-8-12.37-14.18-2.5-5.62-7.61-4.43-12.2-3-19,5.74-37.93.62-56.89,0-4.77-.15-7.46-3.31-9.19-7.63-3.41-8.51-9-10.85-16.92-5.35-6.67,4.62-12.32,2.94-18.46-1.82-9.32-7.23-16.73-15.79-20.86-26.75-2.67-7.06-7.37-9.75-14.45-10.05-9-.39-12.54,4-8.37,11.66,7.79,14.31,16.18,28.37,25.35,41.84,6.68,9.81,21.64,11.77,29.6,3,8.61-9.44,12.72-7.24,18,2.26,2.5,4.47,7.74,6.18,12.55,8.18,11.78,4.86,14.13,12.32,9.33,24.2A85.54,85.54,0,0,1,1995.56,891c-26.68,16.79-51.61,36.67-82.62,45.9-11.23,3.35-18,.62-19-10.91-2-25.43-11.92-47.3-27.77-66.88a13.26,13.26,0,0,1-2.7-7c-1.74-25.59-18.76-44-30.29-64.94-3.77-6.87-9.15-6.75-15.1-4.38-7.86,3.14-3.81,9-1.36,12.56,9.44,13.65,15.69,29.1,22.09,44,7,16.18,12.36,33.17,18.94,49.64,7,17.45,17.28,30.37,29,43.49,2.82,3.16,5.93,6,7.24,10.29,5.93,19.48,14.59,23.86,34.56,16.5,6.46-2.37,13-3.6,19.57-5.24,8.62-2.16,13.16,1,10.68,9.52-8.94,30.58-17.33,62.19-45.47,81.45-18.31,12.54-29.89,31-45.58,45.76-7.75,7.29-8.42,19.36-7.31,30.11,1.13,11,3.14,22,7.69,32.1,6.1,13.53,5.39,27.86,3,41.3-2.47,14.06-17.17,17.89-28.47,22.7-20.63,8.76-24.38,14.77-18.42,36.25,4.14,14.93,2.39,19.5-11.87,26-6.43,2.94-8.28,7.35-9,13.81-3.52,31-40.18,64-71,64.09-9.59,0-18.22,3.33-27.14,6.1-17.66,5.47-23.91,0-24.26-18.43-.3-15.24-8.91-28.09-15.4-41.17-7.59-15.31-14.29-30.66-17.79-47.46-2.18-10.45-7.24-19.83-12.79-29-6.89-11.35-12.36-25.13-3.52-35.9,20.63-25.13,9.4-50.51,4.06-76.11-2.62-12.58-10.68-21.88-20.31-29.94-8.35-7-11.22-15.41-7.57-26.13a68.77,68.77,0,0,0,3-16.22c1.47-17.51-5.07-23.69-22.29-20.18-7.57,1.55-11.17-1.15-13.65-7.55-5-12.83-15.06-15.86-27-12.28a483.28,483.28,0,0,1-81.43,16.82c-8,1-14-2.52-19.89-6.71-8-5.73-14.55-13.23-20.06-21.21-11.09-16-22.19-32-34.91-46.88-5.91-6.9-6.78-15.48-5.23-24.15a240.84,240.84,0,0,0,2.64-70.93c-1.87-16.12,8.33-29.12,17.82-41,8.17-10.23,17.74-19.44,27.37-28.37,6.75-6.25,10.5-13,9.72-22.29-1.26-15,6.06-26,17.25-34.89,8.41-6.68,30.12-15.05,41.32-16.86,4.54-.73,9.74-1.56,13.18-4.23,16.21-12.6,34.75-14.27,54.25-13.8,11,.27,22-1.52,33-1.81,13.53-.35,16.3,2.63,16,16.51a62.8,62.8,0,0,1-1.8,12.53c-1.62,7.12,1,12.05,7.86,13.55,16.18,3.52,29.75,11.91,43,21.31,5.27,3.75,11.6,5.21,17.93,6.15,7.87,1.17,12.78-.79,13.53-10.32,1-13.3,7.18-16.5,19.91-10.53,15.09,7.08,30.22,12.95,47.11,14.59,16.7,1.63,32.94-2.37,49.47-2.1,5.43.08,9.62-3.33,12-8.28a76.36,76.36,0,0,0,7.56-40.78c-.69-7.43-5.27-10.43-11.24-6.81-9,5.5-17.39,5.44-26.35.75a8.33,8.33,0,0,0-3.76-.45c-24.5.33-31.57-5.68-35.19-28.88-1.36-8.77,1.83-13.64,10-16.31,13.68-4.45,27.24-9.28,40.85-13.94,7.48-2.56,15.11-3.67,21.92,1.24,11.72,8.44,25,6.89,38.1,6.59,4.52-.1,9.76-1.08,11.43-6.46,1.83-5.88-.37-11.06-5-14.79-5.58-4.55-11.48-8.73-17.43-12.8-9.46-6.49-13.58-13.73-4.68-23.86,1.89-2.15,2.85-5.13,4.72-8.65-12.42-2-22.15,5.7-33.08,7.53-5.44.92-1.32,5.7.51,7.89,4.56,5.42,3.36,9.27-2.62,11.9-6.42,2.83-9.79-2.63-9.72-6.6.22-12.67-11-10.76-17.21-13.49-6.9-3-9.55,5.52-12.67,10-6.74,9.74-10.38,21.35-18.06,30.64-1.92,2.32-1.62,5.46-.83,8.54,2.88,11.34-2.85,17.27-13.88,13.73-8.94-2.87-14.78-1.55-22.39,5.34-8.11,7.33-5.55,10.69.26,15.74,3.56,3.09,8.23,5.89,4.69,11.38-3.76,5.83-8.65,10.52-16.46,10.17-7.29-.32-7.17-5.61-7.66-10.85a27.69,27.69,0,0,0-6.85-16.13c-3.11-3.52-7-7.66-6.44-12.13,2.85-21.51-16.41-24.22-28-32.59-5.56-4-11.89-6.08-13.45-13.6-.78-3.76-2.9-6.4-6.78-6.44-5.17-.06-10.47-7.09-15.65.93-4.63,7.16.36,10.69,4,15.33,7.54,9.62,14,19.79,26.81,24.21,6.37,2.21,10.69,7.62,5.81,16.3-2.06,3.67.35,9.72.17,14.67-.07,1.86-1.21,4.34-3.82,4.4-2.82.07-3.14-2.35-3.3-4.4-1-13.25-11.12-21.29-20.67-25.53-12.3-5.47-18.09-14.34-23.55-25-7.55-14.67-13.55-15.77-26.25-4.56-5.69,5-11.43,6.69-18.64,3.87-9.57-3.74-15.6-.45-17.73,9.74-.43,2-.65,5.26-1.91,5.84-22.47,10.24-24.6,36.51-41,51.77-6.83,6.35-14.64,3.19-21,6.62-7.84,4.23-13.43,3.49-18.19-4.19-1.4-2.26-4.19-2.64-6.84-2.66-4.79,0-11.34,5.07-13.92-.8-2.92-6.69-5.63-14.84-3.13-22.24,4.43-13.13,7.85-25.34,1.26-39.28-3.56-7.54,6-8.49,10.5-8.77,13.52-.84,27.13-.48,40.69-.12,5.67.15,12.8,4.85,16.27-1.8,3.72-7.12,4.82-17-.34-23.11-6.82-8.12-10.74-19.77-22.9-22.8-2.36-.59-4.9-2.18-4.54-5.34.4-3.57,3.34-4.55,6.27-5.4,18.11-5.24,35.69-11.31,47.76-27.26,1.4-1.86,4.14-3.19,6.5-3.77,8.4-2,14.78-4.8,17.62-14.81,2.07-7.32,11.42-7.74,18.47-9.09,17.4-3.35,20.74-9.31,14-25.44-7.33-17.64-3.54-25.9,14.92-31.6,1.88,9.31,5,18-2.88,26.86-3.68,4.13-2.21,10.95,2.32,15.1,4.32,3.95,9.14,8.19,15.44,2.36,2.39-2.21,5.58-1.31,8.52-.48,11.52,3.23,22.57,2.42,33.27-3.38,4.83-2.63,10.05-5.05,15.36-.63,3.1,2.56,6,1.11,7.61-1.47,5-8.21,15.2-13,13-26.11-1.22-7.39,3.84-15.74,14.7-7.78,5.85,4.29,9.68,1.77,10.32-5.08a38.11,38.11,0,0,0-.59-11.38c-1.75-8.12,2-12.13,9.39-13.52,7-1.32,13.79-3.77,21.29-3.17,4.89.39,11.18-2.42,11.08-7.52-.12-5.79-5.27-9-12-8.49-7.8.64-14.94,2.36-21.18,7.51-5.68,4.68-10.51,3.6-14.9-2.67-5.83-8.33-12.35-15.92-10.62-27.39.79-5.29,1.33-10.26,6-13.28,8.6-5.54,12-15.16,18.11-22.6,5-6,1.23-10.48-4.65-12.75-10.39-4-25.5,4.55-25.94,15.88-.35,8.95-4.72,12.7-11.48,16.29-11.43,6.07-19.88,14.6-20.21,28.61-.16,6.79-.15,12.55,7.82,16.81,8.81,4.7,8.55,16.57-.23,19-14.09,3.85-14.2,14.4-14.55,24.57-.27,7.81-3.27,10.75-10.31,11.26-4.87.35-9.11,1.75-11.42,6.69-1.72,3.66-4.74,4.62-8.49,3.16-3.48-1.37-3.94-4.6-3.48-7.46,2.24-13.93-13.08-21.15-12.91-34.56,0-3.7-4.63-1.95-7.33-.69-6.93,3.23-13.7,6.86-20.83,9.55-8.34,3.16-13.44.66-14.65-9.12a85.27,85.27,0,0,0-5.23-20.75c-3.88-9.78-1.66-16.18,6.49-23.14,14.19-12.11,28.31-24.09,44.41-33.64a12.33,12.33,0,0,0,5.53-8.3c-18.5-17.67-31.57-39.64-46.75-59.87-46.8-62.37-92.77-125.36-139.13-188.07-2.24-3-5.09-5.61-7.66-8.4-11.09,6.28-22.33,12.39-35.15,14.07-16.81,2.2-23.68,18-36.15,26.19-5.46,3.6-1,9.59,4.26,13.17,4,2.73,10.72,3.9,10.23,10.13-.57,7.28-7.87,4.57-12.17,6.36-3.77,1.57-9.21,2.14-8.78,7.58.35,4.42,5,3.55,8.25,3.93,2.62.3,6.08.79,5.91,3.6-.64,10.35,8.65,20.87-3,31.48-5.24,4.77-8.47,7.53-15.53,6.87-11.77-1.11-23.72-4.57-35.37,1.68-3.12,1.67-9.92-2.21-9.73,4.28.16,5.15,6.24,4.63,10.34,5.09,5.92.66,11.87,1.21,17.08,4.47A54.87,54.87,0,0,1,1355,237.23c2.51,3.5,5.55,7.67,1.08,11.16-4,3.12-8,.41-11.3-2.67-1.54-1.45-2.9-3.09-4.38-4.6-9.33-9.55-28.67-7.18-35.35,4.35-2.8,4.82-.73,7,4.23,7.62,11,1.35,21.91,2.48,33,2.06,3.44-.13,8.8-1.32,8.59,4.5-.18,4.82-4.94,5.61-8.75,5.28-9.37-.82-14.43,5.06-21.47,9.95-11.82,8.2-26.86,13-41.89,10.26-10.59-1.95-16.24.83-18.86,10.88-3.55,13.63-17,16.92-26.32,24.32-4.67,3.72-9-1.11-11.62-6.26-3.52-7-6.31-5.15-8.93,1-7.25,17-18.06,32.63-28.65,47-7.25,9.85-10.83,16.11-8.15,27.43,1.34,5.7-1.88,11.61-4.68,16.9-4.18,7.87-9.78,9.69-15.69,2.16-4.62-5.86-9.87-8.26-17.36-8.52-10-.33-17.86-5.34-21.87-14.9-4.67-11.17-12.4-21.48-9.76-34.79.58-2.93-.11-6.43-3.09-7.84-13-6.17-13.12-19.91-18-30.7-3.5-7.75.07-12.6,8.57-14.74,12.1-3.06,18-26.64,9.28-35.48-3-3-6.16-2.42-9.28-.64-3.71,2.11-7.31,4.36-11.81,4.14-3.88-.19-8.28-.36-9.76-4.47-1.63-4.55,2.34-6.91,5.66-8.73,4.46-2.44,9.11-4.53,13.79-6.53,6-2.56,5.83-7.33,3.31-11.56-2.93-4.94-6.59-2-9.25,1-5.86,6.58-12.64,7.32-19,1.81s-1.3-10.78,2.07-15.54a13,13,0,0,0,2.69-8.21c-.36-13.83-25.37-42.83-39.09-44.51-7-.85-13.14-2.76-18.46-7.49-8.55-7.62-17.69-7.38-26.78-1.13-6,4.12-12,8-19.34,9.26-6.18,1.09-11.52-.81-13.47-6.76-2.3-7.05,3.53-9.52,8.74-11.71,3.55-1.49,10.31-.21,9-6.21-1.16-5.4-7.5-4.78-12-4.28a168.9,168.9,0,0,0-18.74,3.52c-5,1.16-10.09,1.93-15.1.59s-11.32-2.81-11.55-8.39c-.23-5.78,6.62-5.29,10.8-6.59,10.79-3.34,22.55-3.19,32.24-10.69,4.49-3.48,10.69-.77,16.13-.08,3.39.43,7.83.85,8.61-3.15.82-4.26-3.21-5.09-6.85-5.37-4.48-.34-10.21.58-10-6.54.18-6.93,5.31-9,11.1-10.11,14.8-2.75,30.67-1.53,43.48-11.71a15.91,15.91,0,0,0-6.84-8.11c-11.24,5.91-23.46,1.83-35,3.57-4.45.66-16.54-4-9.94,9.83,1.61,3.36-3.79,5.45-7.1,5.15-10-.93-16.77,3.92-23,11s-14.63,7.7-23.47,6c-13.61-2.63-18.67.69-22.23,14.21-2.29,8.7-9.71,11.13-17,13.61-4,1.37-8.55,1.75-9.12,7.3-.47,4.58,4.54,10.59-2.56,13.39a39.23,39.23,0,0,1-20,2.06c-11.41-1.59-22.47-1.91-34,1.81-10.41,3.39-21.38-1.83-32.22-2.26-3.89-.16-4.53-5.62-1.65-8.11,7.25-6.27,14.59-13.67,25.69-7.79,1.88,1,3.71,2.07,5.64,3,3.35,1.55,7,1.86,9.18-1.41,2.69-4-.89-6.45-3.53-8.2-3.83-2.54-8.3-4.09-12.26-6.45-2.8-1.67-6.78-3.62-5.38-7.55,1.59-4.44,6-4.25,9.82-3,8.59,2.87,16.53,8.41,27.76,6.3-5.82-7.53-14.69-8-20.63-13-3-2.49-6.9-5.15-5.29-9.22,2.18-5.53,6.29-1.58,9.6-.52,15.45,4.93,27.69-5.08,41-9.42,3.8-1.23,0-5-2.68-6.14-5.45-2.29-10.79-1.12-15.95,1.4-11.35,5.55-22.14,5.68-31.59-3.83C803.86,81,798.46,79.5,794,82c-10.17,5.8-20.54,2.85-30.91,2.58q1.65,4.53,3.29,9.07c8.06,2.36,15.35,6.86,23.84,8.15,4.44.67,8.21,4,8.35,8.37.14,4-4.92,3.78-7.86,5a101.36,101.36,0,0,1-30.6,7.92c-2.84.27-6.59.72-7.82-2.59-1.51-4.07,2.6-4.52,5.07-5.74,1.88-.93,4.49-1.58,3.41-4.26-1.24-3.06-4.28-2.28-6.66-1.71-10.46,2.51-20.52,8.63-31.78,3.22,9.6,17,23.07,31.15,34.39,46.89,1.93,2.69,4.71,4.45,3.34,8.09L771.62,180c4.51,6.87,11,3,16.09,2,19.94-3.62,39.62-6.68,59.6,3.85-9.1,4.39-17.1,9.95-28,6.88-18-5.08-36.58,2.09-54.77-1.71-6.54-1.37-13.16-3.53-19.86-.56,2.75,11,13.46,17.16,16.68,27.84l7.45,8.77c5-11.52,16.2-13.83,26.33-17.59,2.7-1,6.13-1.43,7.9,1.86,1.49,2.79-.43,5.29-2.54,6.46-10.08,5.62-9.92,12.23-2.59,20,.81.85.91,2.35,1.45,3.5,2.19,4.65,1.81,13.83,8.56,11.85,7.73-2.26.73-9.12.16-13.92-1.38-11.55,13-28.25,22.49-24.11,11.18,4.86,21.14,2.38,31.59.23,7.44-1.53,13.57-.8,17.2,6.71,2.22,4.6,6.63,5.87,10.6,8.31,12.28,7.55,21.22,22,39.14,17.12C931,247,933,250.4,933.78,253c1.89,6.18,5.49,7.79,11.62,5.27,8.69-3.58,13.87,2.53,17.68,8.48,4.18,6.52-.75,9.67-6.47,12.13-2.93,1.26-2.76,4.12-.13,6,4.44,3.21,9.16,8.94,13.55,8.74,14-.62,22.05,10.86,33.75,14.28,3.62,1.05,6.34,2.46,6.78,6.44.49,4.5-.54,8.43-4.66,11-9.58,6.08-18.66,7.7-26.75-2.55-3.48-4.39-7.36-8.34-13.82-7.48-8.18,1.1-10.8,5.17-5.49,11.92,2.79,3.55,7.18,5.82,10.68,8.85s7.21,6,10.09,9.55c3.71,4.62,8,11.16,3.83,15.87s-10-.65-14.65-3.33a50,50,0,0,0-8-3.76,4.57,4.57,0,0,0-5.64,1.8c-1.78,3.12.76,4.54,3.07,5.68,4.95,2.45,10,4.7,13.72,9a6.49,6.49,0,0,1,1.27,7.12c-1.15,2.54-3.4,2.07-5.4,1.13-14.39-6.81-30.49-9.92-43.3-20.13-4-3.16-8.52-5.83-11.77-9.61-9.57-11.13-13.33-11.58-25.56-2.1-4.15,3.2-8.56,8.77-13.71,1.61-2.75-3.81-8.07-6.93-5-13.23,3.17-6.52,8.26-4.18,13.21-3.41,9.77,1.53,19.68,3.6,22.94-10.28.52-2.24,4.5-3.59,6.73-5.54,9.75-8.5,8.63-24.46-3.5-26.37-16.83-2.65-24.71-15.3-35.71-24.38-7.74-6.39-12.38-7.63-22.92-3.23-15.27,6.37-33.18,4.95-50.14,4.17a13.34,13.34,0,0,0-9.82-3.15c-2.7-2.57-5-6.48-8.18-7.45-12.82-3.94-16-13.09-15.13-25,.62-1.33,1.23-2.67,1.85-4l-7.46-8.77c-3.21-10.68-13.92-16.88-16.68-27.84l-6.77-1.07v0c-3.8.17-7.54.52-10.62,4.31.94,3.78,9.07,4.12,6.32,9.12s-8.35,2.21-12.84,2.2c-5,0-9.6-4.07-14.77-1.13l0,0c-2,.23-2.8,1.58-3,3.45-9.31,9.89-19.41,15.7-33.26,8.24-3.11-1.68-7.45-1.08-11.23-1.53l-.48.27.34-.42c2.29-10.58,11.38-12.64,19.13-11.49s15.68.24,23.39,1.65c-5-5-9.88-10.22-13.15-16.65-20.3-.09-42.91,8.09-56.39-16.18-2.08-3.75-4.88-2.31-6.84.7-5.86,9-14.48,8.82-23.71,7.59-3.66-.5-8.35-1-11.13.74-22.52,14.25-41.32-6.56-65.3-3.87,5.94-6.47,11.56-9.43,9.41-16-18.75-1-35.93,6.38-53.81,10,1,5.55,5,9.43,8,13.88,6.39,9.57,15.38,17.48,18.74,29,16.28-.9,29.78,6.43,44.34,12.48,10.94,4.55,24,10.2,37,6.07,7.46-2.37,11,1.16,14.79,6.14,1.51,2,3.6,4,6.41,3.24,3.26-.9,2.38-3.66,2.43-6.24.22-9.61,11.2-17.95,20.49-16.13,6.71,1.31,3.68,4.68,2.42,8.33-4.62,13.38,2.66,25.38,16.93,27.53,4.58.69,9.47,1.38,8.88,6.63-.63,5.55-1.8,12.32-9.55,13.2-5.07.58-11.14,1.35-14.87-1.84-11.86-10.16-24.38-4.14-36.13-1.74-15.44,3.16-30.1,7.94-44.56-3.22-2.67-2.07-8.2-.29-12.38-.61-3-.23-8.08,2.11-8.39-2.57-.35-5.25,5-4.66,8.67-4.72,9.58-.14,19.17-.05,30.19-.05-2.74-6.1-6.73-9.65-10.1-9.31-14,1.44-23.85-10.23-37.3-10.53-7.48-.17-10.1-4.16-3.16-10.25,1.9-1.66,6-3.57,2.92-6.92-2.37-2.53-5.41-.48-8.08,1-8.69,4.87-13.88,13.71-21.93,19.21-8.61,5.87-17.43,11.36-27,1.08-1.54-1.66-4.61-1.9-7-2.81,2.33,4,4.33,8.18,7,11.85,7.69,10.38,17.14,19.55,21.78,32a257.43,257.43,0,0,1,57.91,18.15c9.74,4.46,19,7.62,29.23,5.2,10.45-2.49,20-2.35,29.09,3.84,2,1.38,4.87,3.09,7,.82,13.53-14.69,29.43-7.78,44.76-4.94,3.76.69,7.25,1.8,11.16.93,17.06-3.77,33.85-10.44,51.85-4.26,2.39.82,5.84-.63,8.53-1.7,3.2-1.28,6-3.53,6-7.43,0-3.51-3-4.83-5.67-6.16-10.55-5.24-22.68-9.78-10.15-24.62.6-.71,0-2.46-.07-3.72-1-21-1-21,19.43-21.37,4-.07,9.64-2.44,11.55,2.27,2.3,5.63-4.32,7.25-7.38,10.28-4.06,4-11.85,6.9-8.42,13.83,5.25,10.62,13.33,19.34,24.6,24.35a3.19,3.19,0,0,1,.26.26c.09,4.26,1.4,8.8,6.28,5.09,9.63-7.33,11.68-2.31,13.93,6.36,1.6,6.13,6.81,14,13,9.66,6.39-4.47,15.55-10.53,12.61-21.81l5.62-3.34c4.61.45,9.28.66,13.85,1.41,5.44.9,15.45-1.49,8,10-.57.89-.75,3-.2,3.46,4.19,3.64,12,6.05,2.52,12.69-7.41,5.17-12.83,16.9-24.19,6a7.42,7.42,0,0,0-10.51-.08c-9.25,10.33-19.91,12.94-33.75,5.79,2.21,6.51,6.81,4.78,9,7.24,2.45,2.72,7.53,3.86,6.8,8.41-.81,5-5.89,3.79-9.38,4.64-2,.5-5.39-.14-6.09,1-6.27,10.16-13.39,4.84-20.55,1.69-1-.45-2.44,0-5.61.18,9.09,7.22,6.19,11.16-1.3,16.43-7.78,5.47-14.87,12.68-15.71,23.62-.64,8.27-2.57,16.63,9.72,17.88,1.6.16,4.16,2.59,4.24,4.07.66,12.31,7.65,11.83,16.7,9.32,5.49-1.53,10.82.35,15.67,3.56,16,10.59,32.27,20.49,52.58,19.94,7-.19,7.8,5.21,8.33,10.55,1.37,13.89,8.48,24.55,18.89,33.31,7.53,6.34,11.43,2.95,13.25-5.16,1.64-7.28-.44-14.29-1.77-21.39-1.5-7.95-.43-14,8.32-18.68,15.33-8.2,15.81-21.18,2.56-32.5-2.5-2.14-7.35-4.37-4.34-7.65,7.22-7.88,6-15.06,2.76-24.35-2.31-6.56,1.11-13.49,10.77-13,6.78.3,13.58.1,20.38.14,11.16.07,39,19.72,39.67,30.55.86,13.69,11.25,11.81,18.75,14.2,7.86,2.51,13.74-1.73,17.82-8.68,8.21-14,9-14,18.46-.36,4.85,7,10.25,13.83,12.06,22.24,1.9,8.8,9.92,11.6,15.48,16,9.71,7.71,13.92,13.73-2.91,23.36,11.74-.59,19.09-1.17,26.45-1.27,5.43-.07,12.39-.76,13.47,6.34,1,6.28-3.65,11.13-9.2,14-17.28,8.85-33.11,17.89-55.3,13.5-24.69-4.88-48.93,10.94-56.25,29.44l.31.34c12.1-1.6,19.53-13.63,32.09-14.33,2.92-.16,5.78-1.37,8.71-1.51s6.09.6,6.74,4.37-2,5.6-5.08,6c-11.16,1.31-9.62,4.47-2.62,10.81,5.92,5.35,10.43,11.88,18.73,14.46,6.66,2.07,12.81,6.22,16.39-3.89a4.13,4.13,0,0,1,6.27-2.3c3.22,1.93,3.2,5.33.94,7.61-3.53,3.56-7.36,8.15-11.8,9.22-10.66,2.56-19.55,8-28.47,13.75-2.38,1.52-4.83,4.75-7.52,1.17-2.23-3-2.08-6.45,1.27-9,2.84-2.12,7.56-2.71,6.22-8.54-15.67.72-28.28,9.5-41.56,16.14-3.51,1.75-7.93,6-8.12,9.28-.82,14.56-12.34,18.88-21.85,25.57-16.23,11.41-22.36,29.45-27.86,47C881.37,659,878.33,665.57,872,671c-6.12,5.25-12.12,10.66-17.85,16.32-17.36,17.13-19.15,26.24-9,48.75a50.57,50.57,0,0,1,4.06,29.78c-.59,3.59-2.45,6.83-6.25,7.08-4.18.27-3.76-3.77-4.39-6.5-2.77-12.06-14.34-21.39-10.6-35.74.56-2.14-3.91-6.35-6.86-8.54-12.71-9.44-36-10.21-48.79-1-7.53,5.41-14.84,6-22.68,2.34-26-12-48,9.74-49.59,33.58-.92,13.5-.79,27.07-1.4,40.6-.5,11,3.64,20.33,8.16,30.17,6.69,14.58,18.12,18.1,32,17.65,12.49-.4,16.47-10,20.17-19.92,4.05-10.85,11.3-17.92,23.91-17.07,6.5.45,9.48,2.87,6.07,9.84-7.34,15-10.88,30.81-12,47.52-.53,7.9,2.06,9,8.39,7.83,6.65-1.21,13.26-2.86,20-3.49,13.47-1.27,20.51,8.34,18,21.52-3.07,15.75-5.2,31.7,3.71,46.91,5.57,9.51,13.77,13,22.39,6.5,10.26-7.69,17.41-7.29,22.88,5,3,6.68,7.16,6.41,11.41.88,2-2.67,5.57-5.23,5.84-8.09,1.48-15.46,13.71-18.83,24.92-24,7.65-3.5,9.23-.34,8.69,6.32-.64,7.83-2,15.72,2.12,23.23,5.94-2.37,5.45-6.48,4.32-10-3.4-10.48,4-13.43,11.09-16.59,7.35-3.27,10.33,1,13.63,7,3.93,7.07,27.15,9.75,33.43,4.7,7.75-6.24,22.75-2.31,27.05,9.15,2.45,6.53,5.44,9.76,11,13.17s10.4,8.81,14.16,14.29c6.38,9.32,13.38,13.58,25.48,11.38,13-2.37,34.07,13.92,36.94,26.7,1.42,6.28,4.25,12,6.18,18,2.48,7.73-3.12,13.47-7.14,19.48-2.57,3.83-8.32,10.86-2.84,12.39,7.65,2.14,14,13.57,24,5.34,15-12.32,23.45-11.26,34.63,5.33,4.36,6.47,9.1,8.53,16.78,8.58,14.36.11,29,.63,41.47,9.58v0l2,3.23a13.6,13.6,0,0,0,8.57,8.66c17.78,6.77,25.74,27.63,15.58,43.48-8,12.42-15.25,25.41-25.71,36.23-8.49,8.77-10.36,20-9.23,31.94,2.86,30.3-11,55.77-24,81.45-2.2,4.35-6.5,4.6-11,4.68-16.37.31-26.89,8.85-35.24,22.79-11,18.29-11.16,41-25.53,57.8-10.7,12.51-21.44,24.93-29.28,39.86-5.17,9.83-16.44,6-25.57,5.58-4.1-.18-9.26-3.6-12,.12-3.37,4.52,1.49,8.36,3.91,12.24a22.85,22.85,0,0,1-14,34.17,38.73,38.73,0,0,1-17.69.16c-7.55-1.7-11.16.83-11.61,8.74-.46,8.31-.89,16.59-13.66,14.17-5.91-1.13-6.35,4.94-5.69,9,2.52,15.6-1.82,26.83-16.74,34.63-8.83,4.62-8.54,14.5-.05,20.81,6.39,4.74,5.41,8.34,1.47,13.5-4.36,5.72-8.35,11.72-12.48,17.63-13.3,19-9.4,36.73,10.59,48.55,3.09,1.83,8.47,2.32,7.62,7.14-.73,4.17-5.79,2.1-8.77,3.31-19.88,8.06-31.68-6.91-45.33-16.34-2-1.37-3-4.15-5.8-4.57,2.83,11.17,11.81,18.38,18,27.33q58.55,84.9,118,169.21c22.42,31.93,45.51,63.39,67.71,95.46,6.3,9.1,10.42,8.59,17.26.84,8.11-9.21,17.26-17.51,26.25-25.9,11.51-10.76,26.31-12.4,39.57-3.77,8.33,5.42,16.56,6,25.41,2.66,15.9-6,29-1.91,40.13,10.47,11.79,13.13,26.48,23.68,35.1,39.61H3176.25c40.35,0,80.7-.36,121,.26,9.58.15,11.72-2.17,11.71-11.73Q3308.6,1248,3308.76,565.72ZM877,301.32c.47-3.7,3.27-5.65,7-5.72,3.06-.06,6.64.94,6.8,4.08.25,4.9-4.63,4.81-7.79,6C879.89,305.56,876.5,305.52,877,301.32ZM675.19,252.05l-7,0c-1.21-.06-2.54.19-3.6-.23-3.48-1.37-8.33-4.41-6.47-7.31,3.19-5,6.73,0,9.73,2.32,1.1-.59,3.08-1.06,3.18-1.79,2.3-17.58,16.9-9.37,26-12.51.38-.13,1.14-.17,1.22,0,3.15,6.65,7.9,13.1,8.88,20.08,1,6.74-5.65,7.78-11.71,7.76-8,0-14.88-2.2-20.26-8.33ZM700,292.4c-4.86-1.88-11.82.13-12.12-5.57-.27-5.06,5-9.16,10.5-8.59,6.08.64,14.82,2.51,14.7,8.94S703.43,288.49,700,292.4Zm29.85-69.09c-8.67,4.16-13.79-2.8-19.81-6.85.74-.92,1.47-1.83,2.22-2.74l-1.78-2.82,1.8,2.83c6.23.12,13.46-4.21,17.87,4.09C731.17,219.82,732,222.28,729.8,223.31Zm23.28,54.82c.64.86.86,2.1,1.42,3.05-.56-.95-.78-2.19-1.42-3.05h0c1.18.67,2.75,1,3.56,2C755.83,279.09,754.26,278.8,753.08,278.13Zm618.38,78.66c-13,3.13-22.22-5.57-31.61-13.47-3.67-3.09-10.23-7.18-6.09-11.93,3.62-4.15,11.16-7.48,17.32-4.49,14.16,6.87,29.32,4.76,42.09.4,12.94-4.42,19.46,3.87,26.87,8.25,5.61,3.3-2.09,11.61-6.09,12C1399.59,349,1387.54,359.81,1371.46,356.79Zm566.89,878.72c-6.61,9-6.87,20.74-10.91,31-3.72,9.41-9.66,17.15-19.42,13.27-8.07-3.21-15.19-11.89-13.27-22.16,2.93-15.71,6.65-31.17,6.39-47.37-.09-5.61,5.29-9.73,10.4-9.38,12.62.88,17.14-9.2,24.06-16,3.34-3.31,2.26-12.25,8.56-10.78,6.92,1.61,3.81,10.12,5.81,15C1947.18,1205.07,1948.55,1221.56,1938.35,1235.51Zm78.45-130.38a35,35,0,0,0,2-9.08A35,35,0,0,1,2016.8,1105.13Zm64.57-58.87a45.14,45.14,0,0,1,3.25-5.69A45.14,45.14,0,0,0,2081.37,1046.26Zm-60.09-11.71a63,63,0,0,0-4.5,5,63,63,0,0,1,4.5-5c21.94-22.13,44-44.1,66-66.16C2065.32,990.45,2043.22,1012.42,2021.28,1034.55ZM2121,959.82c3.72.62,7.88,2.34,13,5.08C2128.88,962.16,2124.72,960.44,2121,959.82Zm33.87,965.88a25.47,25.47,0,0,1,3.67-3.57A25.47,25.47,0,0,0,2154.87,1925.7Zm-3.61-955.63a24.09,24.09,0,0,0,8.36-1.5A24.09,24.09,0,0,1,2151.26,970.07Zm22,937.34c.73-.64,1.45-1.22,2.17-1.75C2174.7,1906.19,2174,1906.77,2173.25,1907.41Zm-2.69-799.13c5.39-5.43,10.58-11.07,15.58-16.82C2181.14,1097.21,2176,1102.85,2170.56,1108.28ZM2212.32,1928a30.82,30.82,0,0,0,2.78,3.2A30.82,30.82,0,0,1,2212.32,1928Zm5.6-45a8.54,8.54,0,0,0,.19,2.07A8.54,8.54,0,0,1,2217.92,1883Zm-3.18-878c-3,2.14-6.6,1.59-9.71.42-4.29-1.63-4.58-5.7-4.15-9.54.5-4.56,1.48-9.06,2.23-13.59.44-2.64-1.39-6.9,2.63-7.12,2-.12,4.27,3.46,6.41,5.38,1.42-1.6,2.44-1.07,3.27.53l-3.16-.26c1.88,4.64,4.14,9.17,5.51,14C2218.84,998.45,2218.18,1002.46,2214.74,1005Zm11,889.39a5.73,5.73,0,0,0,2.12.52A5.73,5.73,0,0,1,2225.7,1894.35ZM2253,1876.6a5.76,5.76,0,0,1,2.44.73A5.76,5.76,0,0,0,2253,1876.6Zm8.59-803.49a56.75,56.75,0,0,0,4.51-5.11A56.75,56.75,0,0,1,2261.55,1073.11Zm157.78,47.52c-4.76,2.37-8.41-1.69-10.95-4.53-11.16-12.45-23-24.54-32.3-38.34-13.43-20-24-41.84-39.93-60.23-1.81-2.09-4.62-4.73-2.33-7.83,2.41-3.26,6.13-2.35,9.35-1.16,4.47,1.64,7.91,4.83,11,8.37q32.42,36.9,64.84,73.81c4.44,5.07,5.38,11.35,5.61,17.79C2424.66,1113.37,2424,1118.28,2419.33,1120.63Zm357.62.25c5.91,10.49,14.62,5.17,22.58,3.94,8.22-1.26,12.48-7,14.55-14.19,1.29-4.47-2.32-7-6.1-8.33-3.51-1.25-7.21-2-11.43-3.08,4.52-4.35,9.34-2.49,13.64-2.08,7.19.69,11.55,6.13,13.43,12.14,2.48,7.93-4.63,12-9.47,16.52-3.82,3.55-8.61,4.91-14,5.29-4.93.35-12.16-5.2-14.39,2.44-2,6.8,4.36,11.19,9.37,15.24,6.14,5,12.12,10.15,18.37,15.41-7.08,6.91-12.83,3.73-17.69-.52-5.8-5.08-12.2-9.12-18.71-13.09-9.16-5.59-17.33-6.58-26.53,1.32-8.91,7.65-18.45,7.58-28.56-.87-9.73-8.12-19.33-15.74-25.44-27.21-4.1-7.69-12.05-10.54-20.07-12.13-17.84-3.55-29.09-16.16-40.44-28.67-2.07-2.29-3.62-4.83.27-7.3,8.15-5.16,24.17.18,27.85,9.43,6,15.19,5.8,14.8,19.38,5.7,8.14-5.45,19.35-6.79,26.7-2.23,12.16,7.54,25.56,8.53,38.39,12.32C2760.53,1104.42,2770.68,1109.75,2777,1120.88Zm-34.37-621.83c.49-.92,1.9-1.35,3.73-2.59,2.83,8.63,9.74,15.45-1.4,24.1-5.82,4.51-1.29,12.59,3.81,17.73,5,5,8.13,8.48-1.66,12.45-10.16,4.12-11.32,22.09-2.48,28.57,3.78,2.77,7.94,4.75,8.47,10.78-6.55-.86-8.41-10.94-16.19-5.24-1.59,1.17-2.64-1.16-2.6-3C2734.76,554,2728.49,525.51,2742.58,499.05Zm-28.64,125.27c14.14-5,8.19-18.6,13.23-30.48,6.21,10.66,16.91,9.87,24.36,15.39,5.63,4.17,5.17,7.49,0,10.49-7.08,4.1-13.41,10.88-23.17,7.41-3.35-1.19-6.56.26-8.94,3.34-1.56,2-3.92,4.07-6.06.83C2712,629.14,2711.82,625.06,2713.94,624.32Zm-83.94,112c-.25-11.74,13.29-27.21,26.78-29.21,10.72-1.6,19.87-3.89,22.77-16.14.71-3,4.2-6.16,6.33-5.26,4.8,2,8.1,3,11.67-2,5.8-8.07,15.62-13.48,16.18-25a49.94,49.94,0,0,1,.57-7.56c.65-3.26,1.2-7.35,5.77-6.93,4.24.39,4.63,4.31,5.13,7.69a28.48,28.48,0,0,1-2.1,16.13c-3.42,7.71-5.33,15.13-4.54,24.25A19,19,0,0,1,2703,712.58a59.78,59.78,0,0,0-18.74,7c-6.24,3.52-11.06,6.41-18.91.17-9.27-7.37-23.46,1.66-24.76,14.05a6.91,6.91,0,0,1-.28,2.5c-2.21,3.94.86,12.2-6.71,11.41C2626.67,747,2631.2,740.08,2630,736.34ZM2585.39,977.7c1.1-2.56,3.33-4.07,6.13-3.12s3.2,3.7,3.37,6.29c.64,10-5,18.6-6.12,28.34-.54,4.93-4.5,3.18-7.58.63-6.69-5.53-7.77-17.28-19.72-17.24-2.29,0-1.17-3.54.22-5.14,3-3.44,6.72-5,12.68-3.43C2578.75,985,2583,983.34,2585.39,977.7Zm-44-71.35c3.91-6.63,4.81-13.2,5.5-20.35.33-3.44.63-8.52,6.09-7.8a8.3,8.3,0,0,1,7.56,7.41c1,6.88.44,13.09-3.27,19.4-5,8.5-5.53,16.12,7.11,18.73,4.54.93,8.44,3.79,9.38,10.64-7-1.36-12.66-2.66-18.41-3.53C2546.17,929.46,2536.66,914.34,2541.38,906.35Zm-75.9,143.44c16.13-10.92,33.42-21.42,44.28-38.74,2-3.27,4.07-6.89,8.88-5.24,5.06,1.73,5.81,6.14,4.94,10.44-4.07,20.16,1.94,40.9-4.6,61.15-3.22,9.95-10.95,21-16.36,21.13l-28.9-2.06c-4.22-.3-6.85-2.31-8.47-6.42-2.16-5.5-5.26-10.62-7.53-16.08C2453.49,1063.81,2454.72,1057.07,2465.48,1049.79Zm311,468.35c-4.3,5-10,3.32-15.27,1.42-8.73-3.13-13-10.69-16.39-18.31-3-6.63,1.43-9.12,7.86-9,9,1.81,18.17,2.8,27.48,1,3.73-.7,5.31,1.72,5.77,5.07C2787.12,1507,2781.36,1512.49,2776.48,1518.14Zm81.32-126.82a12,12,0,0,1-4.62,10.1,81.54,81.54,0,0,0-27.17,43.16c-.5,1.94-1.78,4.74-3.29,5.19-11.79,3.56-25.13,11.61-35.32,8.76-17-4.76-33.68-1.6-50.27-4.6-9.21-1.67-14.16-4-15.83-14.12-2.06-12.42-14.35-19.43-19.25-30.92-2.26-5.3-7.23-1.78-10.4,1.39-9.11,9.14-16,7.67-23.67-2.8-9.66-13.27-42.23-21-58.84-14.51a78.35,78.35,0,0,1-23.39,5.37c-2.52.18-5.8-.11-7.4,1.32-14.08,12.61-30.76,13.86-48.51,12.81-5.14-.31-11.69,1.57-15.53,4.86-10.54,9-22.61,5.53-34,5.51-10.79,0-13.63-6.77-8.19-16.46,1.68-3,4.05-6.53,1.78-9.5-10.41-13.59-9.2-31.14-15.48-46.41-5.63-13.66-8.45-32-2.48-48.53,1.52-4.21,4.42-7.71,8.41-9.11,13.86-4.89,26.6-12.3,42-13.79,13.22-1.28,27-5.53,33.15-20,3.09-7.25,11.05-7.51,15.72-12.07,7.88-7.68,14.94-16.19,22.41-24.29,7.22-7.83,14.16-9.55,19.91,1.49,2.93,5.64,6.92,8.11,13.42,6.54s7.15-6.14,7.14-11.62c0-12,8.74-17.94,18-20.19,13.44-3.25,27.42-5.2,41.55-1.76,8.14,2,9.11,4.84,5.36,12.23-8.49,16.74-8.14,17,8.81,24.78a151.56,151.56,0,0,1,25.3,14.59c10.63,7.57,16.51,5.48,21-6.82a64.27,64.27,0,0,0,4.31-21.09c-1-8.45-2.11-16.9.23-25.3.92-3.31,1.78-7,6.05-7.11,3.72-.13,5,3.17,5.59,6,3.93,18.54,19.15,30.31,27.45,46.21,1.16,2.22,3.95,4.58,3.6,6.43-2.59,13.78,7.34,18.43,16.54,23.68,12.16,6.94,15.92,21.28,26.83,29.84a112.79,112.79,0,0,1,18,17.63c6.25,7.77,15.26,14.43,9.38,26.49a2.72,2.72,0,0,0,.13,2.44C2870.86,1361.4,2856.68,1376.63,2857.8,1391.32Zm142.06,45.77c1.28,7.07,2,11.27,2.78,15.39C2999.17,1449.11,2994.55,1446,2999.86,1437.09Zm-3.18,84.92c-11.19,6.37-17.91,16.08-23.56,27.31-5,10-15.57,8.48-24.62,9.63-5.07-1.4-12.33,1.83-14.6-4.74-2.36-6.83,4.27-10.54,8.6-14.17,11.87-10,26.88-15.57,36.71-28.71,4.43-5.94,13.08-2.55,18.82.64C3003.3,1514.91,3000.7,1519.72,2996.68,1522ZM3031,1895.83a51.53,51.53,0,0,1,7.78-6.43A51.53,51.53,0,0,0,3031,1895.83Zm5.55-406.53c-4.75,5.37-9.95,10.36-15,15.43-3.16,3.15-7,3.77-10.17.6-5.84-5.87-13.5-11.48-10.86-21.26,2.78-10.34,3.91-20.58,2.42-31.14,9.25,2.07,11.08,10.79,15,17.41,3.61,6.18,6.82,11.09,15.44,10.33C3041.2,1480,3040.51,1484.83,3036.56,1489.3Z"/><polygon class="cls-3" points="658.48 214.1 658 214.37 658.34 213.95 658.48 214.1"/><path class="cls-5" d="M759.93,290.68a3.19,3.19,0,0,1,.26.26A3.19,3.19,0,0,1,759.93,290.68Z"/><path class="cls-5" d="M750.28,272.63l-.1.09Z"/><path class="cls-2" d="M1742.05,103.47c-9.39,3.92-18.17,2.24-26.62-3-4.43-2.74-9.92-5.52-14.23-1.91-10,8.38-18.75,15.42-34,12.31-5.21-1.07-14,1.92-21.41,1.06-4.77-.55-10.09-4.11-14,1.4-3.77,5.23-.86,10.71.74,15.79,1,3.09,3.5,5.7,5.33,8.52l4,5.49,18.39-3.18-18.39,3.18c6.35,4.14-2.07,15.16,8.15,17.49a60.74,60.74,0,0,1,7.24,2.09c13,5.49,27.2-.17,33.63-13.35,1.37-2.8.12-8,4.58-7.94,4.28.05,7.72,3.78,9.82,7.26,7.36,12.26,13.66,13.87,26.15,5.91-11-9.9-25.95-15-33.92-28.46l-1,.22,1-.22,1.89-2.18q-.09-.78-.24-1.53.15.75.24,1.53c11.62.38,23.17-.81,34.89.78,12,1.62,20.06-6.12,26.55-15.37C1755.93,103,1750,100.16,1742.05,103.47Z"/><polygon class="cls-7" points="355.75 941.79 285 923.4 268.02 849.82 268.02 941.79 355.75 941.79"/><polygon class="cls-8" points="268.02 849.82 252.46 923.4 177.47 941.79 268.02 941.79 268.02 849.82"/><polygon class="cls-9" points="268.02 1032.35 285 958.77 355.75 941.79 268.02 941.79 268.02 1032.35"/><polygon class="cls-10" points="268.02 1032.35 268.02 941.79 177.47 941.79 251.04 958.77 268.02 1032.35"/><polygon class="cls-10" points="314.13 897.34 267.58 924.68 220.29 895.13 268.32 943.15 314.13 897.34"/><polygon class="cls-11" points="220.73 895.12 250.59 941.95 220.59 990.44 268.31 943.59 220.73 895.12"/><polygon class="cls-11" points="315.6 990.44 286.05 943.15 314.13 897.34 268.32 943.15 315.6 990.44"/><polygon class="cls-10" points="315.6 990.44 268.32 943.15 221.03 990.44 268.32 960.88 315.6 990.44"/><circle class="cls-10" cx="269.44" cy="943.21" r="16.98"/><circle class="cls-8" cx="269.44" cy="943.21" r="11.32"/><rect class="cls-12" x="1544.5" y="500.3" width="19.65" height="4.21"/><rect class="cls-12" x="1515.02" y="500.3" width="19.65" height="4.21" transform="translate(26.97 -75.46) rotate(2.86)"/><rect class="cls-12" x="1481.33" y="498.9" width="19.65" height="4.21"/><rect class="cls-12" x="1451.85" y="498.9" width="19.65" height="4.21" transform="translate(26.82 -72.31) rotate(2.86)"/><rect class="cls-12" x="1419.54" y="499.4" width="19.65" height="4.21" transform="translate(-27.92 88.1) rotate(-3.5)"/><rect class="cls-12" x="1390.11" y="501.2" width="19.65" height="4.21" transform="translate(-5.5 15.57) rotate(-0.64)"/><rect class="cls-12" x="1346.41" y="502.38" width="19.65" height="4.21" transform="translate(-58.54 200.69) rotate(-8.28)"/><rect class="cls-12" x="1317.24" y="506.63" width="19.65" height="4.21" transform="translate(-42.15 127.74) rotate(-5.42)"/><rect class="cls-12" x="1279.96" y="512.88" width="19.65" height="4.21" transform="translate(-93.74 394.1) rotate(-16.77)"/><rect class="cls-12" x="1251.74" y="521.39" width="19.65" height="4.21" transform="translate(-88.86 318.68) rotate(-13.91)"/><rect class="cls-12" x="1219.7" y="532.88" width="19.65" height="4.21" transform="translate(-97.85 345.22) rotate(-15.38)"/><rect class="cls-12" x="1188.47" y="546.31" width="19.65" height="4.21" transform="translate(-90.38 272.77) rotate(-12.52)"/><rect class="cls-12" x="1159.34" y="559.55" width="19.65" height="4.21" transform="translate(-124.19 659.83) rotate(-30)"/><rect class="cls-12" x="1132.67" y="574.99" width="19.65" height="4.21" transform="translate(-135.48 648.56) rotate(-30)"/><rect class="cls-12" x="1101.78" y="593.24" width="19.65" height="4.21" transform="translate(-148.75 635.57) rotate(-30)"/><rect class="cls-12" x="1072.31" y="605.87" width="19.65" height="4.21" transform="translate(-99.81 228.95) rotate(-11.55)"/><rect class="cls-12" x="1038.62" y="608.68" width="19.65" height="4.21" transform="translate(-30.8 56.23) rotate(-3.03)"/><rect class="cls-12" x="1004.93" y="610.09" width="19.65" height="4.21" transform="translate(23.46 -37.29) rotate(2.13)"/><rect class="cls-12" x="972.64" y="610.09" width="19.65" height="4.21" transform="translate(23.43 -36.09) rotate(2.13)"/><rect class="cls-12" x="944.56" y="608.68" width="19.65" height="4.21" transform="translate(23.36 -35.05) rotate(2.13)"/><rect class="cls-12" x="915.09" y="608.68" width="19.65" height="4.21" transform="translate(23.34 -33.96) rotate(2.13)"/><rect class="cls-12" x="1354.46" y="852.23" width="19.65" height="4.21" transform="translate(391.26 -428) rotate(20.75)"/><rect class="cls-12" x="1326.89" y="841.78" width="19.65" height="4.21" transform="translate(449.96 -464.78) rotate(23.61)"/><rect class="cls-12" x="1295.88" y="828.53" width="19.65" height="4.21" transform="translate(379.06 -408.78) rotate(20.75)"/><rect class="cls-12" x="1268.32" y="818.09" width="19.65" height="4.21" transform="translate(435.56 -443.3) rotate(23.61)"/><rect class="cls-12" x="1237.92" y="807.1" width="19.65" height="4.21" transform="translate(296.24 -333.73) rotate(17.26)"/><rect class="cls-12" x="1209.77" y="798.36" width="19.65" height="4.21" transform="translate(349.72 -370.64) rotate(20.12)"/><rect class="cls-12" x="1168.49" y="783.98" width="19.65" height="4.21" transform="translate(197.51 -235.87) rotate(12.47)"/><rect class="cls-12" x="1139.7" y="777.62" width="19.65" height="4.21" transform="translate(247.02 -276.15) rotate(15.33)"/><rect class="cls-12" x="1102.63" y="770.25" width="19.65" height="4.21" transform="translate(56.31 -75.37) rotate(3.98)"/><rect class="cls-12" x="1073.15" y="766.04" width="19.65" height="4.21" transform="translate(281.98 -290.76) rotate(17.55)"/><rect class="cls-12" x="1046.48" y="754.81" width="19.65" height="4.21" transform="translate(1739.55 1862.3) rotate(-157.34)"/><rect class="cls-12" x="1019.81" y="739.37" width="19.65" height="4.21" transform="translate(1461.63 1934.5) rotate(-145.66)"/><rect class="cls-12" x="995.94" y="721.12" width="19.65" height="4.21" transform="translate(1205.56 1945.81) rotate(-135)"/><rect class="cls-12" x="977.69" y="698.66" width="19.65" height="4.21" transform="translate(948.43 1911.03) rotate(-123.51)"/><rect class="cls-12" x="962.25" y="677.6" width="19.65" height="4.21" transform="translate(942.02 1865.48) rotate(-123.51)"/><rect class="cls-12" x="946.81" y="656.55" width="19.65" height="4.21" transform="translate(935.61 1819.92) rotate(-123.51)"/><rect class="cls-12" x="931.37" y="636.9" width="19.65" height="4.21" transform="translate(928.03 1776.54) rotate(-123.51)"/><rect class="cls-12" x="917.33" y="617.24" width="19.65" height="4.21" transform="translate(922.63 1734.34) rotate(-123.51)"/><circle class="cls-12" cx="1589.42" cy="518.55" r="8.42"/><circle class="cls-2" cx="1589.42" cy="518.55" r="7.02"/><circle class="cls-12" cx="1589.42" cy="518.55" r="5.62"/><text class="cls-13" transform="translate(1575.72 505.39)"><tspan class="cls-14">A</tspan><tspan x="15.39" y="0">ms</tspan><tspan class="cls-15" x="46.47" y="0">t</tspan><tspan x="54.68" y="0">e</tspan><tspan class="cls-16" x="67.34" y="0">r</tspan><tspan x="75.35" y="0">dam</tspan></text><circle class="cls-12" cx="1405.53" cy="866.68" r="8.42"/><circle class="cls-2" cx="1405.53" cy="866.68" r="7.02"/><circle class="cls-12" cx="1405.53" cy="866.68" r="5.62"/><circle class="cls-12" cx="884.73" cy="599.97" r="8.42"/><circle class="cls-2" cx="884.73" cy="599.97" r="7.02"/><circle class="cls-12" cx="884.73" cy="599.97" r="5.62"/><text class="cls-13" transform="translate(862.61 584)">New <tspan class="cls-17" x="53.24" y="0">A</tspan><tspan x="68.63" y="0">ms</tspan><tspan class="cls-18" x="99.71" y="0">t</tspan><tspan x="107.92" y="0">e</tspan><tspan class="cls-19" x="120.58" y="0">r</tspan><tspan x="128.59" y="0">dam</tspan></text><text class="cls-13" transform="translate(1403.06 850.72)">Sl<tspan class="cls-20" x="18.42" y="0">a</tspan><tspan class="cls-16" x="30.4" y="0">v</tspan><tspan x="42.3" y="0">en </tspan><tspan class="cls-21" x="74.34" y="0">R</tspan><tspan x="88.03" y="0">ou</tspan><tspan class="cls-18" x="115.83" y="0">t</tspan><tspan x="124.04" y="0">e</tspan></text></svg>